<?xml version="1.0" encoding="utf-8"?>
<!-- Generator: Adobe Illustrator 23.0.6, SVG Export Plug-In . SVG Version: 6.00 Build 0)  -->
<svg version="1.1" id="Layer_1" xmlns="http://www.w3.org/2000/svg" xmlns:xlink="http://www.w3.org/1999/xlink" x="0px" y="0px"
	 viewBox="0 0 360 360" style="enable-background:new 0 0 360 360;" xml:space="preserve">
<style type="text/css">
	.st0{fill:#2F4858;}
</style>
<title>KYG_white</title>
<polygon class="st0" points="110.2,155.4 120.2,155.4 120.2,167.4 123.2,167.4 130.8,155.4 138.8,155.4 138.8,157.3 130.2,170 
	139.8,182.9 139.8,184.8 131.2,184.8 123.1,173.1 120.2,173.1 120.2,184.8 110.2,184.8 "/>
<path class="st0" d="M204.7,162.1c-1.3-2.3-3.2-4.2-5.6-5.4c-5.2-2.6-11.2-2.6-16.4,0c-2.3,1.3-4.3,3.1-5.6,5.5c-1.4,2.4-2,5.2-2,8
	c0,2.8,0.6,5.5,2,7.9c1.3,2.3,3.2,4.2,5.6,5.5c5.1,2.6,11.2,2.6,16.4,0c2.3-1.3,4.3-3.1,5.6-5.5c1.4-2.4,2-5.2,2-7.9
	C206.8,167.3,206.1,164.6,204.7,162.1z M195.4,175.6c-2,2.5-5.6,2.8-8.1,0.8c-0.3-0.2-0.6-0.5-0.8-0.8c-1.2-1.6-1.8-3.5-1.7-5.5
	c0-1.4,0.2-2.8,0.8-4.1c0.5-1.1,1.2-2.1,2.2-2.8c1.9-1.3,4.5-1.3,6.4,0c1,0.7,1.7,1.7,2.2,2.8c0.5,1.3,0.8,2.7,0.8,4.1
	C197.2,172.1,196.6,174,195.4,175.6z"/>
<polygon class="st0" points="208.4,155.4 216.8,155.4 220.8,174.1 223.7,160.4 233.7,160.4 236.6,174.1 240.6,155.4 249,155.4 
	242.3,184.8 232.3,184.8 228.7,169 225.1,184.8 215.1,184.8 "/>
<polygon class="st0" points="119.2,219.1 109.7,195.4 119.7,195.4 124.3,210.2 128.9,195.4 139.4,195.4 129.4,219.1 129.4,228.2 
	119.2,228.2 "/>
<path class="st0" d="M172.4,202.9c-1.5-2.6-3.6-4.7-6.2-6.1c-5.7-2.9-12.5-2.9-18.3,0c-2.6,1.4-4.8,3.5-6.2,6.1
	c-1.5,2.7-2.3,5.8-2.2,8.9c-0.1,3.1,0.7,6.1,2.2,8.9c1.5,2.6,3.6,4.7,6.2,6.1c5.7,2.9,12.5,2.9,18.2,0c2.6-1.4,4.8-3.5,6.2-6.1
	c1.5-2.7,2.3-5.8,2.2-8.9C174.7,208.8,173.9,205.7,172.4,202.9z M162,218c-2.2,2.7-6.3,3.1-9,0.9c-0.3-0.3-0.6-0.6-0.9-0.9
	c-1.3-1.8-2-3.9-1.9-6.1c0-1.5,0.3-3.1,0.9-4.5c0.5-1.2,1.3-2.3,2.4-3.1c1-0.7,2.3-1.1,3.5-1.1c1.3,0,2.5,0.4,3.6,1.1
	c1.1,0.8,1.9,1.9,2.5,3.1c0.6,1.4,0.9,3,0.9,4.5C164,214,163.4,216.2,162,218z"/>
<path class="st0" d="M186.7,227.2c-4.9-2.3-7.9-7.2-7.8-12.5v-19.2h10.8v19.2c-0.1,1.6,0.4,3.1,1.4,4.3c1.1,1,2.6,1.5,4.1,1.4
	c1.5,0.1,3-0.4,4.1-1.5c1-1.2,1.5-2.7,1.4-4.3v-19.2h10.8v19.2c0.1,5.4-2.9,10.3-7.8,12.5C198.2,229.6,192.1,229.6,186.7,227.2
	L186.7,227.2z"/>
<path class="st0" d="M244.4,220.6c-1,0.1-2-0.2-2.9-0.7c-0.8-0.7-1.3-1.5-1.6-2.5c-0.3-1-0.5-2.1-0.8-3.3c1.9-0.7,3.6-2,4.8-3.6
	c1.1-1.6,1.6-3.5,1.6-5.4c0-1.8-0.6-3.6-1.7-5c-1.3-1.6-2.9-2.7-4.8-3.4c-2.3-0.9-4.8-1.3-7.2-1.2h-14.4v32.8h10.4v-12.5h2.3
	l1.2,4.9c1.3,5.5,5,8.3,11,8.3c1.5,0,3-0.3,4.4-0.9v-7.8C245.9,220.5,245.1,220.5,244.4,220.6z M234.5,208.3c-1.6,0.6-3.3,0.9-5,0.8
	h-1.8v-6.6h3.3c1.3-0.1,2.6,0.2,3.8,0.7c0.8,0.5,1.3,1.4,1.2,2.4C236.1,206.7,235.5,207.8,234.5,208.3L234.5,208.3z"/>
<path class="st0" d="M127.4,269.9c-2.9-1.7-5.2-4.2-6.8-7.1c-1.7-3.1-2.5-6.5-2.5-10c0-3.4,0.8-6.7,2.5-9.6c1.7-2.9,4.1-5.3,7-6.9
	c3.1-1.7,6.6-2.6,10.2-2.5c2,0,4,0.2,6,0.7c1.9,0.4,3.6,1.1,5.3,2l-3.6,8.3c-2.2-0.9-4.5-1.4-6.8-1.5c-2.4-0.1-4.8,0.8-6.4,2.7
	c-1.6,2-2.4,4.5-2.3,7c0,1.7,0.3,3.4,1,5c0.6,1.4,1.6,2.6,2.9,3.5c1.2,0.9,2.7,1.3,4.2,1.3c0.7,0,1.4-0.1,2.1-0.2V254l9.3-1.1v16.8
	c-3.9,1.8-8.1,2.8-12.4,2.8C133.7,272.6,130.3,271.7,127.4,269.9z"/>
<path class="st0" d="M190.7,243.1c-1.6-2.9-4.1-5.3-7-6.8c-6.5-3.3-14.1-3.3-20.6,0c-2.9,1.6-5.4,4-7,6.9c-1.7,3.1-2.6,6.6-2.5,10.1
	c-0.1,3.5,0.8,6.9,2.5,10c1.6,2.9,4.1,5.3,7,6.9c6.5,3.3,14.1,3.3,20.6,0c2.9-1.6,5.4-4,7-6.9c1.7-3.1,2.6-6.5,2.5-10
	C193.2,249.7,192.4,246.2,190.7,243.1z M179,260.1c-2.6,3.1-7.1,3.5-10.2,1c-0.4-0.3-0.7-0.6-1-1c-1.5-2-2.3-4.5-2.2-7
	c0-1.7,0.3-3.5,1-5.1c0.6-1.4,1.5-2.6,2.8-3.5c1.2-0.8,2.6-1.3,4-1.3c1.4,0,2.8,0.4,4,1.3c1.2,0.9,2.2,2.1,2.8,3.5
	c0.7,1.6,1,3.3,1,5.1C181.3,255.6,180.5,258.1,179,260.1z"/>
<polygon class="st0" points="194.3,234.6 205.3,234.6 212.2,259 219.1,234.6 230.6,234.6 219,271.7 205.3,271.7 "/>
<path class="st0" d="M228.5,270.4c-1.1-1-1.7-2.5-1.6-3.9c-0.1-1.5,0.6-2.9,1.7-3.9c1.2-1,2.8-1.6,4.4-1.5c1.6-0.1,3.2,0.5,4.4,1.6
	c1.1,1,1.7,2.4,1.7,3.9c0.1,1.5-0.5,2.9-1.6,4c-1.2,1.1-2.8,1.6-4.4,1.5C231.4,272.1,229.7,271.5,228.5,270.4z"/>
<path class="st0" d="M171,163.9c-1.1-15-10.5-13.6-10.5-13.6v7.8c2.2,0,2.8,3.4,3,6v7.1l-11.7-15.9h-8.6v29.5h7.6v-15.4l11.8,15.3
	h8.6L171,163.9z"/>
<path class="st0" d="M180.9,112.9c-55,0-108.1,9.1-108.1,9.1v19.6c0,0,69.4-6.1,108.1-6.1s106.4,6.1,106.4,6.1v-19.3
	C287.2,122.3,235.9,112.9,180.9,112.9z M278.1,132.9c-20.4-1.7-67.1-5.3-97.2-5.3s-78.2,3.7-99,5.4v-4.4c16.3-2.4,57.3-7.8,99-7.8
	s81.4,5.5,97.2,8V132.9z"/>
<polygon class="st0" points="290.8,300.8 290.8,288.6 217.3,288.6 182.5,288.6 177.5,288.6 139.8,288.6 69.2,288.6 69.2,300.8 "/>
<polygon class="st0" points="56.9,307.4 52.3,307.4 43,307.4 43,324 139.8,324 177.5,324 182.5,324 217.3,324 317,324 317,307.4 
	303.1,307.4 "/>
<path class="st0" d="M289.2,266.2H285V162.4h4.8c0,0,12.3-8.2,0-14.8h-26.9v135.3h26.3C289.2,282.9,298.3,274.2,289.2,266.2z
	 M275.7,263.9h-5.9V163.5h5.9V263.9z"/>
<path class="st0" d="M69.4,147.6c-12.3,6.6,0,14.8,0,14.8h4.8v103.8H70c-9.1,8,0,16.6,0,16.6h26.3V147.6H69.4z M89.1,263.9h-5.9
	V163.5h5.9L89.1,263.9z"/>
<path class="st0" d="M187.7,39.4c-6.2-4.6-14.7-4.5-20.7,0.3l-93.4,74.5c0,0,65.2-10.1,103.6-10.1s110.9,10.1,110.9,10.1L187.7,39.4
	z M112.9,96.5l59-43.4c1.6-1.3,3.6-2,5.7-2c2,0,3.9,0.6,5.4,1.8l64.5,43.8c-24.6-2.9-47.2-6.4-70.2-6.4
	C154.6,90.2,135.4,93.6,112.9,96.5z"/>
</svg>
