<?xml version="1.0" encoding="utf-8"?>
<!-- Generator: Adobe Illustrator 23.0.4, SVG Export Plug-In . SVG Version: 6.00 Build 0)  -->
<svg version="1.1" id="Layer_1" xmlns="http://www.w3.org/2000/svg" xmlns:xlink="http://www.w3.org/1999/xlink" x="0px" y="0px"
	 viewBox="0 0 94.9 20" style="enable-background:new 0 0 94.9 20;" xml:space="preserve">
<style type="text/css">
	.st0{clip-path:url(#SVGID_2_);fill-rule:evenodd;clip-rule:evenodd;fill:#F6F4F3;}
	.st1{clip-path:url(#SVGID_4_);}
	.st2{fill:#247BA0;}
	.st3{fill:#F25F5C;}
	.st4{fill:none;stroke:#F25F5C;stroke-width:0.5477;stroke-miterlimit:10;}
	.st5{clip-path:url(#SVGID_6_);fill-rule:evenodd;clip-rule:evenodd;fill:#247BA0;}
	.st6{clip-path:url(#SVGID_8_);fill-rule:evenodd;clip-rule:evenodd;fill:#247BA0;}
	.st7{clip-path:url(#SVGID_10_);}
	.st8{fill-rule:evenodd;clip-rule:evenodd;fill:#F6F4F3;}
	.st9{clip-path:url(#SVGID_12_);fill:none;}
	.st10{clip-path:url(#SVGID_14_);fill:none;stroke:#247BA0;stroke-width:0.25;stroke-miterlimit:10;}
	.st11{clip-path:url(#SVGID_16_);fill:none;stroke:#247BA0;stroke-width:0.25;stroke-miterlimit:10;}
</style>
<g>
	<g>
		<defs>
			<path id="SVGID_1_" d="M93.6,20H1.3C0.6,20,0,19.4,0,18.7V1.3C0,0.6,0.6,0,1.3,0h92.3c0.7,0,1.3,0.6,1.3,1.3v17.4
				C94.9,19.4,94.3,20,93.6,20z"/>
		</defs>
		<clipPath id="SVGID_2_">
			<use xlink:href="#SVGID_1_"  style="overflow:visible;"/>
		</clipPath>
		<path class="st0" d="M93.6,20H1.3C0.6,20,0,19.4,0,18.7V1.3C0,0.6,0.6,0,1.3,0h92.3c0.7,0,1.3,0.6,1.3,1.3v17.4
			C94.9,19.4,94.3,20,93.6,20z"/>
	</g>
	<g>
		<defs>
			<path id="SVGID_3_" d="M93.6,20H1.3C0.6,20,0,19.4,0,18.7V1.3C0,0.6,0.6,0,1.3,0h92.3c0.7,0,1.3,0.6,1.3,1.3v17.4
				C94.9,19.4,94.3,20,93.6,20z"/>
		</defs>
		<clipPath id="SVGID_4_">
			<use xlink:href="#SVGID_3_"  style="overflow:visible;"/>
		</clipPath>
		<g class="st1">
			<g>
				<path class="st2" d="M32.8,11.2c-0.1,0.7-0.3,1.2-0.7,1.5c-0.4,0.4-0.9,0.5-1.6,0.5c-0.5,0-0.9-0.1-1.2-0.4
					c-0.4-0.2-0.6-0.6-0.8-1c-0.2-0.4-0.3-0.9-0.3-1.5V9.6c0-0.6,0.1-1.1,0.3-1.5c0.2-0.4,0.5-0.8,0.8-1c0.4-0.2,0.8-0.4,1.3-0.4
					c0.7,0,1.2,0.2,1.6,0.5c0.4,0.4,0.6,0.9,0.7,1.5h-0.5c-0.1-1.1-0.7-1.6-1.8-1.6c-0.6,0-1,0.2-1.4,0.6c-0.3,0.4-0.5,1-0.5,1.8
					v0.8c0,0.7,0.2,1.3,0.5,1.7s0.8,0.7,1.3,0.7c0.6,0,1-0.1,1.3-0.4c0.3-0.3,0.5-0.7,0.5-1.2L32.8,11.2L32.8,11.2z"/>
				<path class="st2" d="M37.5,11.3h-2.9L34,13.1h-0.6l2.4-6.3h0.5l2.4,6.3h-0.6L37.5,11.3z M34.8,10.9h2.5L36,7.5L34.8,10.9z"/>
				<path class="st2" d="M40.2,12.7h3.1v0.5h-3.7V6.8h0.5v5.9H40.2z"/>
				<path class="st2" d="M44.9,12.7H48v0.5h-3.7V6.8h0.5v5.9H44.9z"/>
				<path class="st3" d="M53.1,10.3L55,6.8h0.6l-2.3,3.9v2.4h-0.5v-2.4l-2.3-3.9h0.6L53.1,10.3z"/>
				<path class="st3" d="M61.1,10.3c0,0.6-0.1,1.1-0.3,1.5s-0.5,0.8-0.9,1s-0.8,0.4-1.3,0.4c-0.7,0-1.3-0.3-1.8-0.8
					s-0.7-1.2-0.7-2.1V9.6c0-0.6,0.1-1.1,0.3-1.5c0.2-0.4,0.5-0.8,0.9-1s0.8-0.4,1.3-0.4s0.9,0.1,1.3,0.4c0.4,0.2,0.7,0.6,0.9,1
					C61,8.5,61.1,9,61.1,9.6V10.3z M60.5,9.6c0-0.8-0.2-1.4-0.5-1.8c-0.3-0.4-0.8-0.6-1.4-0.6c-0.6,0-1.1,0.2-1.4,0.6
					c-0.3,0.4-0.5,1-0.5,1.8v0.7c0,0.7,0.2,1.3,0.5,1.8c0.3,0.4,0.8,0.7,1.4,0.7c0.6,0,1.1-0.2,1.4-0.6c0.3-0.4,0.5-1,0.5-1.8V9.6z"
					/>
				<path class="st3" d="M66.8,6.8v4.3c0,0.4-0.1,0.8-0.3,1.1c-0.2,0.3-0.4,0.6-0.8,0.7c-0.3,0.2-0.7,0.3-1.2,0.3
					c-0.7,0-1.2-0.2-1.6-0.5c-0.4-0.4-0.6-0.9-0.6-1.5V6.8h0.5v4.3c0,0.5,0.2,0.9,0.5,1.2s0.7,0.4,1.2,0.4s0.9-0.1,1.2-0.4
					c0.3-0.3,0.5-0.7,0.5-1.2V6.8H66.8z"/>
				<path class="st3" d="M70.6,10.5h-1.8v2.6h-0.5V6.8h2.1c0.7,0,1.2,0.2,1.6,0.5s0.6,0.8,0.6,1.4c0,0.4-0.1,0.8-0.4,1.1
					c-0.2,0.3-0.6,0.5-1,0.6l1.6,2.7v0.1h-0.6L70.6,10.5z M68.8,10h1.6c0.4,0,0.8-0.1,1.1-0.4c0.3-0.3,0.4-0.6,0.4-1s-0.1-0.8-0.4-1
					s-0.7-0.4-1.2-0.4h-1.5V10z"/>
				<path class="st2" d="M78.4,10.5h-1.8v2.6h-0.5V6.8h2.1c0.7,0,1.2,0.2,1.6,0.5s0.6,0.8,0.6,1.4c0,0.4-0.1,0.8-0.4,1.1
					c-0.2,0.3-0.6,0.5-1,0.6l1.6,2.7v0.1H80L78.4,10.5z M76.6,10h1.6c0.4,0,0.8-0.1,1.1-0.4c0.3-0.3,0.4-0.6,0.4-1s-0.1-0.8-0.4-1
					s-0.7-0.4-1.2-0.4h-1.5V10z"/>
				<path class="st2" d="M85.2,10.1h-3v2.6h3.4v0.5h-3.9V6.8h3.9v0.5h-3.4v2.4h3V10.1z"/>
				<path class="st2" d="M87.3,10.5v2.6h-0.5V6.8H89c0.7,0,1.2,0.2,1.6,0.5s0.6,0.8,0.6,1.4c0,0.6-0.2,1.1-0.5,1.4
					c-0.4,0.3-0.9,0.5-1.6,0.5L87.3,10.5L87.3,10.5z M87.3,10.1h1.6c0.5,0,0.9-0.1,1.2-0.4c0.3-0.2,0.4-0.6,0.4-1s-0.1-0.8-0.4-1
					c-0.3-0.3-0.7-0.4-1.2-0.4h-1.7L87.3,10.1L87.3,10.1z"/>
			</g>
			<path class="st4" d="M91.1,4.2"/>
			<path class="st4" d="M29.1,4.2"/>
			<path class="st4" d="M91.1,16"/>
			<path class="st4" d="M29.1,16"/>
		</g>
	</g>
	<g>
		<defs>
			<path id="SVGID_5_" d="M93.6,20H1.3C0.6,20,0,19.4,0,18.7V1.3C0,0.6,0.6,0,1.3,0h92.3c0.7,0,1.3,0.6,1.3,1.3v17.4
				C94.9,19.4,94.3,20,93.6,20z"/>
		</defs>
		<clipPath id="SVGID_6_">
			<use xlink:href="#SVGID_5_"  style="overflow:visible;"/>
		</clipPath>
		<circle class="st5" cx="4.7" cy="11.2" r="20.6"/>
	</g>
	<g>
		<defs>
			<path id="SVGID_7_" d="M93.6,20H1.3C0.6,20,0,19.4,0,18.7V1.3C0,0.6,0.6,0,1.3,0h92.3c0.7,0,1.3,0.6,1.3,1.3v17.4
				C94.9,19.4,94.3,20,93.6,20z"/>
		</defs>
		<clipPath id="SVGID_8_">
			<use xlink:href="#SVGID_7_"  style="overflow:visible;"/>
		</clipPath>
		<circle class="st6" cx="5.8" cy="10" r="20.6"/>
	</g>
	<g>
		<defs>
			<path id="SVGID_9_" d="M93.6,20H1.3C0.6,20,0,19.4,0,18.7V1.3C0,0.6,0.6,0,1.3,0h92.3c0.7,0,1.3,0.6,1.3,1.3v17.4
				C94.9,19.4,94.3,20,93.6,20z"/>
		</defs>
		<clipPath id="SVGID_10_">
			<use xlink:href="#SVGID_9_"  style="overflow:visible;"/>
		</clipPath>
		<g class="st7">
			<g>
				<path class="st8" d="M16.1,19.8c-1-1.2-1.5-2.5-1.6-3.4c-0.2,0-0.4,0.2-0.6,0.3c-0.4,0.2-0.7,0-1.1-0.4s-1.7-1.6-2.7-4
					C9.3,10.4,8.9,8.7,8.9,8S9,7.4,9.5,7.1c0.2,0,0.6-0.3,1.1-0.5c0.2,0,0.4-0.2,0.4-0.2c-1-0.4-1.7-1.5-2.2-3s-0.9-3-0.5-3.9
					c-0.6,0.3-2.1,1-3.1,3.1c-0.9,2.3-0.3,5.3,0,5.7c0,0.4,1.1,6.5,5.1,10.4s4.2,3.2,5.1,3.6c0.9,0.2,2.9,0,3.9-0.7
					C18.2,21.9,17,21.1,16.1,19.8z"/>
			</g>
			<ellipse transform="matrix(0.7571 -0.6533 0.6533 0.7571 -7.604 16.3659)" class="st8" cx="18.2" cy="18.4" rx="2" ry="4.2"/>
			<ellipse transform="matrix(0.9202 -0.3915 0.3915 0.9202 -0.1348 4.5521)" class="st8" cx="11.1" cy="2.6" rx="2" ry="4.2"/>
		</g>
	</g>
	<g>
		<defs>
			<path id="SVGID_11_" d="M93.6,20H1.3C0.6,20,0,19.4,0,18.7V1.3C0,0.6,0.6,0,1.3,0h92.3c0.7,0,1.3,0.6,1.3,1.3v17.4
				C94.9,19.4,94.3,20,93.6,20z"/>
		</defs>
		<clipPath id="SVGID_12_">
			<use xlink:href="#SVGID_11_"  style="overflow:visible;"/>
		</clipPath>
		<path class="st9" d="M93.6,20H1.3C0.6,20,0,19.4,0,18.7V1.3C0,0.6,0.6,0,1.3,0h92.3c0.7,0,1.3,0.6,1.3,1.3v17.4
			C94.9,19.4,94.3,20,93.6,20z"/>
	</g>
	<g>
		<defs>
			<path id="SVGID_13_" d="M93.6,20H1.3C0.6,20,0,19.4,0,18.7V1.3C0,0.6,0.6,0,1.3,0h92.3c0.7,0,1.3,0.6,1.3,1.3v17.4
				C94.9,19.4,94.3,20,93.6,20z"/>
		</defs>
		<clipPath id="SVGID_14_">
			<use xlink:href="#SVGID_13_"  style="overflow:visible;"/>
		</clipPath>
		<line class="st10" x1="28.2" y1="3.5" x2="91.3" y2="3.5"/>
	</g>
	<g>
		<defs>
			<path id="SVGID_15_" d="M93.6,20H1.3C0.6,20,0,19.4,0,18.7V1.3C0,0.6,0.6,0,1.3,0h92.3c0.7,0,1.3,0.6,1.3,1.3v17.4
				C94.9,19.4,94.3,20,93.6,20z"/>
		</defs>
		<clipPath id="SVGID_16_">
			<use xlink:href="#SVGID_15_"  style="overflow:visible;"/>
		</clipPath>
		<line class="st11" x1="28.2" y1="16.5" x2="91.3" y2="16.5"/>
	</g>
</g>
</svg>
