<?xml version="1.0" encoding="utf-8"?>
<!-- Generator: Adobe Illustrator 23.0.4, SVG Export Plug-In . SVG Version: 6.00 Build 0)  -->
<svg version="1.1" id="Layer_1" xmlns="http://www.w3.org/2000/svg" xmlns:xlink="http://www.w3.org/1999/xlink" x="0px" y="0px"
	 viewBox="0 0 94.9 20" style="enable-background:new 0 0 94.9 20;" xml:space="preserve">
<style type="text/css">
	.st0{clip-path:url(#SVGID_2_);fill:none;}
	.st1{clip-path:url(#SVGID_2_);fill-rule:evenodd;clip-rule:evenodd;fill:#F6F4F3;}
	.st2{clip-path:url(#SVGID_2_);fill-rule:evenodd;clip-rule:evenodd;fill:#247BA0;}
	.st3{clip-path:url(#SVGID_2_);fill:none;stroke:#247BA0;stroke-width:0.25;stroke-miterlimit:10;}
	.st4{clip-path:url(#SVGID_2_);}
	.st5{fill:#F6F4F3;}
	.st6{fill:#F25F5C;}
	.st7{fill:#247BA0;}
</style>
<g>
	<defs>
		<path id="SVGID_1_" d="M93.6,20H1.3C0.6,20,0,19.4,0,18.7V1.3C0,0.6,0.6,0,1.3,0h92.3c0.7,0,1.3,0.6,1.3,1.3v17.4
			C94.9,19.4,94.3,20,93.6,20z"/>
	</defs>
	<clipPath id="SVGID_2_">
		<use xlink:href="#SVGID_1_"  style="overflow:visible;"/>
	</clipPath>
	<path class="st0" d="M93.6,20H1.3C0.6,20,0,19.4,0,18.7V1.3C0,0.6,0.6,0,1.3,0h92.3c0.7,0,1.3,0.6,1.3,1.3v17.4
		C94.9,19.4,94.3,20,93.6,20z"/>
	<path class="st1" d="M93.6,20H1.3C0.6,20,0,19.4,0,18.7V1.3C0,0.6,0.6,0,1.3,0h92.3c0.7,0,1.3,0.6,1.3,1.3v17.4
		C94.9,19.4,94.3,20,93.6,20z"/>
	<path class="st0" d="M93.6,20H1.3C0.6,20,0,19.4,0,18.7V1.3C0,0.6,0.6,0,1.3,0h92.3c0.7,0,1.3,0.6,1.3,1.3v17.4
		C94.9,19.4,94.3,20,93.6,20z"/>
	<circle class="st2" cx="5.8" cy="10" r="20.6"/>
	<path class="st0" d="M93.6,20H1.3C0.6,20,0,19.4,0,18.7V1.3C0,0.6,0.6,0,1.3,0h92.3c0.7,0,1.3,0.6,1.3,1.3v17.4
		C94.9,19.4,94.3,20,93.6,20z"/>
	<path class="st0" d="M93.6,20H1.3C0.6,20,0,19.4,0,18.7V1.3C0,0.6,0.6,0,1.3,0h92.3c0.7,0,1.3,0.6,1.3,1.3v17.4
		C94.9,19.4,94.3,20,93.6,20z"/>
	<path class="st0" d="M93.6,20H1.3C0.6,20,0,19.4,0,18.7V1.3C0,0.6,0.6,0,1.3,0h92.3c0.7,0,1.3,0.6,1.3,1.3v17.4
		C94.9,19.4,94.3,20,93.6,20z"/>
	<path class="st0" d="M93.6,20H1.3C0.6,20,0,19.4,0,18.7V1.3C0,0.6,0.6,0,1.3,0h92.3c0.7,0,1.3,0.6,1.3,1.3v17.4
		C94.9,19.4,94.3,20,93.6,20z"/>
	<path class="st0" d="M93.6,20H1.3C0.6,20,0,19.4,0,18.7V1.3C0,0.6,0.6,0,1.3,0h92.3c0.7,0,1.3,0.6,1.3,1.3v17.4
		C94.9,19.4,94.3,20,93.6,20z"/>
	<path class="st0" d="M93.6,20H1.3C0.6,20,0,19.4,0,18.7V1.3C0,0.6,0.6,0,1.3,0h92.3c0.7,0,1.3,0.6,1.3,1.3v17.4
		C94.9,19.4,94.3,20,93.6,20z"/>
	<path class="st0" d="M93.6,20H1.3C0.6,20,0,19.4,0,18.7V1.3C0,0.6,0.6,0,1.3,0h92.3c0.7,0,1.3,0.6,1.3,1.3v17.4
		C94.9,19.4,94.3,20,93.6,20z"/>
	<path class="st0" d="M93.6,20H1.3C0.6,20,0,19.4,0,18.7V1.3C0,0.6,0.6,0,1.3,0h92.3c0.7,0,1.3,0.6,1.3,1.3v17.4
		C94.9,19.4,94.3,20,93.6,20z"/>
	<path class="st0" d="M93.6,20H1.3C0.6,20,0,19.4,0,18.7V1.3C0,0.6,0.6,0,1.3,0h92.3c0.7,0,1.3,0.6,1.3,1.3v17.4
		C94.9,19.4,94.3,20,93.6,20z"/>
	<path class="st0" d="M93.6,20H1.3C0.6,20,0,19.4,0,18.7V1.3C0,0.6,0.6,0,1.3,0h92.3c0.7,0,1.3,0.6,1.3,1.3v17.4
		C94.9,19.4,94.3,20,93.6,20z"/>
	<path class="st0" d="M93.6,20H1.3C0.6,20,0,19.4,0,18.7V1.3C0,0.6,0.6,0,1.3,0h92.3c0.7,0,1.3,0.6,1.3,1.3v17.4
		C94.9,19.4,94.3,20,93.6,20z"/>
	<path class="st0" d="M93.6,20H1.3C0.6,20,0,19.4,0,18.7V1.3C0,0.6,0.6,0,1.3,0h92.3c0.7,0,1.3,0.6,1.3,1.3v17.4
		C94.9,19.4,94.3,20,93.6,20z"/>
	<path class="st0" d="M93.6,20H1.3C0.6,20,0,19.4,0,18.7V1.3C0,0.6,0.6,0,1.3,0h92.3c0.7,0,1.3,0.6,1.3,1.3v17.4
		C94.9,19.4,94.3,20,93.6,20z"/>
	<path class="st0" d="M93.6,20H1.3C0.6,20,0,19.4,0,18.7V1.3C0,0.6,0.6,0,1.3,0h92.3c0.7,0,1.3,0.6,1.3,1.3v17.4
		C94.9,19.4,94.3,20,93.6,20z"/>
	<path class="st0" d="M93.6,20H1.3C0.6,20,0,19.4,0,18.7V1.3C0,0.6,0.6,0,1.3,0h92.3c0.7,0,1.3,0.6,1.3,1.3v17.4
		C94.9,19.4,94.3,20,93.6,20z"/>
	<path class="st0" d="M93.6,20H1.3C0.6,20,0,19.4,0,18.7V1.3C0,0.6,0.6,0,1.3,0h92.3c0.7,0,1.3,0.6,1.3,1.3v17.4
		C94.9,19.4,94.3,20,93.6,20z"/>
	<path class="st0" d="M93.6,20H1.3C0.6,20,0,19.4,0,18.7V1.3C0,0.6,0.6,0,1.3,0h92.3c0.7,0,1.3,0.6,1.3,1.3v17.4
		C94.9,19.4,94.3,20,93.6,20z"/>
	<line class="st3" x1="28.3" y1="3.5" x2="91.4" y2="3.5"/>
	<path class="st0" d="M93.6,20H1.3C0.6,20,0,19.4,0,18.7V1.3C0,0.6,0.6,0,1.3,0h92.3c0.7,0,1.3,0.6,1.3,1.3v17.4
		C94.9,19.4,94.3,20,93.6,20z"/>
	<path class="st0" d="M93.6,20H1.3C0.6,20,0,19.4,0,18.7V1.3C0,0.6,0.6,0,1.3,0h92.3c0.7,0,1.3,0.6,1.3,1.3v17.4
		C94.9,19.4,94.3,20,93.6,20z"/>
	<path class="st0" d="M93.6,20H1.3C0.6,20,0,19.4,0,18.7V1.3C0,0.6,0.6,0,1.3,0h92.3c0.7,0,1.3,0.6,1.3,1.3v17.4
		C94.9,19.4,94.3,20,93.6,20z"/>
	<line class="st3" x1="28.3" y1="16.5" x2="91.4" y2="16.5"/>
	<path class="st0" d="M93.6,20H1.3C0.6,20,0,19.4,0,18.7V1.3C0,0.6,0.6,0,1.3,0h92.3c0.7,0,1.3,0.6,1.3,1.3v17.4
		C94.9,19.4,94.3,20,93.6,20z"/>
	<path class="st0" d="M93.6,20H1.3C0.6,20,0,19.4,0,18.7V1.3C0,0.6,0.6,0,1.3,0h92.3c0.7,0,1.3,0.6,1.3,1.3v17.4
		C94.9,19.4,94.3,20,93.6,20z"/>
	<g class="st4">
		<path class="st5" d="M9,12.2c-0.2,0.3-0.5,0.6-0.9,0.7C7.8,13.1,7.4,13.1,7,13l-15.2-2.7l5.9,13.4c0.3,0.8,1.2,1.1,2,0.8
			l22.8-10.1c0.8-0.3,1.1-1.2,0.8-2l-6-13.3L9,12.2z"/>
		<path class="st5" d="M-8.5,9l15.8,2.8c0.3,0,0.5-0.1,0.6-0.3L16.5-2c0.3-0.5-0.2-1.2-0.8-1L-8.7,7.7C-9.3,8-9.1,8.9-8.5,9z"/>
	</g>
	<g class="st4">
		<path class="st6" d="M32.8,9.8h-2.7v2.3h3.1v0.4h-3.5V6.8h3.5v0.4h-3v2.1h2.7V9.8z"/>
		<path class="st6" d="M34.9,6.8l2.1,5l2.1-5h0.6v5.7h-0.5V10l0-2.5l-2.1,5h-0.4l-2.1-5l0,2.5v2.5h-0.5V6.8H34.9z"/>
		<path class="st6" d="M44.3,10.9h-2.6l-0.6,1.6h-0.5l2.2-5.7h0.5l2.2,5.7h-0.5L44.3,10.9z M41.9,10.5h2.3L43,7.4L41.9,10.5z"/>
		<path class="st6" d="M46.8,12.5h-0.5V6.8h0.5V12.5z"/>
		<path class="st6" d="M48.8,12.1h2.8v0.4h-3.3V6.8h0.5V12.1z"/>
		<path class="st7" d="M56.2,9.9l1.7-3.1h0.6l-2.1,3.5v2.1h-0.5v-2.1l-2.1-3.5h0.6L56.2,9.9z"/>
		<path class="st7" d="M63.4,9.9c0,0.5-0.1,1-0.3,1.4c-0.2,0.4-0.4,0.7-0.8,0.9s-0.7,0.3-1.2,0.3c-0.7,0-1.2-0.2-1.6-0.7
			S59,10.7,59,9.9V9.3c0-0.5,0.1-1,0.3-1.4S59.7,7.3,60,7s0.7-0.3,1.2-0.3S62,6.8,62.3,7s0.6,0.5,0.8,0.9s0.3,0.8,0.3,1.3V9.9z
			 M62.9,9.3c0-0.7-0.2-1.2-0.5-1.6s-0.7-0.6-1.3-0.6c-0.5,0-1,0.2-1.3,0.6s-0.5,0.9-0.5,1.6v0.6c0,0.7,0.2,1.2,0.5,1.6
			s0.7,0.6,1.3,0.6c0.5,0,1-0.2,1.3-0.6s0.5-0.9,0.5-1.6V9.3z"/>
		<path class="st7" d="M68.5,6.8v3.9c0,0.4-0.1,0.7-0.3,1s-0.4,0.5-0.7,0.7s-0.7,0.2-1,0.2c-0.6,0-1.1-0.2-1.4-0.5s-0.5-0.8-0.6-1.4
			V6.8H65v3.8c0,0.5,0.1,0.9,0.4,1.1s0.6,0.4,1.1,0.4s0.8-0.1,1.1-0.4s0.4-0.6,0.4-1.1V6.8H68.5z"/>
		<path class="st7" d="M72,10.1h-1.7v2.4h-0.5V6.8h1.8c0.6,0,1.1,0.1,1.4,0.4c0.3,0.3,0.5,0.7,0.5,1.2c0,0.4-0.1,0.7-0.3,1
			s-0.5,0.5-0.9,0.6l1.4,2.4v0.1h-0.5L72,10.1z M70.3,9.7h1.5c0.4,0,0.7-0.1,1-0.3s0.4-0.5,0.4-0.9c0-0.4-0.1-0.7-0.4-0.9
			s-0.6-0.3-1.1-0.3h-1.4V9.7z"/>
		<path class="st6" d="M79,10.1h-1.7v2.4h-0.5V6.8h1.8c0.6,0,1.1,0.1,1.4,0.4c0.3,0.3,0.5,0.7,0.5,1.2c0,0.4-0.1,0.7-0.3,1
			s-0.5,0.5-0.9,0.6l1.4,2.4v0.1h-0.5L79,10.1z M77.4,9.7h1.5c0.4,0,0.7-0.1,1-0.3s0.4-0.5,0.4-0.9c0-0.4-0.1-0.7-0.4-0.9
			s-0.6-0.3-1.1-0.3h-1.4V9.7z"/>
		<path class="st6" d="M85.1,9.8h-2.7v2.3h3.1v0.4H82V6.8h3.5v0.4h-3v2.1h2.7V9.8z"/>
		<path class="st6" d="M87,10.2v2.3h-0.5V6.8h1.9c0.6,0,1.1,0.2,1.4,0.5s0.5,0.7,0.5,1.2c0,0.5-0.2,0.9-0.5,1.2s-0.8,0.4-1.4,0.4H87
			z M87,9.8h1.5c0.5,0,0.8-0.1,1.1-0.3c0.2-0.2,0.4-0.5,0.4-0.9c0-0.4-0.1-0.7-0.4-0.9s-0.6-0.4-1-0.4H87V9.8z"/>
	</g>
</g>
</svg>
