<?xml version="1.0" encoding="utf-8"?>
<!-- Generator: Adobe Illustrator 23.0.4, SVG Export Plug-In . SVG Version: 6.00 Build 0)  -->
<svg version="1.1" id="Layer_1" xmlns="http://www.w3.org/2000/svg" xmlns:xlink="http://www.w3.org/1999/xlink" x="0px" y="0px"
	 viewBox="0 0 35 35" style="enable-background:new 0 0 35 35;" xml:space="preserve">
<style type="text/css">
	.st0{fill-rule:evenodd;clip-rule:evenodd;fill:#F6F4F3;}
	.st1{fill-rule:evenodd;clip-rule:evenodd;fill:none;}
	.st2{fill:#247BA0;}
	.st3{fill:#F25F5C;}
</style>
<circle class="st0" cx="17.5" cy="17.5" r="17.5"/>
<circle class="st1" cx="17.5" cy="17.5" r="17.5"/>
<g>
	<path class="st2" d="M19.3,18.8c-0.2,0.3-0.5,0.6-0.8,0.7c-0.3,0.2-0.7,0.2-1.1,0.1L2.8,17.1l5.7,12.8c0.3,0.7,1.2,1,1.9,0.7
		L32.1,21c0.7-0.3,1-1.2,0.7-1.9L27.2,6.3L19.3,18.8z"/>
	<path class="st2" d="M2.5,15.8l15.1,2.6c0.2,0,0.5-0.1,0.6-0.3l8.2-12.9c0.3-0.5-0.2-1.2-0.8-0.9L2.4,14.6
		C1.8,14.8,1.9,15.7,2.5,15.8z"/>
</g>
<g>
	<path class="st2" d="M32.9,19.1L27.2,6.3l-7.9,12.5c-0.2,0.3-0.5,0.6-0.8,0.7c-0.3,0.2-0.7,0.2-1.1,0.1L2.8,17.1l5.7,12.8
		c0.3,0.7,1.2,1,1.9,0.7L32.1,21C32.9,20.7,33.2,19.9,32.9,19.1z"/>
	<g>
		<path class="st3" d="M5,11.2c2.3-4.6,7-7.8,12.5-7.8c1.3,0,2.6,0.2,3.9,0.6l2.5-1.1c-2-0.9-4.1-1.4-6.4-1.4
			c-7,0-12.9,4.5-15.1,10.8L5,11.2z"/>
		<path class="st3" d="M29.7,24.3c-2.4,4.2-7,7.1-12.2,7.1c-1.1,0-2.1-0.1-3.1-0.4l-2.7,1.2c1.8,0.7,3.7,1.1,5.8,1.1
			c6.8,0,12.5-4.2,14.8-10.2L29.7,24.3z"/>
	</g>
	<path class="st2" d="M18.2,18.1l8.2-12.9c0.3-0.5-0.2-1.2-0.8-0.9L2.4,14.6c-0.6,0.2-0.4,1.1,0.2,1.2l15.1,2.6
		C17.8,18.5,18.1,18.3,18.2,18.1z"/>
</g>
</svg>
