<?xml version="1.0" encoding="utf-8"?>
<!-- Generator: Adobe Illustrator 23.0.4, SVG Export Plug-In . SVG Version: 6.00 Build 0)  -->
<svg version="1.1" id="Layer_1" xmlns="http://www.w3.org/2000/svg" xmlns:xlink="http://www.w3.org/1999/xlink" x="0px" y="0px"
	 viewBox="0 0 35 35" style="enable-background:new 0 0 35 35;" xml:space="preserve">
<style type="text/css">
	.st0{fill-rule:evenodd;clip-rule:evenodd;fill:#F6F4F3;}
	.st1{fill-rule:evenodd;clip-rule:evenodd;fill:#247BA0;}
	.st2{fill-rule:evenodd;clip-rule:evenodd;fill:none;}
	.st3{fill:#F25F5C;}
	.st4{fill:#247BA0;}
</style>
<circle class="st0" cx="17.5" cy="17.5" r="17.5"/>
<g>
	<g>
		<path class="st1" d="M21.5,29.3c-1.3-1.6-2-3.3-2.1-4.5c-0.3,0-0.5,0.3-0.8,0.4c-0.5,0.3-0.9,0-1.5-0.5c-0.5-0.5-2.2-2.1-3.6-5.3
			c-1.1-2.5-1.6-4.7-1.6-5.7c0-0.7,0.2-0.9,0.8-1.2c0.6-0.3,1.5-0.4,2-0.9c-1.3-0.5-2.2-2-2.9-4s-1.2-4-0.7-5.1
			C10.4,3,8.5,3.9,7.1,6.7c-1.2,3-0.4,6.4,0,7.5c0.1,0.6,1.5,8.6,6.7,13.7c1.4,1.3,2.8,2.8,4.4,3.8c2,1.3,4.6,1.3,6.7,0.4
			c0.3-0.1,0.5-0.2,0.7-0.4C24.3,32.1,22.7,31.1,21.5,29.3z"/>
	</g>
	<ellipse transform="matrix(0.8021 -0.5972 0.5972 0.8021 -11.6985 19.4867)" class="st1" cx="23.6" cy="27.4" rx="1.9" ry="4.1"/>
	<ellipse transform="matrix(0.9263 -0.3768 0.3768 0.9263 -1.3787 6.0645)" class="st1" cx="14.8" cy="6.6" rx="1.9" ry="4.1"/>
</g>
<circle class="st2" cx="17.5" cy="17.5" r="17.5"/>
<g>
	<path class="st3" d="M31.4,17.5c0,3.2-1.1,6.1-2.9,8.5c0.3,0.7,0.6,1.5,0.7,2.3c2.6-2.8,4.2-6.6,4.2-10.7c0-8.7-7.1-15.9-15.9-15.9
		c-0.2,0-0.5,0-0.7,0c0.5,0.6,1,1.3,1.3,2C25.5,4,31.4,10,31.4,17.5z"/>
	<path class="st3" d="M14.6,31C8.3,29.7,3.6,24.1,3.6,17.5c0-2.3,0.6-4.5,1.6-6.5c-0.5-0.6-0.8-1.3-1.1-2.1
		c-1.6,2.5-2.5,5.4-2.5,8.6c0,8.1,6.1,14.7,13.9,15.7C15.1,32.6,14.8,31.8,14.6,31z"/>
</g>
<g>
	<path class="st4" d="M20,15c0.1,0,0.2,0.1,0.3,0.1c1.1,0.5,1.6,1.8,1.1,2.9l1.4,1c0-0.1,0.1-0.1,0.1-0.2c0.9-2,0.1-4.4-1.9-5.4
		c-0.2-0.1-0.4-0.1-0.6-0.2L20,15z"/>
	<path class="st4" d="M20.9,12c0.3,0.1,0.5,0.2,0.8,0.3c2.7,1.3,3.8,4.5,2.6,7.1c-0.1,0.1-0.1,0.2-0.2,0.4l1.4,1
		c0.1-0.2,0.2-0.4,0.3-0.6c1.7-3.5,0.1-7.8-3.4-9.4c-0.3-0.2-0.7-0.3-1-0.4L20.9,12z"/>
	<path class="st4" d="M21.7,8.9c0.3,0.1,0.7,0.2,1,0.4c4.4,2.1,6.3,7.3,4.3,11.8c-0.1,0.2-0.2,0.4-0.3,0.5l1.4,1
		c0.1-0.3,0.3-0.5,0.4-0.8c2.5-5.3,0.2-11.6-5.1-14.1c-0.4-0.2-0.8-0.4-1.3-0.5L21.7,8.9z"/>
</g>
</svg>
