<?xml version="1.0" encoding="utf-8"?>
<!-- Generator: Adobe Illustrator 23.0.4, SVG Export Plug-In . SVG Version: 6.00 Build 0)  -->
<svg version="1.1" id="Layer_1" xmlns="http://www.w3.org/2000/svg" xmlns:xlink="http://www.w3.org/1999/xlink" x="0px" y="0px"
	 viewBox="0 0 35 35" style="enable-background:new 0 0 35 35;" xml:space="preserve">
<style type="text/css">
	.st0{fill-rule:evenodd;clip-rule:evenodd;fill:#F6F4F3;}
	.st1{fill-rule:evenodd;clip-rule:evenodd;fill:none;}
	.st2{fill:#F25F5C;}
	.st3{fill:#F6F4F3;}
	.st4{fill:#247BA0;}
</style>
<circle class="st0" cx="17.5" cy="17.5" r="17.5"/>
<circle class="st1" cx="17.5" cy="17.5" r="17.5"/>
<g>
	<path class="st2" d="M17.5,33.3c-8.8,0-15.9-7.1-15.9-15.9c0-8.8,7.1-15.9,15.9-15.9s15.9,7.1,15.9,15.9
		C33.4,26.2,26.3,33.3,17.5,33.3z M17.5,3.4c-7.7,0-14,6.3-14,14s6.3,14,14,14s14-6.3,14-14S25.2,3.4,17.5,3.4z"/>
</g>
<g>
	<circle class="st3" cx="17.5" cy="17.6" r="12.3"/>
	<g>
		<path class="st4" d="M19.3,5.2C19.3,5.2,19.3,5.2,19.3,5.2C19.3,5.2,19.3,5.2,19.3,5.2 M19.1,5.2L19.1,5.2L19.1,5.2
			C19,5.2,19,5.2,19.1,5.2 M19,5.2C19,5.2,19,5.2,19,5.2L19,5.2L19,5.2C19,5.2,19,5.2,19,5.2 M19,5.2C19,5.2,19,5.2,19,5.2
			C18.9,5.2,18.9,5.2,19,5.2L19,5.2C18.9,5.2,18.9,5.2,19,5.2 M26.1,8.8L26.1,8.8c-0.2-0.2-0.4-0.4-0.6-0.5c0,0-0.1,0-0.1-0.1
			C25.7,8.3,25.8,8.5,26.1,8.8L26.1,8.8C26.1,8.8,26.1,8.8,26.1,8.8 M29.1,13.6C29.1,13.6,29.1,13.6,29.1,13.6L29.1,13.6L29.1,13.6
			 M29,13.3c0,0.1,0.1,0.2,0.1,0.3l0,0c0,0,0,0,0-0.1l0,0l0,0l0,0C29.1,13.4,29,13.3,29,13.3 M28.4,11.9L28.4,11.9
			c-0.2-0.3-0.2-0.5-0.4-0.7C28.1,11.3,28.2,11.6,28.4,11.9C28.4,11.8,28.4,11.8,28.4,11.9 M27.4,10.2L27.4,10.2
			C27.4,10.2,27.4,10.2,27.4,10.2L27.4,10.2 M26.1,8.8C26.1,8.8,26.2,8.8,26.1,8.8C26.2,8.8,26.1,8.8,26.1,8.8
			C26.1,8.8,26.1,8.8,26.1,8.8L26.1,8.8 M27.5,25C27.4,25,27.4,25,27.5,25c0.1-0.2,0.2-0.3,0.4-0.6C27.8,24.5,27.7,24.7,27.5,25
			 M28.4,23.4L28.4,23.4c0.2-0.3,0.2-0.5,0.4-0.8c0,0,0,0,0,0C28.7,22.9,28.5,23.2,28.4,23.4 M29.2,21.5
			C29.2,21.5,29.2,21.5,29.2,21.5c0.1-0.3,0.1-0.4,0.2-0.8c0,0,0,0,0,0C29.4,21,29.3,21.3,29.2,21.5L29.2,21.5 M29.8,17.7
			C29.8,17.7,29.8,17.7,29.8,17.7C29.8,17.7,29.8,17.7,29.8,17.7 M29.8,17.7C29.8,17.7,29.8,17.7,29.8,17.7
			C29.8,17.7,29.8,17.7,29.8,17.7C29.8,17.7,29.8,17.7,29.8,17.7 M29.8,17.7C29.8,17.7,29.8,17.7,29.8,17.7
			C29.8,17.7,29.8,17.7,29.8,17.7C29.8,17.7,29.8,17.7,29.8,17.7C29.8,17.7,29.8,17.7,29.8,17.7 M29.7,15.9c0,0.2,0.1,0.4,0.1,0.6
			C29.7,16.3,29.7,16.1,29.7,15.9 M16.3,8.9C16.3,8.9,16.3,8.8,16.3,8.9c0-0.1,0-0.1,0-0.2l-0.1,0L16,8.8l0,0.1
			C16.1,8.9,16.1,8.9,16.3,8.9L16.3,8.9 M15.9,8.7L15.9,8.7L15.9,8.7C15.9,8.6,15.8,8.6,15.9,8.7C15.8,8.7,15.8,8.7,15.9,8.7
			c-0.1,0-0.1,0-0.2,0c0,0,0,0-0.1,0c0,0,0,0,0,0c0,0,0,0,0.1,0C15.8,8.8,15.8,8.7,15.9,8.7C15.8,8.7,15.8,8.7,15.9,8.7 M16.7,6.6
			l0.1,0l-0.1-0.1l-0.2,0c0,0-0.1,0-0.1,0l0,0.1l0,0.1L16.7,6.6L16.7,6.6 M18.8,5.1L18.8,5.1L18.8,5.1c0,0-0.1,0-0.1,0l0,0l0,0l0,0
			C18.7,5.1,18.8,5.1,18.8,5.1L18.8,5.1L18.8,5.1L18.8,5.1c0.1,0,0.1,0,0.2,0l0.1,0c0,0,0,0,0.1,0h0l0,0l0,0h0l0,0h0l0,0
			c0,0,0,0,0.1,0l0,0l0,0c0,0-0.1,0-0.3,0l0,0l-0.1,0C18.9,5.2,18.9,5.2,18.8,5.1L18.8,5.1L18.8,5.1 M19.1,5.2
			C19.1,5.2,19.1,5.2,19.1,5.2c-0.1,0-0.2,0-0.2,0l0,0C19,5.2,19,5.2,19.1,5.2L19.1,5.2C19.1,5.2,19.1,5.2,19.1,5.2L19.1,5.2
			L19.1,5.2C19.1,5.2,19.2,5.2,19.1,5.2C19.2,5.2,19.2,5.2,19.1,5.2L19.1,5.2c0.1,0,0.1,0,0.2,0C19.3,5.2,19.2,5.2,19.1,5.2
			L19.1,5.2L19.1,5.2c0.1,0,0.1,0,0.2,0c0,0,0.1,0,0.1,0c0,0,0,0,0.1,0c0,0,0,0,0,0c0,0-0.1,0-0.2,0c0,0,0,0,0,0l0,0l0,0l0,0
			C19.2,5.2,19.2,5.2,19.1,5.2 M19.6,5.3c0,0-0.1,0-0.1,0C19.5,5.3,19.6,5.3,19.6,5.3L19.6,5.3c-0.1,0-0.2,0-0.3,0
			C19.4,5.3,19.5,5.3,19.6,5.3c-0.1,0-0.1,0-0.1,0l-0.1,0l0,0c0,0,0,0,0,0c0,0,0,0,0.1,0v0l0,0l0,0C19.5,5.3,19.6,5.3,19.6,5.3
			c-0.1,0-0.1,0-0.2,0c0,0,0,0,0,0C19.4,5.3,19.5,5.3,19.6,5.3L19.6,5.3C19.6,5.3,19.6,5.3,19.6,5.3L19.6,5.3
			C19.6,5.3,19.6,5.3,19.6,5.3L19.6,5.3c0.1,0,0.1,0,0.1,0.1c0,0,0.1,0,0.1,0l0,0l0,0c0,0,0.1,0,0.1,0c0,0-0.1,0-0.1,0c0,0,0,0,0,0
			C19.9,5.4,19.9,5.4,19.6,5.3 M19.9,5.4L19.9,5.4L19.9,5.4L19.9,5.4 M20.7,5.6L20.7,5.6c-0.1,0-0.1,0-0.1,0l0,0c0,0,0,0-0.1,0l0,0
			c-0.1,0-0.2,0-0.3-0.1c0,0-0.1,0-0.2,0c0,0,0,0,0,0c0,0,0,0,0,0c0,0-0.1,0-0.1,0c-0.1,0-0.2,0-0.3,0l0,0c0,0,0.1,0,0.1,0
			c0,0,0,0,0,0c0.2,0,0.2,0,0.2,0c0,0,0,0-0.1,0c0,0,0,0,0,0c0,0,0,0,0,0c0,0,0,0,0,0c-0.1,0-0.1,0-0.1,0c0,0,0.1,0,0.1,0v0
			c0,0,0,0-0.1,0c0,0-0.1,0-0.1,0c0,0,0,0,0.1,0l0,0c0.2,0.1,0.4,0.1,0.5,0.1c-0.1,0-0.1,0-0.2,0c0,0,0.3,0.1,0.3,0.1c0,0,0,0-0.1,0
			c0.1,0,0.1,0,0.1,0l0,0c0,0-0.1,0-0.2-0.1c0,0,0,0-0.1,0l0,0c0.1,0,0.1,0,0.2,0l0,0l-0.1,0l0,0c0,0,0.1,0,0.1,0c0,0,0,0,0,0l0,0
			l0,0l0,0c0,0,0,0,0,0c0,0,0,0,0.1,0c0,0,0.1,0,0.1,0l0,0l0,0l0,0c0,0,0,0-0.1,0l0,0C20.5,5.6,20.6,5.6,20.7,5.6L20.7,5.6
			C20.6,5.6,20.6,5.6,20.7,5.6c0.1,0.1,0.2,0.1,0.4,0.2l0,0C21,5.7,20.8,5.7,20.7,5.6c-0.1,0-0.1,0-0.2,0c0,0,0,0-0.3-0.1l0,0
			C20.5,5.6,20.5,5.6,20.7,5.6L20.7,5.6C20.7,5.6,20.7,5.6,20.7,5.6c0,0,0,0,0.1,0l0,0C20.8,5.6,20.8,5.6,20.7,5.6L20.7,5.6
			L20.7,5.6 M26.1,8.9L26.1,8.9L26.1,8.9L26.1,8.9C26.1,8.9,26.1,8.9,26.1,8.9L26.1,8.9L26.1,8.9L26.1,8.9L26.1,8.9
			C26.1,8.8,26.1,8.8,26.1,8.9 M23.3,6.7c-0.1,0-0.1-0.1-0.2-0.1l0,0l0,0l0,0l0,0C23.2,6.6,23.2,6.6,23.3,6.7L23.3,6.7 M24.3,7.2
			l-0.7-0.4l0,0c0,0,0,0-0.1,0l0,0c0,0,0.1,0,0.1,0l0,0c0,0-0.1,0-0.1-0.1c0,0,0,0,0,0c0,0-0.1,0-0.1-0.1l0,0c0,0,0,0,0,0
			c0,0,0,0-0.1,0c0,0,0,0,0,0l-0.1,0c0,0-0.1,0-0.1-0.1l0,0c0,0,0.1,0,0.1,0.1c0,0,0,0-0.1,0c0,0,0,0-0.1,0c0,0,0,0,0,0l0,0
			c0.1,0,0.1,0,0.2,0.1c0,0,0,0,0,0l0,0l0,0c-0.1,0-0.1-0.1-0.2-0.1l0,0l-0.1,0l0,0l0,0c0.1,0,0.2,0.1,0.2,0.1l0,0c0,0,0,0-0.1,0
			c0,0,0,0,0,0c0.1,0,0.2,0.1,0.2,0.1c0,0,0.1,0,0.1,0l0,0c0,0,0,0-0.1,0l0,0c0.1,0.1,0.2,0.1,0.2,0.1c-0.1,0-0.1,0-0.2-0.1
			c0,0,0,0,0.1,0c0,0,0.2,0.1,0.2,0.1c0,0,0,0-0.1-0.1c0,0,0.1,0.1,0.1,0.1c0,0,0.1,0,0.1,0c0,0,0,0,0,0l0,0c0,0,0,0-0.2-0.1
			c0,0,0.1,0.1,0.1,0.1l0,0l0,0c0,0,0.1,0.1,0.1,0.1l0,0c0,0,0,0,0.1,0l0,0c0,0,0,0,0.1,0l0,0l0,0l0,0c-0.1-0.1-0.1-0.1-0.1-0.1l0,0
			l0,0l0,0l0,0c0,0,0,0,0.1,0c0,0,0.6,0.5,0.6,0.6l0,0c0,0.1,0.1,0.1,0.1,0.2c0,0,0,0,0,0c0,0,0,0,0.2,0.3c0,0,0,0,0,0c0,0,0,0,0,0
			l0.1,0c0,0,0,0,0.1,0.1l0,0l0,0h0l0,0h0l0,0v0h0h0c0,0,0,0,0.1,0.2l0,0c0,0.1,0.2,0.2,0.3,0.3l0,0l0,0c0,0,0,0,0.1,0.1l0,0
			c0.2,0,0.1,0.2,0.2,0.2C25.7,9,25.7,9,25.7,9c0.1,0,0.1,0,0.2,0c0,0,0-0.1-0.1-0.1l0,0l0,0c0,0,0,0-0.1-0.1c0,0,0,0,0.2,0.1
			C26,9,26,9,26.1,8.9C26,8.8,26,8.8,25.9,8.7c0,0,0,0,0,0c-0.1-0.1-0.2-0.1-0.2-0.2c-0.1-0.1-0.2-0.2-0.2-0.2c0,0-0.3-0.4-0.9-0.8
			l0,0l0,0v0v0h0l0,0l0,0l0,0c0,0,0.1,0,0.1,0.1c0,0,0,0,0,0c0,0,0,0,0.1,0.1c0,0,0.1,0.1,0.1,0.1l0,0C24.9,7.8,25,7.8,25,7.9l0,0
			c0.1,0.1,0.1,0.1,0.6,0.5l0,0c0.1,0.1,0.1,0.1,0.3,0.2l0,0c0,0,0,0-0.1-0.1l0,0c0,0,0,0,0-0.1l0,0l0,0l0,0l0,0c0,0,0,0,0.1,0.1
			l0,0l0,0c0.1,0.1,0.1,0.1,0.2,0.2c0,0,0,0-0.1,0c0,0,0,0,0,0.1l0,0c0,0,0,0.1,0.1,0.1c0,0,0-0.1,0-0.1l-0.1-0.1
			c-0.9-0.9-1-0.9-1.5-1.3l-0.2-0.1l0,0c-0.1-0.1-0.1-0.1-0.2-0.2C24.2,7.2,24.3,7.2,24.3,7.2L24.3,7.2 M25.8,9L25.8,9
			c0,0-0.1,0-0.2,0l0,0l0,0C25.7,9.1,25.7,9.1,25.8,9l-0.1,0.1l0,0l0,0l0,0l0,0l0,0c0,0,0,0,0.1,0l0,0l0,0l0,0c0,0,0,0,0,0
			c0,0,0,0,0,0l0,0c0,0,0,0,0,0C25.9,9.1,25.9,9.1,25.8,9C25.9,9.1,25.9,9.1,25.8,9 M26.1,8.9C26,9,26,9,25.9,9c0,0,0.1,0.1,0.1,0.1
			l0,0c0.1,0.1,0.1,0.1,0.1,0.1c0.1,0.1,0.1,0.1,0.1,0.1l0,0l0,0c0,0,0,0,0.1,0.1c0,0,0.1,0.1,0.1,0.1l0,0c0,0,0,0,0.1,0.1
			c0,0,0,0,0,0c-0.1-0.1-0.1-0.1-0.1-0.1l0,0l0,0c0,0,0,0,0,0c0,0,0,0,0-0.1l0,0c0,0-0.1-0.1-0.1-0.1l0,0c0,0,0-0.1-0.1-0.1l0,0l0,0
			l0,0c0,0,0,0,0,0c-0.1-0.1-0.1-0.1-0.2-0.2C26.1,9,26.1,9,26.1,8.9 M27.3,10.2c-0.4-0.4-0.8-1-1.2-1.4c0,0,0,0.1,0,0.1l0,0l0,0v0
			l0,0v0l0,0h0v0l0,0c0.1,0,0.1,0.1,0.1,0.1c0,0,0,0-0.1-0.1c0,0,0,0,0.3,0.3l0,0c0,0,0,0-0.1-0.1c0,0,0,0,0,0c0,0,0,0,0,0
			c0,0,0,0,0,0c0.2,0.2,0.3,0.4,0.5,0.5l0,0c0,0,0,0-0.1,0c0,0,0,0,0.1,0.2l0,0c0,0-0.1-0.1-0.1-0.1c0,0.1,0.1,0.1,0.1,0.2l0,0l0,0
			l0,0c0,0,0,0-0.1-0.1c0,0,0,0,0,0l0,0c0,0,0,0,0,0c0,0,0,0,0.1,0.1l0,0c0,0,0,0-0.1-0.1l0,0l0,0c0,0,0,0,0-0.1c0,0,0,0,0,0
			c0,0,0,0,0,0c0,0,0,0,0.1,0c0-0.1-0.1-0.2-0.2-0.3c0,0,0,0,0,0c0,0,0,0,0,0.1l0,0v0c0,0,0,0-0.1-0.1c0,0,0,0-0.1-0.1l0,0
			c-0.1-0.2-0.1-0.2-0.2-0.2c0,0.1,0.1,0.1,0.1,0.2c0,0,0,0,0,0c0,0,0,0,0,0c0.1,0.1,0.2,0.2,0.3,0.3c0,0,0,0,0,0c0,0,0,0,0.1,0.1
			c0,0,0.1,0.1,0.1,0.1c0,0,0,0.1,0.1,0.1l0,0l0,0l0,0c0,0,0,0-0.1,0c0,0,0,0,0,0.1l0,0c0,0.1,0,0.1,0.1,0.1h0l0,0l0,0
			c0,0,0,0,0,0.1l0,0c0,0,0,0.1,0.1,0.1c0,0,0,0,0,0.2c0,0,0,0,0,0l0,0c0,0.1,0.1,0.1,0.1,0.2c0,0,0,0-0.1,0c0,0,0,0.1,0.1,0.1
			c0,0,0,0-0.1,0l0,0c0,0,0,0-0.1,0c0,0,0,0,0,0c0,0,0,0,0,0c0,0,0,0.1,0.1,0.1c0,0,0.1,0.1,0.1,0.1l0,0c0,0,0,0,0,0
			c-0.1,0-0.2,0-0.2,0c0,0,0,0,0,0c0,0,0,0.1,0,0.1l0,0c0.1,0.1,0.1,0.1,0.1,0.1l0,0c0.1,0.1,0.1,0.1,0.2,0.2c0,0.1,0.1,0.1,0.1,0.2
			c0.2,0.3,0.2,0.3,0.3,0.6c0,0,0,0,0,0.1c0,0,0,0,0,0c-0.1,0-0.1,0-0.2-0.1c-0.1,0-0.1,0-0.2,0c-0.1,0-0.1,0-0.1,0h0l0,0
			c0,0,0,0,0,0.1c0,0-0.1,0-0.1,0l0,0c0.1,0.1,0.1,0.3,0.2,0.4c0,0.1,0.1,0.2,0.1,0.2c0,0.1,0,0.2,0.1,0.3c0,0,0,0,0,0c0,0,0,0,0,0
			l0,0c0,0.1,0,0.1,0,0.2c0,0,0,0,0.1,0c0,0,0,0,0.1,0c0,0,0,0,0.1,0.1c0,0,0,0,0,0c0,0,0.1,0,0.1,0.1c0,0,0,0.1,0.1,0.1
			c0,0,0,0,0,0l0,0l0,0c0.1,0,0-0.2,0.2-0.2c0.1-0.1,0.1-0.2,0.2-0.3c0,0,0-0.1,0-0.1c-0.1-0.2-0.1-0.2-0.1-0.3c0,0,0,0,0-0.1
			c0,0,0,0,0,0c0-0.1,0-0.1,0-0.2c0,0,0,0,0.1,0c0,0,0-0.1,0-0.1c0,0,0,0,0,0c-0.1-0.2-0.1-0.3,0-0.3l0,0l0,0h0h0h0l0,0h0h0
			c0,0,0,0,0.1,0.1c0,0,0,0,0,0l0,0c0,0,0,0,0-0.1c0,0,0,0,0,0l0,0c0-0.1,0-0.1,0-0.1c0.2,0,0.2,0.2,0.3,0.3c0,0,0,0,0.1,0.1
			c0.1,0.1,0.4,0.4,0.5,0.7c0,0,0,0,0,0.1c0,0,0,0-0.1,0c0,0,0,0,0,0c0,0,0.1,0.1,0.1,0.2c0,0,0,0,0.1,0c0,0,0-0.1-0.1-0.1
			c0-0.2-0.1-0.4-0.1-0.4c0,0,0,0,0,0l0,0c0,0,0,0,0,0c0,0,0,0,0-0.1l0,0c0,0,0,0,0.1,0.1c0-0.2-0.2-0.3-0.2-0.4
			c-0.1,0-0.3-0.3-0.3-0.3l0,0c0,0,0,0-0.1-0.1l0,0c0,0,0-0.1-0.1-0.1l0,0l0,0l0,0c0,0-0.1-0.1-0.1-0.1l0,0c0.2,0.3,0.4,0.4,0.4,0.5
			c0.1,0.1,0.2,0.2,0.2,0.4c0.2,0.4,0.2,0.4,0.2,0.4c0,0.1,0,0.1,0.1,0.2l0,0l0,0c0,0,0,0.1,0.1,0.2c0,0,0,0,0-0.1l0,0
			c0,0.1,0.1,0.2,0.1,0.3c0,0,0,0,0,0c0,0,0,0,0-0.1c0,0,0,0,0-0.1c0,0,0,0,0-0.1l0,0l0,0c0,0,0-0.1-0.1-0.2c0,0,0,0,0-0.1
			c0,0,0,0,0,0.1c0-0.1-0.2-0.3-0.2-0.3c0,0,0,0,0,0l0,0l0,0c0,0,0,0,0,0l0,0l0,0c0-0.1-0.1-0.1-0.1-0.2c0,0,0,0.1,0.1,0.1
			c0,0,0,0,0,0.1c0,0.1,0.1,0.2,0.1,0.3c0,0,0,0,0,0.1c0,0,0,0,0,0.1c0,0,0,0.1,0,0.1l0,0l0,0l0,0l0,0l0,0c0,0,0,0.1,0,0.1l0,0l0,0
			c0,0,0,0.1,0,0.1l0,0l0,0c0,0,0,0,0-0.1c0,0,0,0,0,0c0,0,0-0.1,0-0.1c0,0,0,0,0-0.1l0,0l0,0l0,0c-0.2-0.5-0.5-1.1-0.7-1.6
			C27.8,10.8,27.7,10.6,27.3,10.2 M25,9.2L25,9.2L25,9.2C25,9.3,25,9.3,25,9.2L25,9.2L25,9.2c0,0.1,0,0.1,0,0.1c0,0,0,0,0,0.1
			c0,0,0,0,0,0l0,0l0,0l0,0c0,0,0,0,0,0l0,0c0,0,0,0,0,0C25.1,9.3,25.1,9.3,25,9.2L25,9.2C25.1,9.3,25.1,9.3,25,9.2 M26.6,10.5
			C26.6,10.5,26.5,10.5,26.6,10.5c-0.1-0.1-0.1-0.2-0.2-0.2l0,0c0,0,0,0.1,0,0.1c0,0,0,0-0.1-0.2c0,0,0,0,0,0
			c-0.1-0.1-0.1-0.2-0.2-0.2c0,0,0,0,0,0c0,0-0.1-0.1-0.1-0.1c0,0-0.1-0.1-0.1-0.1c0,0-0.1,0-0.1-0.1l0-0.1l0,0c0,0,0,0,0,0
			c0,0,0-0.1-0.1-0.1c0,0-0.1-0.1-0.1-0.1c0,0-0.1,0-0.1,0c-0.1-0.2-0.1-0.2-0.1-0.2l0,0l0,0c0,0,0,0-0.1,0c0,0,0,0,0.1,0.1
			c0,0,0.1,0.1,0.1,0.1c0,0-0.1,0-0.1,0c0,0,0,0.1,0.1,0.1c0,0,0,0,0,0c0,0,0,0,0,0c0,0,0.1,0.1,0.1,0.1c0,0,0,0,0,0.1c0,0,0,0,0,0
			l0,0c0,0,0.1,0,0.1,0.1l0,0c0,0,0,0,0-0.1c0,0,0.1,0.1,0.1,0.2l0,0l0,0c0,0,0,0,0.1,0.1c0,0,0.1,0,0.1,0l0,0
			c0.1,0,0.1,0.2,0.2,0.2c0,0.1,0.1,0.1,0.1,0.2c0,0-0.1,0-0.1,0l0,0l0,0c0,0,0,0,0,0c0,0,0,0,0,0l0,0c0,0,0,0.1,0.1,0.1
			c0,0,0.1,0,0.1,0.1l0,0c0,0,0,0,0,0.1l0,0h0l0,0l0,0h0h0l0,0l0,0h0c0,0,0.1,0.1,0.1,0.1c0,0,0,0,0,0l0.1,0c0,0,0.1,0.1,0,0.1
			c0,0,0,0,0,0.1l0,0l0,0c0.1,0.1,0.1,0.1,0,0.2l0,0c0,0,0,0,0,0c0,0,0,0,0-0.1c0,0,0,0,0,0c0,0,0,0,0,0c0-0.1,0-0.1,0-0.1
			c0,0,0,0,0,0c0,0,0,0,0.1,0c0,0,0,0,0-0.1l0,0c0,0,0.1,0,0.1,0.1l0,0c0,0,0,0,0,0c0,0,0,0,0-0.1l0,0l0,0c0,0-0.1-0.1-0.1-0.1l0,0
			C26.6,10.6,26.6,10.6,26.6,10.5L26.6,10.5C26.6,10.6,26.6,10.5,26.6,10.5L26.6,10.5 M25.5,10.1L25.5,10.1L25.5,10.1L25.5,10.1
			 M25.8,10.1L25.6,10c0,0,0,0,0,0c0,0,0,0,0,0h0c0,0,0,0,0,0c0,0,0,0,0,0.1c0,0-0.1,0-0.1-0.1l0,0c0,0.1,0.1,0.1,0.1,0.2l0,0l0,0
			l0,0l0,0c0,0,0,0,0,0l0,0c0.1,0.1,0.1,0.2,0.2,0.2c0,0,0,0,0.1,0c0,0,0,0.1,0.1,0.1c0,0,0,0,0,0c0,0,0,0.1,0,0.1c0,0,0,0,0,0.1
			l0,0c0,0.1,0.1,0.1,0.1,0.1c0,0,0,0,0.1,0c0,0,0,0,0-0.1c0,0,0.1,0,0.1,0c0,0,0,0,0,0c0,0,0,0,0,0c0,0,0,0,0,0l0,0
			c0-0.1-0.1-0.2-0.1-0.2C25.8,10.2,25.8,10.2,25.8,10.1L25.8,10.1C25.8,10.2,25.8,10.2,25.8,10.1 M29.6,15.6l-0.2-1
			c-0.1-0.1-0.1-0.2-0.1-0.3c0,0.2,0.1,0.4,0.1,0.6c0,0,0,0,0,0c0,0,0-0.1-0.1-0.1c0,0,0,0-0.1,0l-0.6-1.2c0,0.1-0.1,0.1-0.2,0.2
			c-0.1-0.1-0.1-0.1-0.2-0.1c0,0.1-0.1,0.1-0.1,0.2c0,0-0.1,0-0.2,0c0,0.2,0,0.2,0,0.2c0,0,0,0-0.1,0c0,0,0,0,0,0.1l0,0
			c0,0,0,0-0.1,0c0,0,0,0,0,0c-0.1,0-0.1,0-0.2-0.1c0,0,0,0,0,0c0,0.1,0,0.2,0.1,0.4c0,0-0.1,0-0.1,0c0,0.1,0.1,0.2,0.1,0.3
			c-0.1,0-0.1,0-0.1,0.1c0,0.2,0,0.4,0.1,0.5c0,0,0,0.1,0,0.1c0,0-0.1,0-0.1,0c0,0.1-0.1,0.2-0.1,0.4c-0.3,0.2,0,0.6-0.3,0.9
			c0,0,0,0,0,0c0,0,0,0-0.1,0c0,0,0,0-0.1,0.6c0,0,0,0.1,0,0.2c0.1,0,0.1,0,0.2,0c0,0,0,0,0,0.1c0,0.1,0,0.1,0,0.7c0,0,0,0.1,0,0.1
			c0,0.1,0,0.1-0.1,0.2c0,0.1,0,0.2,0,0.3c0,0,0,0.1,0,0.1c0,0.2,0,0.2,0.2,0.4c0,0,0,0,0.1,0c0,0.1,0,0.1,0.1,0.2c0,0,0,0,0.1,0
			c0,0.4,0,0.4,0.2,0.5c0,0.1,0,0.1,0,0.2c0.1,0.1,0.1,0.2,0.3,0.3c0-0.1,0.1-0.1,0.1-0.2c0,0,0.1,0,0.1,0l0,0c0,0,0.1,0,0.1,0
			c0,0,0,0,0,0.1c0.2,0,0.2-0.3,0.4-0.3c0,0,0,0,0,0c0,0,0.1-0.1,0.1-0.1c0,0,0,0,0.1,0c0,0.3,0,0.3,0,0.3c0.1,0,0.1,0,0.2-0.1
			c0,0.1,0,0.2-0.1,0.3c-0.5,2-0.5,2-0.6,2.2c0,0,0,0.1,0,0.1c-0.2,0.5-0.3,0.7-1.3,2.3c-0.1,0.1-0.2,0.2-0.3,0.3
			c-0.5,0.6-0.5,0.6-0.9,1c0,0,0,0-0.1,0c-0.1,0.1-0.1,0.1-0.2,0.1v0c-0.1,0.1-0.1,0.1-0.2,0.1l0,0c0.4-0.3,0.8-0.8,1.2-1.2
			c0.4-0.5,0.4-0.5,1.2-1.6c0.4-0.6,0.4-0.6,0.9-1.7c0.3-0.6,0.3-0.6,0.6-1.9c0.3-1.2,0.3-2.2,0.4-3C29.8,17,29.8,17,29.6,15.6
			 M23.8,23.3c0-0.4,0-0.4-0.1-0.5c-0.1,0-0.1,0-0.2,0c-0.2-0.1-0.2-0.4-0.5-0.3c-0.1,0-0.1,0-0.2,0c-0.2-0.1-0.3-0.1-0.3,0
			c0,0-0.1,0.1-0.2,0c0,0,0,0,0.1-0.1c-0.3-0.2-0.3-0.2-0.4-0.2c0,0,0,0-0.1,0c-0.1,0-0.1,0-0.2,0c0,0.1,0,0.1,0,0.2
			c-0.1,0-0.1,0-0.2,0c0,0,0-0.1,0-0.1c0,0,0.1,0,0.1-0.1c0,0,0,0,0.1,0c0,0,0,0,0-0.1c0,0-0.1,0-0.2-0.1c0,0,0,0,0,0c0,0,0,0,0,0
			c0,0,0,0,0,0c0,0.1,0,0.2-0.2,0.1c0,0,0-0.1,0-0.1c0.3-0.3,0.3-0.3,0.2-0.4c0,0-0.1,0-0.1,0c0-0.1,0-0.1,0-0.2
			c-0.1-0.2-0.1-0.2-0.1-0.2c0,0-0.4-0.2-0.5-0.3c-0.1-0.1-0.2,0-0.3,0c0,0,0,0-0.1,0c-0.4-0.1-0.4-0.2-0.5-0.4c0,0,0,0-0.2-0.1
			c0,0,0,0,0,0c-0.1,0-0.1-0.1-0.1-0.2c0,0,0,0-0.1,0c-0.2,0.1-0.2,0.1-0.2,0c0-0.1,0-0.1,0-0.2c0,0,0.1,0,0.1,0
			c0-0.1,0-0.1-0.2-0.1L18.9,20c0,0,0,0,0,0c-0.1,0-0.1,0-0.2,0c-0.1,0.2-0.1,0.2-0.2,0.2c-0.1-0.1-0.1-0.2-0.3-0.2
			c-0.1,0-0.1,0-0.3,0c0,0-0.1,0-0.1,0c0,0,0-0.1,0-0.1c-0.1,0-0.2-0.2-0.4-0.1c0,0.1,0,0.1-0.1,0.1c-0.1,0-0.2,0.1-0.2,0.1
			c-0.1,0.1,0.1,0.2,0,0.4c-0.2-0.1,0-0.3-0.1-0.5c0-0.1,0.2-0.2,0.2-0.2l0,0h-0.1c-0.1,0-0.1,0-0.1,0.2c-0.1,0-0.2,0-0.3,0
			c-0.1,0-0.2,0.2-0.4,0.1c0,0.1,0,0.2,0,0.3c-0.1,0-0.1,0.1-0.2,0.1c-0.1,0.1-0.1,0.1-0.1,0.2C16,20.6,16,20.7,16,20.7
			c0,0,0.1,0,0.1,0c0,0.2,0.2,0.4,0,0.5c0,0.3,0,0.3-0.1,0.3c0,0-0.1,0-0.1,0c0,0,0,0.1,0,0.1c0,0-0.1,0-0.1,0.1c0,0,0,0.1,0,0.1
			c-0.1,0-0.2,0-0.2,0.2c-0.1,0-0.1,0-0.2,0c0,0.1,0,0.2,0,0.3c0,0,0,0,0,0c0.1,0,0.1,0,0.2,0c0,0,0,0.1,0,0.1c-0.1,0-0.1,0-0.2,0.1
			c0,0.1,0,0.1-0.1,0.2c0,0.1,0,0.1,0.1,0.2c0,0,0,0,0,0c0,0.4,0.5,0.4,0.6,0.7c0,0,0,0.1,0,0.1c0.6,0.9,0.6,0.9,0.7,0.9
			c0,0,0.3,0.1,0.6,0.4c0,0,0.1,0,0.1,0c0,0.1,0,0.2,0,0.3c0,0,0,0.1,0,0.1l0,0c0,0,0,0,0,0.1c0,0,0,0,0,0.1c0,0,0,0,0,0.1
			c0,0,0,0.1,0,0.1l0,0c0,0,0,0,0,0.1c0,0,0,0,0,0.1v0c0,0,0,0,0,0.1c0,0,0,0.1,0,0.1l0,0c0,0,0,0,0,0c0,0.1-0.1,0.2-0.1,0.3
			c-0.1,0.3-0.1,0.3-0.1,0.4c0,0,0,0,0,0c0.1,0.4,0.1,0.5-0.1,0.6c0,0,0,0,0,0.1c0,0,0,0,0,0.1l0,0c0,0.1-0.1,0.1-0.2,0.2
			c0.1,0.2,0.1,0.2,0,0.4c0,0,0,0,0,0c0,0,0,0.1,0,0.1c0,0,0,0-0.1,0c0,0.1,0,0.1,0,0.1c0,0,0,0,0,0c0,0,0,0,0.1,0l0-0.2
			c0,0,0.1,0,0.1,0c0,0,0,0,0,0.1c0,0,0,0,0,0c0,0,0,0.1,0,0.1c0,0,0,0,0,0.2c0,0,0,0-0.1-0.1c0,0,0,0,0-0.1c0,0,0,0,0,0
			c0,0,0,0,0,0.1c0,0,0,0.1,0,0.1c0,0-0.1,0-0.1-0.1c0,0,0,0,0,0.1c0,0,0,0,0,0.1c0,0,0.1,0,0.1,0c0,0,0,0,0,0.1c0,0,0,0,0.1,0
			c0,0,0,0,0,0c-0.1,0-0.1,0-0.2,0c0,0,0,0,0,0c0,0,0,0,0,0c0,0,0,0,0,0.1c0,0,0,0.1,0.1,0.1l0,0l0,0c0,0,0,0,0,0c0,0,0,0,0.1,0l0,0
			l0,0c0,0.1,0.1,0.1,0.1,0.1c0,0,0,0,0.1,0c0,0,0,0,0,0c0,0,0.1,0,0.1,0c0,0,0,0,0,0c0,0,0.1,0,0.1,0c0,0,0,0,0.1,0
			c0,0-0.1,0-0.1,0c0,0,0,0,0,0c0,0,0-0.1,0-0.1l0,0c0,0,0-0.1,0-0.1c0,0,0,0,0,0c0,0,0,0,0-0.1c0,0,0.1,0,0.1,0c0,0,0,0,0-0.1
			c0.1-0.1,0.2-0.1,0.3-0.2c0,0,0,0,0,0c0,0,0,0-0.1,0c-0.1-0.1-0.1-0.1-0.1-0.1c0,0,0,0,0,0c0,0,0.1,0,0.1-0.1c0,0,0.1,0,0.1,0
			c0,0,0-0.1,0-0.1c0,0,0,0,0.1-0.1c0.1,0,0.1,0,0.1,0c0,0,0,0,0,0h0h0l0,0h0h0h0h0c0,0,0,0,0,0c0,0-0.1,0-0.1,0c0,0,0-0.1,0-0.1
			c0,0,0,0,0-0.1c0,0,0,0,0.1,0c0,0,0,0,0,0c0.1,0,0.1,0,0.2,0c0,0,0,0,0,0c0,0,0,0,0,0c0,0,0-0.1,0-0.1c0,0,0,0,0-0.1
			c0,0,0.1,0,0.2,0c0,0,0,0,0.1,0c0,0,0.1,0,0.1,0c0,0,0.1,0,0.2,0c0,0,0.2-0.1,0.3-0.2l0,0c0,0,0,0,0-0.1c0,0,0,0-0.1,0
			c0,0,0,0,0-0.1c0,0,0,0-0.1-0.1c0,0,0,0,0-0.1c0,0,0.1,0,0.1,0c0.4,0.1,0.4,0.1,0.6-0.1c0.5-0.4,0.5-0.4,0.5-0.4
			c0,0,0,0.1-0.1,0.1c0,0,0.6-0.4,0.6-0.6c0-0.1,0-0.2,0.5-0.5c0.1,0,0.1,0,0.2,0c0,0,0,0,0.2-0.1c0.1,0,0.3,0,0.4,0
			c0,0,0-0.1,0.1-0.1c0.1,0,0.1,0,0.5-0.5c0,0,0,0,0.2-0.3c0,0,0,0,0-0.1c0.1-0.1,0.1-0.2,0.1-0.2c0,0,0,0,0-0.1c0,0,0,0,0-0.1
			c0,0,0-0.1,0-0.1c0-0.1,0-0.1,0.1-0.2c0,0,0.4-0.3,0.4-0.4l0.3-0.4C23.8,23.4,23.8,23.4,23.8,23.3 M18.6,18.4L18.6,18.4
			C18.6,18.4,18.5,18.4,18.6,18.4c-0.1-0.1-0.1-0.1-0.1-0.2c-0.2,0-0.2,0-0.3,0c0,0-0.1,0-0.1,0c0,0-0.1,0-0.1,0c0,0,0,0,0,0
			c0,0,0,0.1-0.1,0.1c0,0-0.1,0-0.1,0c-0.1,0-0.1-0.1-0.1-0.1c-0.1,0-0.1-0.1-0.2-0.1l-0.3,0c0,0,0,0-0.2,0c0,0.1,0,0.2,0,0.3
			c0,0,0.1,0.1,0.2,0.2c0,0,0.1,0,0.1,0c0.1,0,0.2-0.1,0.3-0.1c0,0,0.1,0,0.1,0c0,0,0.1,0,0.1,0c0.2,0,0.3,0,0.3,0c0,0,0,0,0.1,0
			c0,0,0.2,0,0.2,0C18.4,18.4,18.5,18.4,18.6,18.4C18.5,18.4,18.5,18.4,18.6,18.4 M16.3,18.5L16.3,18.5
			C16.3,18.5,16.3,18.4,16.3,18.5c0-0.1-0.1-0.1-0.1-0.1c0,0,0,0-0.1,0l0,0c-0.1,0-0.2,0-0.2,0c0,0,0,0.1,0,0.1l0,0c0,0,0,0,0.1,0
			c0,0,0.1,0,0.1,0c0,0,0,0,0,0.1c0,0,0,0,0,0C16.2,18.6,16.2,18.6,16.3,18.5C16.3,18.6,16.3,18.6,16.3,18.5 M16.1,18
			c0.2,0,0.4,0,0.6,0c-0.1-0.1-0.2-0.3-0.3-0.3c0,0-0.1,0-0.1,0c-0.1,0-0.2,0-0.3,0c-0.1,0-0.1-0.1-0.1-0.1
			c-0.1-0.1-0.2-0.1-0.2-0.1c-0.1-0.1-0.1-0.1-0.1-0.1c0,0,0,0-0.1-0.1c-0.1,0-0.1,0-0.2,0c0,0,0,0-0.1,0c0,0-0.1,0-0.1,0
			c-0.1,0-0.1,0-0.2,0c-0.2,0-0.2,0-0.2,0c-0.2,0.1,0.1,0.4,0.3,0.3c0.1,0,0.1-0.1,0.1-0.1c0,0,0.1,0,0.2,0c0,0,0.2,0.1,0.2,0.1
			c0,0,0,0,0,0c0,0,0.2,0.1,0.2,0.1c0.1,0,0.1,0,0.1,0.1C15.9,17.9,15.9,18,16.1,18 M23.3,8c0,0-0.1-0.1-0.1-0.1c0,0,0,0-0.1,0
			c-0.1,0-0.1,0-0.1,0l0,0c0,0-0.1-0.1-0.1-0.1c0,0-0.1,0-0.1-0.1c0,0,0,0-0.1,0c0,0,0,0,0,0c0,0,0,0,0,0.1l0,0c0,0-0.1,0-0.1,0
			c-0.1,0-0.1,0-0.1,0.1c0,0,0,0,0,0c0,0,0,0-0.1,0c0,0,0,0,0-0.1c0,0,0,0,0,0c0,0,0,0-0.1,0l0,0c0,0,0,0,0,0.1c-0.1,0-0.1,0-0.1,0
			c0,0-0.1,0-0.1,0c0,0.1,0.1,0.1,0.1,0.1l0,0c0.1,0,0.2,0.1,0.2,0.1c0,0-0.1,0-0.2,0c0,0,0.1,0.1,0.1,0.1l0,0c0,0,0,0,0.1,0l0,0
			c0,0,0.1,0.1,0.1,0.1l0.1,0.1c0,0,0,0,0,0c0.1,0,0.1,0,0.1,0c0,0,0,0,0,0c0.1,0,0.1,0,0.1,0.1c0.1,0,0.1,0,0.1,0l0-0.1
			c0-0.1,0-0.1,0-0.1c0,0,0,0,0,0l0,0c0,0,0-0.1,0-0.1C23.2,8,23.2,8,23.3,8 M20.4,11.8L20.4,11.8C20.4,11.7,20.4,11.7,20.4,11.8
			c-0.1-0.1-0.1-0.1-0.1-0.1c0,0-0.1-0.1-0.1-0.1c0,0,0,0-0.1,0c0,0-0.1,0-0.1,0c0,0-0.1,0-0.1,0c0-0.1,0-0.1,0-0.1c0,0,0,0,0.1,0
			c0,0,0-0.1,0-0.1c0,0,0,0,0,0c0,0,0,0-0.1,0c0,0-0.1,0-0.1,0c0,0,0,0,0,0.1c0,0,0,0.1,0,0.1c0,0,0,0,0,0c0,0-0.1,0.1-0.2,0.3
			c0,0-0.1,0.1-0.1,0.1c0,0,0,0.1,0,0.1c0,0,0,0.1,0,0.1c0.2,0,0.3,0,0.5,0c0,0,0.1,0,0.1,0.1c0.1,0.1,0.1,0.1,0.2,0.1c0,0,0,0,0,0
			c0,0,0.1,0,0-0.2C20.3,11.9,20.3,11.9,20.4,11.8 M18.9,11.6L18.9,11.6C18.9,11.6,18.9,11.5,18.9,11.6c-0.1,0-0.1,0-0.1,0
			c0,0,0,0-0.1,0c-0.1,0-0.1-0.1-0.1-0.1c0,0,0,0-0.1,0c0,0,0,0-0.1,0c0,0,0,0-0.1,0c0,0,0.1,0,0.1,0c0,0,0,0,0.1,0.1l0,0
			c0,0,0,0,0.1,0c0,0,0,0,0.1,0c0,0,0,0,0,0C18.8,11.7,18.8,11.7,18.9,11.6 M18.5,5.3c0,0-0.1,0-0.1,0l0,0l0,0h0v0h0l0,0l0,0h0v0
			C18.4,5.3,18.5,5.3,18.5,5.3c-0.1,0-0.1,0-0.1,0C18.5,5.3,18.5,5.3,18.5,5.3L18.5,5.3L18.5,5.3L18.5,5.3L18.5,5.3L18.5,5.3
			L18.5,5.3L18.5,5.3L18.5,5.3c0,0.1,0.1,0.1,0.1,0.1C18.6,5.4,18.5,5.3,18.5,5.3c-0.1,0-0.1,0-0.2,0c-0.1,0-0.1,0-0.2,0l0,0l0,0
			c0.1,0,0.1,0,0.2,0l0,0l0,0c0,0-0.1,0-0.1,0l0,0c0,0,0,0-0.1,0c0,0,0,0,0,0l0,0h0l0,0h0l0,0h0h0v0l0,0h0h0l0,0h0l0,0h0l0,0l0,0
			c-0.1,0-0.1,0-0.1,0c0,0,0,0,0.1,0l0,0c0,0,0,0,0.1,0c0,0,0,0,0,0c0,0,0,0,0,0c0,0,0,0-0.1,0l0,0l0,0c0,0-0.1,0-0.1,0c0,0,0,0,0,0
			c0,0,0,0,0,0c0,0,0,0-0.1,0l0,0l0,0l0,0l0,0l0,0l0,0l0,0l0,0c0,0,0,0,0,0c0,0,0,0,0.1,0c-0.1,0-0.1,0-0.1,0l0,0c0,0,0,0,0,0
			c0,0,0,0,0,0c0,0,0,0-0.1,0c0,0,0,0,0,0l0,0l0,0c0.1,0,0.1,0,0.1,0l0,0l0,0c-0.1,0-0.1,0-0.1,0l0,0c0,0,0,0,0,0l0,0l0,0l0,0l0,0
			l0,0l0,0c0,0,0,0,0,0l0,0l0,0c0,0,0,0,0.1,0l0,0l0,0l0,0l0,0l0,0l0,0l0,0h0l0,0l0,0l0,0l0,0l0,0l0,0l0,0l0,0c0,0,0,0,0,0l0,0l0,0
			l0,0h0l0,0l0,0l0,0l0,0l0,0l0,0l0,0l0,0l0,0l0,0l0,0l0,0l0,0l0,0l0,0c0,0,0,0,0,0l0,0l0,0l0,0l0,0l0,0l0,0h0l0,0l0,0l0,0l0,0
			c0,0,0,0,0,0c0,0,0,0,0,0h0l0,0l0,0l0,0l0,0l0,0l0,0l0,0l0,0l0,0l0,0l0,0l0,0l0,0l0,0l0,0l0,0l0,0l0,0l0,0l0,0l0,0l0,0
			c0,0,0,0,0,0l0,0l0,0l0,0l0,0l0,0l0,0c0,0,0,0,0,0c0,0,0,0,0,0l0,0l0,0l0,0l0,0l0,0l0,0c0,0,0,0,0,0l0,0l0,0l0,0l0,0l0,0l0,0l0,0
			l0,0l0,0l0,0l0,0l0,0l0,0l0,0l0,0l0,0l0,0l0,0h0l0,0v0l0,0l0,0l0,0l0,0l0,0l0,0c0,0,0,0,0,0l0,0l0,0l0,0l0,0l0,0l0,0l0,0l0,0l0,0
			h0h0l0,0h0h0l0,0l0,0l0,0l0,0l0,0l0,0l0,0h0l0,0h0l0,0l0,0h0l0,0h0l0,0l0,0l0,0l0,0l0,0l0,0h0l0,0l0,0l0,0l0,0l0,0l0,0l0,0l0,0h0
			l0,0l0,0l0,0l0,0l0,0l0,0l0,0l0,0l0,0v0l0,0l0,0l0,0l0,0l0,0l0,0l0,0c0,0,0,0,0,0c0,0,0,0,0,0l0,0l0,0c0,0,0,0,0,0l0,0l0,0l0,0
			l0,0l0,0l0,0h0l0,0l0,0l0,0l0,0l0,0l0,0h0l0,0l0,0l0,0l0,0c0,0,0,0,0,0l0,0l0,0h0l0,0l0,0l0,0l0,0l0,0l0,0l0,0c0,0,0,0,0,0l0,0
			l0,0l0,0l0,0l0,0l0,0h0l0,0c0,0,0,0,0,0l0,0c0,0,0,0,0,0l0,0c0,0,0,0,0,0c0,0,0,0-0.1,0l0,0l0,0l0,0l0,0l0,0l0,0l0,0l0,0h0
			c0,0,0,0,0,0.1c0,0,0,0,0.1,0c0,0,0,0,0.1,0l0,0l0,0c0,0,0,0,0,0h0l0,0l0,0c0,0,0,0,0,0l0,0c0,0,0,0,0,0l0,0c0,0,0,0,0,0l0,0l0,0
			h0h0l0,0h0l0,0l0,0h0h0h0h0h0l0,0h0h0c0,0,0,0,0,0l0,0h0c0,0,0,0,0,0h0l0,0c0,0,0,0,0,0l0,0l0,0l0,0c0,0,0.1,0,0.1,0l0,0l0,0l0,0
			l0,0l0,0l0,0l0,0l0,0l0,0l0,0l0,0l0,0l0,0l0,0l0,0h0h0l0,0l0,0c0,0,0,0,0,0c0,0,0,0,0,0c0,0,0,0,0,0l0,0l0,0l0,0l0,0l0,0h0l0,0
			c0,0,0,0,0,0l0,0l0,0l0,0l0,0h0h0h0h0l0,0h0h0l0,0h0l0,0l0,0h0h0l0,0h0l0,0l0,0c0,0,0,0,0,0l0,0l0,0l0,0h0c0,0,0,0,0,0l0,0l0,0
			l0,0c0,0,0,0,0,0l0,0c0,0,0,0,0,0l0,0l0,0h0l0,0l0,0c0,0,0,0,0,0l0,0c0,0,0,0,0,0.1l0,0l0,0l0,0l0,0h0l0,0l0,0l0,0l0,0l0,0
			c0,0,0,0,0,0l0,0l0,0l0,0c0,0,0,0,0,0c0,0,0,0,0,0l0,0l0,0c0,0,0,0,0,0c0,0,0,0,0,0.1c0,0,0,0,0,0.1c0,0,0,0,0,0c0,0,0,0,0,0
			c0,0,0,0,0,0l0,0c0,0,0,0,0,0.1c0,0,0,0,0,0c0,0,0,0,0,0c0,0,0,0,0.1,0c0,0,0,0,0,0l0,0c0,0,0.1,0,0.1,0l0,0
			c0.1-0.1,0.1,0.1,0.2,0.1h0h0h0l0,0h0h0h0l0,0C19.1,7,19.1,7,19.2,7l0,0c0,0,0,0,0,0l0,0l0,0h0C19,7,18.9,7,18.8,7
			c0,0,0.1,0.1,0.1,0.1l0,0l0,0c0,0-0.1,0,0,0.1c0.1,0,0.1,0,0.2,0.1l0,0c0,0,0,0,0,0c0,0,0,0,0.1,0c0,0,0-0.1-0.1-0.1
			c0,0,0,0-0.1,0l0,0c0,0,0,0,0,0l0,0c0,0,0,0,0.1,0c0.1,0,0.1,0,0.1,0c0,0,0,0,0.1,0c0,0,0,0,0.1,0l0,0l0,0l0,0l0,0c0,0,0,0,0,0
			c0.1,0,0.1,0,0.1,0.1c0,0,0,0,0,0.1c0,0,0,0-0.1,0l0,0c0,0,0,0,0,0h0h0c0,0,0,0,0,0l0,0l0,0c0,0,0,0.1,0,0.1c0,0,0,0-0.1,0
			c0,0,0,0-0.1,0l0,0l0,0c0,0,0,0,0,0c0.1,0.1,0.2,0.1,0.2,0.1c0,0,0,0,0,0c0,0,0.1,0.2,0.2,0.2l0,0h0c0,0,0,0,0,0c0,0,0,0,0,0.1
			c0,0,0,0,0,0l0,0c0.1,0.2,0.1,0.2,0.1,0.2c0,0,0-0.1,0-0.1c0,0,0,0,0,0c0,0,0,0.1,0,0.1c0,0,0,0,0,0.1C19.7,8.4,20.4,9,20.5,9
			c0,0,0,0,0,0c0,0,0,0,0,0l0,0c0.2,0,0.4,0.3,0.5,0.1l0,0c0,0,0,0,0,0c0-0.1,0-0.2,0-0.3c0-0.1-0.1-0.1-0.2-0.2l0,0c0,0,0,0,0,0
			c0,0,0,0,0,0c0,0,0,0,0,0c0-0.1,0-0.1,0-0.1l0,0l0,0c0,0-0.1-0.1-0.1-0.1c0-0.1-0.1-0.1-0.1-0.2c0.1,0,0.1,0,0.1,0
			c0,0,0-0.1,0-0.1c0,0,0.1,0,0.1,0c0-0.1,0-0.1-0.1-0.1c0,0,0,0,0.1,0c0,0.1,0,0.1,0.1,0.1c0,0,0,0,0.1,0c0,0,0-0.1,0-0.1l0,0
			c0,0,0,0,0.1,0l0,0c0,0,0,0,0-0.1c0,0,0,0,0,0l0,0c0,0,0,0,0-0.1l0,0c0,0,0,0,0,0l0,0l0,0c0,0,0,0-0.1-0.1l0,0c0,0,0,0,0,0l0,0
			l0,0l0,0l0,0l0,0l0,0c0.2,0,0.2,0,0.2,0c0,0,0-0.1,0-0.1c0,0,0,0,0,0c0,0,0,0,0,0l0,0c0,0,0,0,0,0c0-0.1-0.1-0.1,0-0.1
			c0,0,0.1,0,0.1,0c0-0.1,0-0.1,0-0.1l0,0l0,0l0,0c0,0,0,0,0,0c0,0-0.1,0-0.1-0.1l0,0c-0.1,0-0.1,0-0.2-0.1c0,0,0,0,0-0.1l0,0
			c0,0,0,0,0.1,0c0,0,0,0,0,0c0.1,0,0.1,0.1,0.2,0.1l0,0c0,0,0,0,0,0c0,0,0,0,0.1,0c0,0-0.3-0.2-0.5-0.3l0,0c0.1,0,0.1,0,0.1,0
			c0,0,0,0,0,0c0,0-0.1-0.1-0.1-0.1c0,0,0,0,0,0c-0.1-0.1-0.1-0.1-0.2-0.1l0,0c0,0,0,0,0,0c0,0,0,0,0,0c0,0,0,0-0.1,0l0,0
			c0,0,0,0,0,0c0,0,0,0,0.1,0.1c0,0,0,0,0.1,0l0,0c0,0,0,0,0,0c0,0,0,0,0,0c0,0-0.1-0.1-0.2-0.1l0,0c-0.1,0-0.1,0-0.1-0.1
			c0,0,0,0,0.1,0l0,0l0,0c0,0,0,0,0,0c-0.1-0.1-0.2-0.1-0.3-0.1l0,0l0,0c0,0-0.1,0-0.1-0.1c-0.1,0-0.2-0.1-0.4-0.1c0,0,0,0,0,0l0,0
			l0,0c0,0,0,0,0,0c0.1,0,0.1,0,0.1,0l0,0c0.1,0,0.1,0,0.2,0.1l0,0c-0.1,0-0.2-0.1-0.2-0.1c0,0,0,0,0,0c0,0,0,0,0,0c0,0,0,0-0.1,0
			l0,0c0,0,0,0,0,0c0,0-0.1,0-0.1,0l0,0l0,0c0,0-0.1,0-0.2,0c0,0,0,0,0,0c0,0-0.1,0-0.1-0.1c0,0,0,0-0.2-0.1l0,0c-0.1,0-0.1,0-0.1,0
			l0,0c-0.1,0-0.2-0.1-0.3-0.1l0,0c0,0,0,0,0,0c0,0,0,0-0.1,0c0,0,0,0,0,0l0,0c-0.1,0-0.1,0-0.1,0l0,0C18.6,5.3,18.6,5.3,18.5,5.3
			 M17.3,5.2L17.3,5.2L17.3,5.2L17.3,5.2L17.3,5.2l-0.1-0.1l0,0h0l0,0l0,0l0,0c0,0,0,0,0,0c0,0,0,0,0,0c0,0,0,0,0,0l0,0l0,0l0,0
			c0,0,0,0,0,0c0,0,0,0,0,0l0,0c0,0,0,0,0,0h0l0,0h0l0,0l0,0c0,0,0,0-0.1,0l0,0l0,0c0,0,0,0,0,0l0,0c0,0,0,0,0,0l0,0c0,0,0,0,0,0
			l0,0c0,0,0,0,0,0l0,0l0,0l0,0l0,0c0,0,0,0,0,0l0,0l0,0h0c0,0,0,0-0.1,0h0l0,0l0,0l0,0l0,0l0,0l0,0l0,0l0,0c0,0,0,0,0,0
			c0,0,0,0,0.1,0l0,0l0,0l0,0l0,0l0,0l0,0c0.1,0,0.1,0,0.1,0l0,0c0,0,0,0,0,0l0,0l0,0l0,0c0,0,0,0,0,0l0,0l0,0c0,0,0,0-0.1,0l0,0
			l0,0l0,0l0,0c0,0,0,0,0,0l0,0l0,0c0,0,0,0-0.1,0h0l0,0l0,0l0,0l0,0l0,0l0.1,0l0,0c0,0,0,0,0,0c0-0.1,0-0.1-0.1-0.1l-0.1,0l0,0l0,0
			l0,0l0,0l0,0c0,0,0,0,0.1,0c0,0,0,0-0.1,0c0,0,0,0,0,0l0-0.1l0,0l-0.1,0l0,0l-0.1,0c0,0,0,0,0,0l0,0l0,0l0.1,0l0.1,0l-0.1,0l0,0
			c0.1,0,0.1,0,0.2-0.1l0,0l-0.1,0l-0.1,0c0,0-0.1,0-0.1,0c0,0,0,0,0,0c0,0,0,0-0.1,0c0,0.1,0,0.1-0.1,0.1l-0.1,0l0,0.1l0,0
			c0,0,0.1,0,0.1,0c0,0,0.1,0,0.1,0c0,0,0,0,0.1,0c0,0,0,0,0.1,0c0,0,0,0,0.1,0c0,0,0,0,0,0l0,0c0,0,0,0,0.1,0c0,0,0,0,0,0
			C16.7,6,16.7,6,16.8,6l0,0l-0.1,0l0-0.1l0.1,0l0-0.1l0,0c0,0,0,0,0,0c0.1,0,0.1,0,0.1,0c0,0,0-0.1,0-0.1l0,0c0,0,0,0,0,0
			c0,0,0,0,0,0c0,0,0,0,0,0c0,0,0,0-0.1,0l0,0l0,0v0c0,0,0,0,0,0c0,0,0,0,0,0c0,0,0,0,0,0l0,0c0.1,0,0.1,0,0.1,0l0,0l0,0l0,0l0,0
			l0,0l0,0l0,0h0h0l0,0l0,0c0,0,0.1,0,0.1-0.1l0,0L17.3,5.2L17.3,5.2C17.3,5.3,17.3,5.3,17.3,5.2c-0.1,0.1-0.1,0.1-0.1,0.1l0,0l0,0
			C17.2,5.3,17.2,5.3,17.3,5.2C17.3,5.3,17.3,5.3,17.3,5.2C17.3,5.3,17.3,5.3,17.3,5.2L17.3,5.2C17.3,5.3,17.3,5.2,17.3,5.2
			 M16.5,5.6C16.5,5.6,16.5,5.6,16.5,5.6C16.5,5.5,16.5,5.5,16.5,5.6l0-0.1l0,0l0,0c0,0,0,0,0,0c0,0,0,0,0,0c0,0,0,0,0,0
			c0,0,0,0,0,0c0,0,0,0,0,0l0,0l0,0c0,0-0.1,0-0.1,0l0,0l0,0c0,0,0,0,0,0l0,0c0,0,0,0,0,0c0,0,0,0,0,0l0,0l0,0l0,0l0,0c0,0,0,0,0,0
			l0,0c0,0,0,0,0,0l0,0l0,0l0,0l0,0l0,0c0,0,0,0-0.1,0l0,0l0,0l0,0l0,0l0.1,0l0.1,0l0,0l0,0l0,0c0,0,0,0,0,0l0,0l0,0
			C16.4,5.6,16.4,5.6,16.5,5.6C16.4,5.6,16.4,5.6,16.5,5.6C16.4,5.6,16.5,5.6,16.5,5.6C16.5,5.6,16.5,5.6,16.5,5.6 M16.1,5.9
			C16.1,5.9,16.1,5.9,16.1,5.9C16.1,5.8,16.1,5.8,16.1,5.9L16.1,5.9L16.1,5.9L16.1,5.9 M16.6,6.2L16.6,6.2L16.6,6.2l-0.1-0.1l-0.1,0
			l-0.1,0l-0.1,0l-0.1,0l-0.1,0l-0.1,0l0-0.1L16,6L16,6c0,0-0.1,0-0.1,0c0,0,0,0-0.1,0c0,0.1,0,0.1-0.1,0.2l-0.1,0.1l0,0.1l0,0.1
			l0.1,0c0,0,0,0,0.1,0c0,0.1,0,0.1,0.1,0.1c0,0,0.1,0,0.1,0l0.1,0l0,0l0,0C16.5,6.3,16.5,6.3,16.6,6.2C16.5,6.3,16.5,6.2,16.6,6.2
			 M15.2,6.3C15.3,6.3,15.3,6.3,15.2,6.3L15.2,6.3L15.2,6.3 M15.6,6.3L15.6,6.3l0-0.1l0,0l0,0l-0.1,0l0,0l0,0.1
			C15.5,6.3,15.5,6.3,15.6,6.3L15.6,6.3L15.6,6.3 M15.7,6L15.7,6L15.7,6l0.1-0.1c0,0,0,0-0.1,0l0,0l-0.1,0L15.7,6L15.7,6L15.7,6
			L15.7,6 M16,5.8C16,5.8,16,5.8,16,5.8C16,5.8,16,5.8,16,5.8C15.9,5.8,15.9,5.8,16,5.8l-0.1,0l0,0L16,5.8L16,5.8L16,5.8 M15.9,5.7
			L15.9,5.7L15.9,5.7L15.9,5.7l0-0.1L15.9,5.7L15.9,5.7l-0.1,0l0,0L15.9,5.7L15.9,5.7L15.9,5.7z M16,5.5L16,5.5L16,5.5L16,5.5
			L16,5.5C16.1,5.5,16,5.5,16,5.5L16,5.5L16,5.5 M15.7,5.8L15.7,5.8L15.7,5.8L15.7,5.8l0.1-0.1l0,0l0,0l0,0l0,0l0,0l0,0l-0.1,0l0,0
			l0,0l0,0l-0.1,0c0,0,0,0,0,0l0,0l0,0l0,0L15.7,5.8L15.7,5.8L15.7,5.8L15.7,5.8L15.7,5.8 M15.5,5.8L15.5,5.8L15.5,5.8L15.5,5.8
			L15.5,5.8L15.5,5.8L15.5,5.8z M15.5,6C15.5,6,15.5,6,15.5,6C15.5,6,15.5,6,15.5,6C15.5,6,15.5,6,15.5,6L15.5,6
			c-0.1-0.1-0.1-0.1-0.1-0.1c0,0,0,0.2-0.1,0.1l0-0.1c0,0,0,0,0,0l0,0l0,0.1l0,0l0.1-0.1l0,0L15.2,6c0,0,0,0,0,0c0,0.1,0,0.1,0,0.1
			l0,0l0.1,0l0,0l0,0l0,0.1l0.1,0l0.1,0l0,0l0,0C15.4,6.1,15.4,6.1,15.5,6C15.5,6.1,15.5,6,15.5,6 M15,6.2C15,6.1,15,6.1,15,6.2
			L15,6.2C15,6.1,15,6.1,15,6.2l-0.1,0C14.9,6.2,14.9,6.2,15,6.2C14.9,6.2,15,6.2,15,6.2 M15.3,5.9L15.3,5.9l0.1-0.1l0,0
			C15.3,5.8,15.3,5.8,15.3,5.9 M16.8,7.7L16.8,7.7l0-0.2c-0.2,0-0.2,0-0.2,0c0,0,0,0-0.1,0.1l0,0.1l0.1,0L16.8,7.7 M15.6,6.5
			C15.6,6.5,15.7,6.5,15.6,6.5c0.1-0.1,0-0.1,0-0.1c0,0,0,0-0.1,0l-0.1,0c-0.1,0-0.1,0-0.1,0c0,0.1,0,0.1-0.1,0.1
			c0,0-0.1,0.1-0.1,0.1c-0.1,0.1-0.1,0.1-0.1,0.1l0.1,0l0.1,0l0.1-0.1l0.1,0L15.6,6.5L15.6,6.5 M15,6.8L15,6.8l0.1-0.1l0-0.1l0,0
			c0.1-0.1,0.1-0.1,0.1-0.1l0,0l-0.1,0l-0.1,0.1l0,0l0,0l-0.1,0l0,0.1l0,0.1c-0.1,0.1-0.1,0.1-0.1,0l0,0l-0.1,0.1l0,0l0,0
			c0,0,0,0,0.1,0c0,0,0,0.1,0,0.1l0,0c0,0,0.1,0.1,0.1,0.1c0,0,0.1,0,0.1-0.1L15,6.8 M14.6,6.5L14.6,6.5l0.1-0.1l-0.1,0
			C14.6,6.4,14.5,6.4,14.6,6.5C14.5,6.5,14.5,6.5,14.6,6.5C14.5,6.5,14.5,6.5,14.6,6.5L14.6,6.5 M14.4,6.4L14.4,6.4L14.4,6.4
			L14.4,6.4L14.4,6.4L14.4,6.4z M15.3,5.7C15.4,5.6,15.4,5.6,15.3,5.7C15.4,5.6,15.4,5.6,15.3,5.7L15.3,5.7L15.3,5.7l-0.2,0
			c0,0,0,0,0,0C15.2,5.7,15.3,5.7,15.3,5.7C15.3,5.7,15.3,5.7,15.3,5.7L15.3,5.7 M15.2,5.7L15.2,5.7L15.2,5.7
			C15.2,5.7,15.2,5.7,15.2,5.7L15.2,5.7l-0.2,0L15,5.8l0,0l0,0l0.1,0L15.2,5.7L15.2,5.7L15.2,5.7 M15,5.7L15,5.7l0.1,0l0,0L15,5.7
			L15,5.7L15,5.7L15,5.7z M14.9,6.1L15,6.1l0,0c0,0,0,0,0,0L14.9,6.1l0-0.1l0-0.1c0,0,0,0,0.1,0l0,0c0,0,0,0,0,0l-0.1,0l0,0l0,0
			c0,0,0,0-0.1,0.1L14.9,6.1c-0.1,0-0.1,0-0.2,0c0,0,0,0-0.1,0l0,0L14.7,6l0,0c0,0,0,0,0,0l0,0l0,0l-0.1,0L14.4,6l-0.1,0l-0.1,0
			l-0.1,0.1l0.1,0l0,0l0.1,0l0.1,0l0.1,0c0,0,0,0,0.1,0c0,0,0,0-0.1,0c0,0,0,0-0.1,0l-0.1,0l0,0l0,0c0,0,0.1,0,0.1,0l0.1,0l0.1,0
			l0.1,0c0,0,0.1,0,0.1,0C14.7,6.2,14.8,6.2,14.9,6.1L14.9,6.1 M14.7,5.9L14.7,5.9l0.1,0C14.8,5.9,14.8,5.9,14.7,5.9L14.7,5.9
			L14.7,5.9 M14.2,6.1L14.4,6L14.2,6.1L14.2,6.1L14.2,6.1L14.2,6.1z M14.7,5.8L14.7,5.8L14.7,5.8L14.7,5.8
			C14.7,5.8,14.7,5.8,14.7,5.8L14.7,5.8c-0.2,0-0.3,0-0.4,0.1c0,0,0,0,0,0l-0.1,0l-0.1,0l0,0l0.1,0l0,0l0.1,0l0.1,0l0,0l0.1,0l0.1,0
			l-0.1,0.1l0.1,0l0.1,0L14.7,5.8 M14.3,7.2L14.3,7.2l0-0.1L14.3,7V6.9l0.1-0.1l0-0.1l0.1-0.1l0-0.1l0,0c0,0,0,0-0.1,0
			c0,0-0.1,0.1-0.1,0.1l0,0.1l0,0.1l-0.1,0l0,0l0,0l0.1-0.1l0-0.1l0-0.1l0,0l0,0.1l0,0c0,0,0,0-0.1,0l0,0l-0.1,0l0.1,0l0.1-0.1l0,0
			l0,0l-0.1,0l-0.1,0.1l0,0l0,0L14,6.5l0,0c0,0,0,0-0.1,0l-0.1,0l-0.1,0l-0.1,0l-0.1,0l-0.1,0.1l-0.1,0l0,0c0,0,0,0,0,0l0,0l0.1,0
			l0.1,0l0,0l-0.1,0l-0.1,0l-0.1,0l0,0.1c0,0,0.1,0,0.1,0l0.1,0c0,0,0.1,0,0.1,0c0,0,0,0,0,0c0,0,0,0-0.1,0.1l-0.1,0
			c0,0-0.1,0-0.1,0l-0.1,0L13,7.2l0.1,0c0,0,0.1,0,0.1,0l-0.1,0.1l0,0.1c0,0,0.1,0,0.1,0h0.1l0.1,0l0.1,0l0.1-0.1l0.1,0l0,0l0.1,0
			L14,7.3l0.1,0l0.1,0l0.1-0.1l0-0.1L14.3,7.2L14.3,7.2 M13.8,7.4L13.8,7.4L13.8,7.4l-0.3,0l0.1,0L13.8,7.4L13.8,7.4L13.8,7.4z
			 M13.8,6.5l0.1,0L14,6.4l0-0.1l0,0l-0.1,0l0,0l0,0l-0.1,0l-0.1,0c0,0,0,0-0.1,0l-0.1,0.1l-0.2,0.1l-0.3,0.2l0,0.1l-0.1,0.1L13,6.8
			c0,0,0,0,0.1,0l0.1,0c0.1-0.1,0.1-0.1,0.4-0.2L13.8,6.5 M19.8,11L19.8,11l0-0.1l0-0.1l0-0.1l-0.2,0l0-0.1c-0.1,0-0.1,0-0.2,0
			l-0.1,0.1l-0.1,0.1l-0.1,0l0-0.1l0.2-0.1l0.2-0.1l0.1-0.1l-0.1,0l-0.1-0.1l-0.2,0l-0.1-0.1l-0.1-0.1L18.7,10l0.1,0l0-0.1l-0.1-0.2
			l-0.2-0.2l-0.2-0.3l-0.1-0.1l-0.1,0.2c0,0,0,0.1,0,0.1L18,9.5l-0.1,0.1l-0.1,0l0-0.1l-0.1-0.1l-0.1,0l0-0.2c0-0.1,0-0.1,0-0.2
			l0-0.1l-0.2,0l-0.1-0.1l-0.1-0.1l-0.2-0.1l-0.1,0.1l-0.2,0l-0.1,0c-0.1,0-0.1,0-0.2,0l-0.1,0.1l0.1,0.1l0,0.2l0,0.1l0.1,0.1
			c0,0-0.1,0-0.1,0l0,0.1l-0.1,0.1l0.1,0.1l0.1,0.1l0,0.2c0,0.1,0,0.1,0,0.2l-0.1,0.1l-0.2,0.1l-0.2,0l0.1,0.2c0,0.1,0,0.2,0,0.2
			l0,0.1l0,0.1L16,11.2l-0.2,0L15.7,11l-0.1-0.2c0,0,0-0.1,0-0.1l0-0.2l0-0.2l-0.2,0l-0.2,0l-0.1-0.1l-0.2-0.1L14.8,10l-0.2-0.1
			l-0.2-0.1l-0.3,0.1l0-0.1l0-0.2l-0.1-0.1l0-0.1l0.1-0.3l0.2-0.2l0.2-0.2l0.2-0.1l0.1-0.1l0-0.1l-0.2,0l-0.2-0.1l0.2,0l0.2,0.1
			l0.1,0L15,8.3l0.1,0.1l0.1,0l0-0.1l0.1,0l0.1-0.1l-0.1,0l-0.1,0l0-0.1L15,8l0.1,0l0.1,0l0.1,0l0.1,0l0.1-0.1l-0.1-0.1
			c0,0,0.1,0,0.1,0l0,0.1L15.6,8l-0.1,0.1c0,0.1,0,0.1,0,0.2l-0.1,0l0,0.1l0.1,0c0,0,0,0.1,0,0.1c0,0,0.1,0,0.1,0l0.1-0.1l0.2,0
			l0.1,0l0.1,0c0,0,0.1,0,0.1,0l0-0.1l-0.1,0l0-0.1l-0.1,0l-0.1-0.1l-0.1,0c0,0,0,0,0-0.1l0.1,0L15.8,8l0-0.1c0,0,0.1,0,0.1,0
			L16,7.8l0.1-0.1l0-0.1l0-0.1l0-0.1l0.1,0l0-0.1l-0.1-0.1l-0.1,0L16,7.2c0,0,0.1,0,0.1,0l0,0l0.1,0l0.1,0.1l0.1,0l0.1,0l-0.1-0.1
			l0.1,0l0.1,0.1l0.1,0l0,0.1l0.1,0l0,0.1l0.1,0l0,0.1l0.1,0l0.1,0.1l0,0.1L17,7.8L16.9,8l0.1,0.1l-0.2,0l-0.1,0c0,0-0.1,0-0.1,0
			l-0.1,0.1c0,0,0,0.1,0,0.1l0.2,0l0.1,0l0-0.1l0.1,0l0.1,0l0.2,0l0.2,0.2l0,0.1l0.1,0.1c0,0,0.1,0,0.1,0l0.2,0.1l0.2,0l0.1,0.1
			l0-0.1l-0.2-0.2l-0.1-0.1l-0.1-0.1l0.2,0.1L18,8.6l0.1,0.1c0,0,0-0.1,0-0.1l0.1-0.1L18,8.4l0-0.2l-0.2-0.1L17.6,8l0.1-0.1l0.1-0.1
			L18,8l0.1,0.1l0.1,0l0-0.1L18.3,8l0-0.1c0,0,0.1,0,0.1,0l0-0.1l0-0.1c-0.1,0-0.1,0-0.2,0c0,0,0,0,0-0.1l-0.1-0.1l-0.1,0l-0.1,0
			c0,0-0.1,0-0.1,0l0-0.1l0-0.1l-0.1,0l-0.1,0c0,0,0-0.1,0-0.1c0,0,0.1,0,0.1,0l0,0l-0.1,0l0,0l0.1,0l-0.1-0.1l-0.1,0l0-0.1l-0.1,0
			l-0.1,0l0,0l-0.1,0l0,0l0.1,0l-0.1,0l-0.1,0l-0.1-0.1l0,0l-0.1,0l0-0.1l-0.1,0c0,0-0.1,0-0.1,0l0,0l-0.1,0l-0.1,0l0,0.1l-0.1,0
			l0-0.1l0.1-0.1l0-0.1l0-0.1c0,0-0.1,0-0.1,0l-0.1,0.1l-0.1,0l-0.1,0l0,0.1l0,0.1L16,6.8l0,0.1l-0.1,0l0-0.1l0-0.1l0-0.1L16,6.5
			l0.1-0.1c0,0-0.1,0-0.1,0l-0.1,0l-0.1,0.1l-0.1,0.1l-0.1,0.2l0.1,0l0.1,0l0,0.1l-0.1,0l-0.1,0l0,0.1c0,0,0.1,0,0.1,0l0.1,0
			l0.1,0.1l0.1,0.1l-0.1,0l0,0.1l0,0.1l-0.1,0.2l-0.1,0.1l-0.1,0.1l-0.1,0l0-0.1l0.1-0.1l-0.1-0.1l-0.1,0.1l-0.1-0.2l0,0l0.1-0.1
			l0-0.1l-0.1,0l0-0.1l0-0.1l-0.1,0l0,0.1l-0.1,0l-0.1,0.1l0,0.1l0,0.1l0,0.1l0.1,0.1l-0.1,0.1l-0.1,0l0,0.1l0.1,0L15,7.3
			c0,0,0,0.1-0.1,0.1l-0.2,0.1l-0.1,0.2l-0.1-0.1l0.1-0.1c0,0,0,0-0.1,0l0-0.1c0,0,0,0,0.1,0l0.1-0.1l-0.1-0.1l-0.1,0.1l-0.1,0
			l0.1,0.1l-0.1,0.1l-0.1,0.1l-0.3,0L14,7.5l-0.1,0l-0.1-0.1l-0.1,0.1l-0.2,0.1l0,0.1l-0.1,0.2l0.1-0.2l-0.1-0.1l-0.2,0l-0.3-0.1
			l0-0.1l0.1,0L13,7.3l-0.1,0l-0.1-0.1l0-0.1l-0.1,0l-0.1,0l-0.1,0.1l-0.1,0L12.6,7l-0.2,0.1l0,0l0.1-0.2l0,0L12.3,7L12.2,7l-0.1,0
			l-0.1,0l-0.2,0.1L12,7.1l0.1,0l0.1,0l0.1-0.1l0,0l-0.1,0L11.9,7h-0.1c0,0,0,0,0,0l-0.2,0.1l-0.1,0L11.6,7l-0.1,0l0-0.1l0,0l-0.1,0
			l0-0.1c0,0,0,0-0.1,0l0-0.1c0,0,0,0-0.1,0l0,0c-0.9,0.5-1.6,1.1-2.4,1.8l0.1,0l0,0.1L8.9,8.7L8.7,8.8c0,0,0,0-0.1,0.1L8.6,8.9
			l0.2-0.1l0.1,0c0-0.1,0.1-0.1,0.2-0.2l0.1,0l0,0.1l0,0.1l0,0.1l0.1,0l0,0.1c0,0,0,0,0.1,0l0,0.1l0,0.1c0,0,0,0.1,0,0.2
			c0,0,0.1,0,0.1,0l0,0.1l0,0.1l0.1,0.1L9.4,9.6l0.1,0.1L9.4,9.8l0,0l0.1,0L9.4,10l0,0.1l-0.1,0.1l0,0.1l0.1,0l-0.1,0.2l0,0.2l0,0.1
			l0.1,0.1L9.4,11L9.5,11l0,0.1l0.1,0.1l0,0.1l0,0.2c0,0.1,0,0.1-0.1,0.2l0-0.1l0-0.1l0-0.1l-0.1-0.1l0,0l0.1-0.1c0,0-0.1,0-0.1,0
			l0-0.1l0,0l0,0l-0.1,0l0,0.1l0,0.1l0,0.1l0.1,0.2l0,0.2l0,0.2L9.1,12L9,12.2c0,0.1-0.1,0.2-0.1,0.3l-0.1,0.1c0,0.1,0,0.1-0.1,0.2
			l0,0.2l-0.1,0.2l0,0.1l0,0.1l-0.1,0.2l0,0.2l0.1,0.1l0,0.3l0.1,0.1l0,0.1l0.1,0.2c0,0,0.1,0,0.1,0L9,14.7l0.1,0.1L9.2,15l0,0.2
			l0,0.2l0,0.3l0.1,0.1l0.1,0.2l0,0.1l-0.1,0.1l0.1,0.1l0.1,0.1l0.1,0.1l0.1,0.1l0,0.1l0,0.1l0.1,0.1L10,17l0.1,0.1l0,0.1l0.1,0
			l0-0.1l0-0.2L10,16.9l0-0.1l-0.1-0.1l0-0.2l0-0.2l-0.1-0.1l0-0.2l-0.1-0.1l0-0.2l-0.1-0.2l0-0.2l0.1,0l0.1,0.1l0.1,0.1l0,0.2
			l0.1,0.3l0.1,0.2l0.1,0.2l0.1,0.2l0,0.2l0.1,0.1l0.1,0.2l0.1,0.2l0.2,0.2l0.1,0.2l0.1,0.1l-0.1,0.1l0,0.1L11,18l0.2,0.2l0.2,0.1
			l0.2,0.2l0.3,0.1l0.3,0.2l0.2,0.1l0.2,0l0-0.1l0.2,0l0.2,0.1l0.2,0.2l0.1,0.2c0.1,0,0.1,0,0.2,0l0.1,0l0.1,0l0.1,0.2l0.2,0.1
			l0-0.1l0.1,0.1c0.4,0.5,0.4,0.5,0.3,0.6l0.1,0.1l0.1,0l0.1,0.1c0.2,0.2,0.2,0.2,0.4,0.2l0.3,0.2l0.2,0.1l0-0.2l0.1-0.1l0.3,0
			l0,0.1l0.1,0l0.1-0.1L16,20.2c-0.1,0-0.2,0-0.3,0l-0.2,0l-0.3,0l-0.1-0.1l-0.2-0.2l0-0.2c0-0.1,0-0.1,0-0.2l0.1-0.3
			c0-0.1,0-0.1,0-0.2l-0.1-0.1l-0.2-0.1l-0.3,0l-0.2,0L14,18.9l-0.1-0.1l0.1-0.1c0,0,0-0.1,0-0.1c0,0,0-0.1,0-0.1l0.1-0.1l0.1-0.2
			c0-0.1,0-0.1,0-0.2l0.1-0.1l0-0.2l-0.1-0.1l-0.3,0l-0.2,0l-0.1,0.2l-0.1,0.2l-0.1,0.2l-0.2,0L13,18.3l-0.2,0l-0.1-0.2l-0.2-0.1
			l-0.1-0.2l-0.1-0.2l-0.1-0.4l0-0.3l0.1-0.2l0.1-0.2l-0.1-0.3l0.2-0.2l0.1,0l0.2-0.1l0.2-0.1l0.2,0l0.1,0.1l0.1,0l0.1,0.1
			c0.1,0,0.1,0,0.2,0l0.1,0l0-0.1l0.1-0.2l0.2,0l0.1,0l0.3,0l0.1,0.1c0,0,0.1,0,0.1,0l0.1-0.1l0.1,0l0.1,0.1l0.1,0.2
			c0,0.1,0,0.1,0,0.2l0.1,0.1l0,0.1l0.1,0.1l0,0.1l0.1,0.1l0,0.1l0.1,0l0.1-0.1l0.1-0.1l-0.1-0.2l-0.1-0.3L15.4,16
			c0-0.1,0-0.2,0-0.4c0,0,0-0.1,0.1-0.2l0.1-0.2l0.2-0.1L16,15l0.2-0.1l0.2-0.1l0-0.1l0.1-0.1l-0.1-0.2l-0.1-0.1l0-0.1L16.3,14
			l0.1-0.1l0.1,0.2l0.1-0.2l0.1-0.1l0.1-0.1l0.1-0.3c0.1,0,0.2,0,0.3,0l0.2-0.1l0.2,0l0-0.1l0-0.2l0.1-0.2c0.1,0,0.1,0,0.2,0l0-0.1
			l0.2,0l0.2-0.1l0.1-0.1c0.3,0,0.3,0,0.5,0c0,0,0,0-0.1,0.1c-0.1,0-0.2,0-0.2,0c0,0-0.1,0.1-0.1,0.1c0,0,0,0.1,0,0.1l0.1,0l0.1-0.1
			l0.1-0.1l0.2,0l0.2-0.1l0.2,0l0.1-0.2l0.1-0.1l0-0.1l-0.2,0L19,12.4l-0.2,0l-0.2-0.1l-0.2-0.1l-0.1-0.2l0.1-0.1l0-0.2l-0.2,0
			L18,11.7l-0.3,0.2l-0.3,0.3l-0.2,0.1l0.1-0.1l0.1-0.1l0.1-0.1l-0.2-0.1c0.1,0,0.2,0,0.3,0l0.1-0.1l0.1-0.1l0.2,0l0.1-0.1l0.1-0.1
			c0.1,0,0.1,0,0.2,0l0.4,0l0.2,0l0.2,0l0.1-0.1l0.1-0.2l0.2,0L19.8,11"/>
	</g>
</g>
</svg>
