<?xml version="1.0" encoding="utf-8"?>
<!-- Generator: Adobe Illustrator 23.0.4, SVG Export Plug-In . SVG Version: 6.00 Build 0)  -->
<svg version="1.1" id="Layer_1" xmlns="http://www.w3.org/2000/svg" xmlns:xlink="http://www.w3.org/1999/xlink" x="0px" y="0px"
	 viewBox="0 0 94.9 20" style="enable-background:new 0 0 94.9 20;" xml:space="preserve">
<style type="text/css">
	.st0{clip-path:url(#SVGID_2_);fill-rule:evenodd;clip-rule:evenodd;fill:#F6F4F3;}
	.st1{clip-path:url(#SVGID_4_);}
	.st2{fill:#F25F5C;}
	.st3{clip-path:url(#SVGID_6_);}
	.st4{fill-rule:evenodd;clip-rule:evenodd;fill:#247BA0;}
	.st5{fill-rule:evenodd;clip-rule:evenodd;fill:#F6F4F3;}
	.st6{fill:#247BA0;}
	.st7{fill:none;stroke:#247BA0;stroke-width:0.25;stroke-miterlimit:10;}
</style>
<g>
	<g>
		<defs>
			<path id="SVGID_1_" d="M93.6,20H1.3C0.6,20,0,19.4,0,18.7V1.3C0,0.6,0.6,0,1.3,0h92.3c0.7,0,1.3,0.6,1.3,1.3v17.4
				C94.9,19.4,94.3,20,93.6,20z"/>
		</defs>
		<clipPath id="SVGID_2_">
			<use xlink:href="#SVGID_1_"  style="overflow:visible;"/>
		</clipPath>
		<path class="st0" d="M93.6,20H1.3C0.6,20,0,19.4,0,18.7V1.3C0,0.6,0.6,0,1.3,0h92.3c0.7,0,1.3,0.6,1.3,1.3v17.4
			C94.9,19.4,94.3,20,93.6,20z"/>
	</g>
	<g>
		<defs>
			<path id="SVGID_3_" d="M93.6,20H1.3C0.6,20,0,19.4,0,18.7V1.3C0,0.6,0.6,0,1.3,0h92.3c0.7,0,1.3,0.6,1.3,1.3v17.4
				C94.9,19.4,94.3,20,93.6,20z"/>
		</defs>
		<clipPath id="SVGID_4_">
			<use xlink:href="#SVGID_3_"  style="overflow:visible;"/>
		</clipPath>
		<g class="st1">
			<g>
				<path class="st2" d="M49.3,11.4l0.2,1l0.2-1l1.4-4.8h0.5l1.4,4.8l0.2,1l0.2-1l1.2-4.7h0.6l-1.7,6.5H53L51.6,8l-0.2-0.6L51.2,8
					l-1.5,5.1h-0.5l-1.7-6.5h0.6L49.3,11.4z"/>
				<path class="st2" d="M59.8,10h-3v2.6h3.5v0.5h-4V6.6h4v0.5h-3.5v2.4h3V10z"/>
				<path class="st2" d="M61.4,13.1V6.6h1.9c0.7,0,1.2,0.1,1.6,0.4s0.5,0.7,0.5,1.3c0,0.3-0.1,0.6-0.3,0.9s-0.4,0.4-0.8,0.5
					c0.4,0.1,0.7,0.3,0.9,0.6c0.2,0.3,0.3,0.6,0.3,1c0,0.6-0.2,1-0.6,1.3s-0.9,0.5-1.5,0.5H61.4z M62,9.5h1.5c0.5,0,0.8-0.1,1.1-0.3
					C64.9,9,65,8.7,65,8.3c0-0.4-0.1-0.7-0.4-0.9c-0.3-0.2-0.7-0.3-1.2-0.3H62V9.5z M62,10v2.6h1.6c0.5,0,0.8-0.1,1.1-0.4
					s0.4-0.6,0.4-1s-0.1-0.7-0.4-0.9s-0.6-0.3-1-0.3H62z"/>
				<path class="st2" d="M70.7,11.5c0-0.4-0.1-0.6-0.4-0.9c-0.3-0.2-0.7-0.4-1.4-0.6s-1.2-0.4-1.5-0.6c-0.4-0.3-0.7-0.7-0.7-1.2
					s0.2-0.9,0.6-1.2c0.4-0.3,0.9-0.5,1.6-0.5c0.4,0,0.8,0.1,1.2,0.2s0.6,0.4,0.8,0.7c0.2,0.3,0.3,0.6,0.3,1h-0.6
					c0-0.4-0.2-0.8-0.5-1.1C69.9,7.1,69.5,7,69,7s-0.9,0.1-1.2,0.3c-0.3,0.2-0.4,0.5-0.4,0.9c0,0.3,0.1,0.6,0.4,0.8
					C68,9.2,68.4,9.4,69,9.6s1,0.3,1.3,0.5s0.5,0.4,0.7,0.6c0.2,0.2,0.2,0.5,0.2,0.8c0,0.5-0.2,0.9-0.6,1.2s-0.9,0.5-1.6,0.5
					c-0.5,0-0.9-0.1-1.3-0.2c-0.4-0.2-0.7-0.4-0.9-0.7c-0.2-0.3-0.3-0.6-0.3-1H67c0,0.5,0.2,0.8,0.5,1.1s0.8,0.4,1.4,0.4
					c0.5,0,0.9-0.1,1.2-0.3C70.6,12.2,70.7,11.9,70.7,11.5z"/>
				<path class="st2" d="M73.1,13.1h-0.5V6.6h0.5V13.1z"/>
				<path class="st2" d="M79.1,7.1h-2.2v6h-0.5v-6h-2.2V6.6h5v0.5H79.1z"/>
				<path class="st2" d="M83.8,10h-3v2.6h3.5v0.5h-4V6.6h4v0.5h-3.5v2.4h3V10z"/>
			</g>
		</g>
	</g>
	<g>
		<defs>
			<path id="SVGID_5_" d="M93.6,20H1.3C0.6,20,0,19.4,0,18.7V1.3C0,0.6,0.6,0,1.3,0h92.3c0.7,0,1.3,0.6,1.3,1.3v17.4
				C94.9,19.4,94.3,20,93.6,20z"/>
		</defs>
		<clipPath id="SVGID_6_">
			<use xlink:href="#SVGID_5_"  style="overflow:visible;"/>
		</clipPath>
		<g class="st3">
			<circle class="st4" cx="16.8" cy="10.5" r="21"/>
			<circle class="st5" cx="17.5" cy="9.3" r="21"/>
			<g>
				<path class="st6" d="M20.8-11.6C20.8-11.6,20.8-11.5,20.8-11.6C20.8-11.5,20.8-11.6,20.8-11.6 M20.4-11.6L20.4-11.6L20.4-11.6
					L20.4-11.6 M20.3-11.6C20.3-11.6,20.4-11.6,20.3-11.6L20.3-11.6L20.3-11.6L20.3-11.6 M20.3-11.6L20.3-11.6h-0.1l0,0
					C20.2-11.6,20.2-11.6,20.3-11.6 M32.6-5.6L32.6-5.6c-0.4-0.4-0.7-0.7-1-0.9l-0.1-0.1C31.9-6.4,32.1-6.2,32.6-5.6L32.6-5.6
					L32.6-5.6 M37.8,2.4L37.8,2.4L37.8,2.4L37.8,2.4 M37.6,1.9c0.1,0.2,0.1,0.3,0.2,0.4l0,0V2.2l0,0l0,0l0,0
					C37.7,2.1,37.7,2,37.6,1.9 M36.5-0.5L36.5-0.5c-0.3-0.5-0.4-0.8-0.7-1.2c0.2,0.3,0.4,0.7,0.6,1C36.5-0.6,36.5-0.5,36.5-0.5
					 M34.8-3.2L34.8-3.2C34.8-3.2,34.7-3.2,34.8-3.2L34.8-3.2 M32.6-5.6L32.6-5.6C32.7-5.6,32.7-5.6,32.6-5.6L32.6-5.6L32.6-5.6
					 M34.9,21.4l-0.1,0.1c0.3-0.4,0.5-0.6,0.8-1.2C35.5,20.5,35.3,20.9,34.9,21.4 M36.5,18.8L36.5,18.8c0.3-0.5,0.4-0.8,0.7-1.4l0,0
					C37,18,36.8,18.4,36.5,18.8 M37.9,15.6L37.9,15.6c0.2-0.4,0.2-0.7,0.4-1.3l0,0C38.2,14.7,38.1,15.2,37.9,15.6L37.9,15.6 M39,9.3
					L39,9.3L39,9.3 M39,9.2C39,9.2,39,9.3,39,9.2C39,9.3,39,9.2,39,9.2L39,9.2 M39,9.2L39,9.2L39,9.2L39,9.2L39,9.2 M38.8,6.2
					c0.1,0.4,0.1,0.6,0.1,1C38.9,6.9,38.8,6.5,38.8,6.2 M15.6-5.5L15.6-5.5c0-0.2,0-0.2,0-0.3h-0.2l-0.2,0.1v0.2c0.1,0,0.2,0,0.2,0
					L15.6-5.5 M14.9-5.8L14.9-5.8L14.9-5.8L14.9-5.8c-0.1,0-0.1,0-0.2,0c0,0-0.1,0-0.2,0.1h-0.1c0,0,0,0.1,0.1,0.1c0,0,0,0,0.1,0
					C14.7-5.6,14.8-5.7,14.9-5.8C14.9-5.7,14.9-5.7,14.9-5.8 M16.4-9.3h0.2l-0.2-0.1h-0.3c-0.1,0-0.1,0-0.2,0v0.1v0.1h0.3L16.4-9.3
					 M20-11.7L20-11.7L20-11.7c0,0-0.1,0-0.2,0h-0.1l0,0l0,0C19.9-11.7,20-11.7,20-11.7L20-11.7L20-11.7L20-11.7c0.2,0,0.2,0,0.3,0
					h0.1h0.1l0,0l0,0l0,0l0,0l0,0l0,0l0,0h0.1h0.1l0,0c-0.1,0-0.2,0-0.5-0.1l0,0h-0.1H20l0,0V-11.7 M20.6-11.6h-0.1
					c-0.1,0-0.1,0-0.2,0l0,0C20.4-11.6,20.5-11.6,20.6-11.6L20.6-11.6C20.5-11.6,20.5-11.6,20.6-11.6L20.6-11.6L20.6-11.6
					c0,0,0,0,0.1,0H20.6L20.6-11.6c0.1,0,0.2,0,0.3,0C20.8-11.5,20.7-11.6,20.6-11.6h0.1H20.6c0.2,0,0.2,0,0.3,0H21h0.1h0.1
					c-0.1,0-0.2,0-0.3-0.1c0,0,0,0-0.1,0l0,0l0,0l0,0C20.7-11.6,20.6-11.6,20.6-11.6 M21.4-11.4h-0.2c0,0,0,0,0.1,0l0,0
					c-0.1,0-0.2,0-0.3-0.1c0.1,0,0.2,0,0.3,0.1c0,0,0,0-0.1,0H21l0,0h-0.1H21l0,0l0,0l0,0C21.2-11.4,21.3-11.4,21.4-11.4
					c-0.1,0-0.2,0-0.3,0c-0.1,0-0.1,0-0.1,0C21.1-11.4,21.3-11.4,21.4-11.4L21.4-11.4C21.4-11.3,21.4-11.3,21.4-11.4L21.4-11.4
					C21.4-11.3,21.4-11.3,21.4-11.4L21.4-11.4c0.1,0.1,0.2,0.1,0.2,0.1h0.1l0,0l0,0c0.1,0,0.1,0,0.2,0c-0.1,0-0.1,0-0.2,0
					c0,0,0,0,0.1,0C21.8-11.3,21.8-11.3,21.4-11.4 M21.8-11.2L21.8-11.2L21.8-11.2L21.8-11.2 M23.2-10.9L23.2-10.9
					C23-11,23-11,23-11l0,0c0,0,0,0-0.2-0.1l0,0c-0.2,0-0.3-0.1-0.5-0.1c0,0-0.2,0-0.3-0.1c0,0,0,0,0.1,0H22c-0.1,0-0.1,0-0.2,0
					c-0.2,0-0.3-0.1-0.5-0.1l0,0c0.1,0,0.1,0,0.2,0c0,0,0,0,0.1,0c0.3,0.1,0.3,0.1,0.4,0.1c0,0,0,0-0.2,0c0,0,0,0-0.1,0
					c0,0,0,0-0.1,0c0,0,0,0-0.1,0s-0.1,0-0.1,0c0.1,0,0.1,0,0.2,0.1l0,0h-0.1c-0.1,0-0.1,0-0.2,0c0,0,0,0,0.1,0l0,0
					c0.3,0.1,0.6,0.1,0.9,0.2c-0.1,0-0.2-0.1-0.3-0.1c0.1,0,0.4,0.1,0.5,0.1c0,0,0,0-0.2-0.1c0.1,0,0.2,0,0.3,0.1l0,0
					c0,0-0.2-0.1-0.3-0.1h-0.1l0,0c0.1,0,0.1,0,0.3,0.1l0,0h-0.1h0.1c0.1,0,0.1,0,0.2,0c0,0,0,0,0.1,0l0,0l0,0l0,0c0,0,0,0,0.1,0
					c0,0,0,0,0.1,0.1C23-10.9,23.1-10.9,23.2-10.9L23.2-10.9L23.2-10.9L23.2-10.9c0,0,0,0-0.1-0.1l0,0C22.9-11,23.1-10.9,23.2-10.9
					L23.2-10.9c-0.1,0.1-0.1,0.1-0.1,0.1c0.2,0.1,0.5,0.1,0.8,0.2l0,0C23.8-10.7,23.4-10.8,23.2-10.9c-0.1,0-0.2,0-0.3,0
					c0,0,0,0-0.4-0.1l0,0c0.5,0.1,0.5,0.1,0.9,0.2l0,0C23.2-10.9,23.2-10.9,23.2-10.9s0,0,0.2,0.1l0,0
					C23.4-10.9,23.4-10.9,23.2-10.9L23.2-10.9L23.2-10.9 M32.6-5.4L32.6-5.4L32.6-5.4L32.6-5.4C32.6-5.5,32.6-5.5,32.6-5.4L32.6-5.4
					L32.6-5.4L32.6-5.4L32.6-5.4C32.5-5.5,32.6-5.5,32.6-5.4 M27.7-9.1c-0.1-0.1-0.2-0.1-0.3-0.1l0,0l0,0l0,0l0,0
					C27.5-9.2,27.6-9.2,27.7-9.1L27.7-9.1 M29.4-8.2l-1.2-0.7l0,0c0,0-0.1,0-0.1-0.1l0,0l0.1,0.1l0,0C28.1-8.9,28.1-9,28-9l0,0
					c-0.1,0-0.1-0.1-0.2-0.1l0,0h0.1c0,0-0.1,0-0.1-0.1h-0.1l-0.1-0.1c-0.1,0-0.2-0.1-0.3-0.1l0,0c0.1,0,0.1,0.1,0.2,0.1
					c0,0-0.1,0-0.1-0.1c0,0-0.1,0-0.1-0.1h-0.1l0,0c0.2,0.1,0.2,0.1,0.3,0.1c0,0,0,0,0.1,0h0.1l0,0c-0.1-0.1-0.2-0.1-0.3-0.1l0,0
					l-0.2-0.1l0,0l0,0c0.1,0.1,0.3,0.2,0.3,0.2l0,0c0,0-0.1,0-0.2-0.1l0,0c0.1,0.1,0.3,0.2,0.3,0.2c0.1,0,0.1,0.1,0.2,0.1l0,0h-0.1
					l0,0C28-8.9,28-8.9,28-8.9C27.9-9,27.9-9,27.6-9.1L27.7-9c0.1,0,0.3,0.2,0.4,0.2c0,0,0,0-0.2-0.1c0.1,0,0.2,0.1,0.2,0.1
					c0.1,0,0.1,0.1,0.2,0.1c0,0,0,0,0.1,0l0,0c0,0,0,0-0.4-0.2c0.1,0.1,0.1,0.1,0.2,0.1l0,0l0,0c0,0.1,0.1,0.1,0.2,0.1l0,0l0.1,0.1
					l0,0c0,0,0,0,0.1,0.1l0,0h0.1l0,0c-0.1-0.1-0.1-0.1-0.1-0.1h-0.1l0,0l0,0l0,0c0,0,0,0,0.1,0.1c0,0.1,1.1,0.9,1.1,0.9l0,0
					c0.1,0.1,0.1,0.2,0.2,0.3l0,0c0,0,0,0,0.4,0.4c0,0,0,0-0.1,0l0,0l0.1,0.1l0.1,0.1l0,0l0,0l0,0l0,0l0,0l0,0l0,0l0,0l0,0
					c0,0,0,0,0.2,0.3l0,0C30.8-6.1,31-6,31.1-5.8l0,0l0,0l0.1,0.1l0,0c0.3,0,0.2,0.4,0.4,0.4c0.1,0.1,0.1,0.1,0.1,0.1
					c0.1,0,0.2,0,0.3,0l-0.1-0.1l0,0l0,0l-0.1-0.1c0,0,0.1,0,0.3,0.2c0.1,0,0.2-0.1,0.3-0.1c-0.2-0.2-0.2-0.2-0.3-0.3
					c0,0,0,0-0.1-0.1S31.7-5.9,31.6-6c-0.1-0.1-0.3-0.3-0.4-0.4c0,0-0.6-0.6-1.5-1.3l0,0l0,0l0,0l0,0l0,0l0,0l0,0l0,0
					c0.1,0,0.1,0.1,0.2,0.1c0,0,0,0-0.1-0.1c0,0,0.1,0,0.2,0.1s0.1,0.1,0.2,0.1l0,0c0.2,0.2,0.3,0.2,0.4,0.3l0,0
					c0.1,0.1,0.1,0.1,1,0.9h0.1C31.8-6.2,32-6,32.2-5.9l0,0L32.1-6l0,0L32-6.1l0,0l0,0l0,0l0,0L32.1-6l0,0h0.1
					c0.1,0.1,0.2,0.2,0.3,0.3c0,0,0,0-0.1-0.1c0,0,0,0.1,0.1,0.1l0,0c0,0.1,0.1,0.1,0.2,0.2v-0.1l-0.1-0.1C31-7.1,31-7.2,30-7.8
					L29.7-8l0,0C29.6-8.1,29.6-8.1,29.4-8.2C29.3-8.3,29.4-8.2,29.4-8.2L29.4-8.2 M32.1-5.2L32.1-5.2c-0.1,0-0.2,0-0.3,0.1l0,0l0,0
					c0,0,0,0,0.1,0l0,0l0,0l0,0l0,0l0,0l0,0c0,0,0.1,0,0.1,0.1l0,0l0,0l0,0l0,0L32.1-5.2L32.1-5.2L32.1-5.2L32.1-5.2
					C32.2-5.1,32.2-5.1,32.1-5.2 M32.5-5.4c-0.1,0-0.2,0.1-0.3,0.1c0.1,0.1,0.1,0.1,0.2,0.2l0,0c0.1,0.2,0.1,0.2,0.2,0.2
					c0.1,0.1,0.1,0.1,0.1,0.1v0.1l0,0c0.1,0.1,0.1,0.1,0.2,0.2C33-4.4,33-4.4,33.1-4.3l0,0l0.1,0.1h0.1c-0.2-0.2-0.2-0.2-0.2-0.2
					l0,0l0,0c0,0,0,0,0.1,0l-0.1-0.1l0,0c0-0.1-0.1-0.1-0.1-0.2l0,0l-0.1-0.1l0,0l0,0l0,0c0,0,0,0-0.1-0.1c0-0.1,0-0.1-0.1-0.3
					C32.6-5.2,32.5-5.3,32.5-5.4 M34.7-3.3C34.1-4,33.3-5,32.6-5.7c0.1,0,0.1,0.1,0,0.1l0,0l0,0l0,0l0,0l0,0l0,0l0,0l0,0l0,0
					c0.1,0.1,0.1,0.2,0.2,0.2c0,0,0,0-0.1-0.1c0.1,0,0.1,0,0.5,0.5l0,0c0,0,0,0-0.2-0.1l0,0l-0.1-0.1l0,0c0.3,0.3,0.5,0.6,0.8,0.9
					v0.1h-0.1c0,0,0,0,0.2,0.3l0,0c0.1,0,0-0.1,0-0.1c0,0.1,0.1,0.2,0.1,0.3l0,0l0,0l0,0c-0.1-0.1-0.1-0.1-0.2-0.2l0,0l0,0l0,0
					c0,0.1,0,0.1,0.1,0.2l0,0c-0.1,0-0.1,0-0.2-0.1l0,0l0,0c0,0,0-0.1-0.1-0.1c0,0,0-0.1-0.1-0.1l0,0c0,0,0,0,0.1,0.1
					c0-0.1-0.3-0.4-0.4-0.5l0,0c0,0,0,0,0.1,0.2l0,0l0,0c-0.1,0-0.1,0-0.2-0.2c0-0.1-0.1-0.1-0.1-0.1l0,0c-0.2-0.3-0.2-0.3-0.4-0.4
					c0,0.1,0.2,0.2,0.1,0.3c0,0,0,0.1,0.1,0.1c0,0,0,0,0.1,0.1C33-4.2,33.1-4,33.3-3.8c0,0,0,0,0,0.1l0.1,0.1
					c0.1,0.1,0.1,0.1,0.2,0.2c0,0.1,0.1,0.1,0.1,0.1l0,0l0,0l0,0h-0.1v0.1l0,0c0,0.2,0,0.2,0,0.2h-0.1l0,0l0,0v0.1h0.1
					c0,0.1,0.1,0.1,0.1,0.2c-0.1,0.1-0.1,0.1,0,0.3l0,0l0,0c0,0.1,0.1,0.2,0.2,0.3h-0.1c0,0.1,0.1,0.1,0.1,0.2h-0.1l0,0h-0.1
					c0,0,0,0,0-0.1h-0.1c0,0.1,0.1,0.1,0.1,0.2c0.1,0,0.1,0.1,0.1,0.2v0.1c0,0,0,0,0,0.1c-0.1,0.1-0.3-0.1-0.3-0.1h-0.1
					c0,0.1,0,0.1,0,0.2l0,0c0.1,0.1,0.2,0.1,0.2,0.1l0,0C33.9-1,34-0.9,34.1-0.8s0.1,0.2,0.2,0.3c0.4,0.5,0.4,0.5,0.5,1v0.1h-0.1
					c-0.1-0.1-0.2-0.1-0.3-0.2c-0.1,0-0.2,0-0.3,0s-0.1,0-0.2-0.1l0,0l0,0v0.1c-0.1,0-0.1,0-0.2,0v0.1c0.2,0.2,0.2,0.5,0.4,0.7
					c0.1,0.1,0.1,0.3,0.2,0.4c0.1,0.2,0,0.4,0.1,0.6c0,0,0,0.1,0.1,0.1c0,0,0,0,0,0.1v0.1c0,0.1,0,0.1,0.1,0.3h0.1h0.1l0.1,0.1
					c0,0,0.1,0,0.1-0.1C35,2.9,35,3,35.1,3c0.1,0.1,0.1,0.2,0.2,0.2V3.1l0,0l0,0c0.2,0,0.1-0.3,0.3-0.3c0.1-0.1,0.1-0.4,0.3-0.5
					c0-0.1-0.1-0.1-0.1-0.2c-0.2-0.3-0.2-0.3-0.2-0.6V1.4c0,0,0-0.1,0.1-0.1c0-0.1,0-0.1,0.1-0.3h0.1c0-0.1,0-0.1-0.1-0.2
					c0,0,0,0,0-0.1c-0.2-0.3-0.3-0.5,0-0.4l0,0l0,0l0,0l0,0l0,0l0,0l0,0l0,0l0.1,0.1c0.1,0,0.1,0,0.1,0l0,0c0-0.1,0-0.1-0.1-0.2l0,0
					l0,0c0-0.1,0-0.1,0-0.2c0.2,0,0.1,0.3,0.3,0.5c0.1,0,0.1,0.1,0.1,0.1c0.2,0.2,0.7,0.6,0.9,1.2c0,0,0,0,0,0.2c0,0,0,0-0.1,0v0.1
					c0.1,0.1,0.1,0.2,0.2,0.3c0.1,0,0.1,0,0.1,0c0-0.1-0.1-0.2-0.1-0.2c0-0.3-0.2-0.7-0.2-0.7s0,0,0-0.1l0,0V1.3V1.2l0,0
					c0.1,0.1,0.1,0.1,0.1,0.1c-0.1-0.3-0.3-0.4-0.4-0.7c-0.1,0-0.4-0.5-0.5-0.5l0,0c0-0.1,0-0.1-0.1-0.2l0,0l-0.1-0.1v-0.1l0,0l0,0
					c0-0.1-0.1-0.1-0.1-0.2l0,0c0.4,0.5,0.6,0.7,0.7,0.8c0.1,0.2,0.3,0.4,0.4,0.6c0.3,0.6,0.3,0.6,0.3,0.6c0,0.1,0.1,0.2,0.1,0.3
					l0,0l0,0c0,0,0,0.1,0.1,0.3V2l0,0c0.1,0.1,0.1,0.3,0.2,0.4l0,0c0-0.1,0-0.1,0-0.2V2.1c0-0.1,0-0.1-0.1-0.1l0,0l0,0
					c0-0.1,0-0.1-0.1-0.3c0-0.1,0-0.1-0.1-0.2c0,0,0,0,0.1,0.2c-0.1-0.1-0.3-0.5-0.3-0.5s0,0,0-0.1l0,0l0,0v0.1l0,0l0,0
					c0-0.1-0.1-0.2-0.1-0.3c0,0,0,0.1,0.1,0.1v0.1c0.1,0.2,0.1,0.3,0.2,0.5v0.1c0,0.1,0,0.1,0,0.1c0,0.1,0,0.1,0.1,0.2l0,0l0,0l0,0
					l0,0l0,0v0.1l0,0l0,0c0,0.1,0,0.1,0.1,0.2l0,0l0,0V2.2V2.1V2V1.9l0,0l0,0l0,0c-0.3-0.8-0.8-1.9-1.2-2.7
					C35.5-2.2,35.3-2.5,34.7-3.3 M30.8-4.9L30.8-4.9L30.8-4.9C30.7-4.8,30.7-4.8,30.8-4.9L30.8-4.9L30.8-4.9L30.8-4.9v0.2
					c0,0,0,0,0.1,0.1l0,0l0,0l0,0c0-0.1,0-0.1,0-0.1l0,0l0,0l0,0l0,0C30.8-4.8,30.8-4.8,30.8-4.9 M33.4-2.8L33.4-2.8
					c-0.2-0.2-0.2-0.3-0.3-0.3l0,0c0,0,0.1,0.1,0.1,0.2c0,0,0,0-0.3-0.3c0,0,0,0-0.1,0c-0.1-0.2-0.2-0.3-0.3-0.3c0,0,0,0-0.1-0.1
					c-0.1,0-0.1-0.1-0.2-0.1c-0.1-0.1-0.1-0.1-0.2-0.2c-0.1-0.1-0.2,0-0.2-0.1l-0.1-0.2l0,0c0,0,0,0,0-0.1s0-0.1-0.1-0.2
					s-0.1-0.1-0.2-0.2c-0.1,0-0.1,0-0.2,0C31-5,31-5.1,31-5.1l0,0l0,0c0,0,0,0-0.1,0c0,0,0,0,0.2,0.2c0,0.1,0.1,0.1,0.1,0.2
					c-0.1,0-0.1,0-0.2,0c0,0,0.1,0.2,0.3,0.2c0,0,0,0,0,0.1c0,0,0,0,0,0.1s0.1,0.1,0.1,0.2c-0.1,0-0.1,0,0,0.2c0,0,0,0,0.1,0l0,0
					l0.1,0.1h0.1c0-0.1,0-0.1-0.1-0.1c0,0,0.2,0.2,0.2,0.3l0,0l0,0c0,0,0,0,0.1,0.1H32l0,0c0.2,0.1,0.2,0.3,0.4,0.3
					c0.1,0.1,0.2,0.1,0.2,0.3c-0.1,0-0.1,0-0.2,0l0,0l0,0c0,0,0,0,0,0.1c0,0,0,0,0,0.1h-0.1c0.1,0.1,0.1,0.1,0.1,0.1
					c0.1-0.1,0.1,0,0.2,0.1l0,0v0.1l0,0l0,0l0,0l0,0l0,0l0,0l0,0l0,0l0,0l0.1,0.2c0,0,0,0,0-0.1h0.2c0,0,0.1,0.1,0,0.1v0.1l0,0l0,0
					C33-2,33-2,33-1.9l0,0c0,0,0,0,0.1-0.1c0,0,0,0,0-0.1c0,0,0,0,0.1,0h0.1c-0.1-0.1-0.1-0.1-0.1-0.2c0,0,0,0,0.1,0c0,0,0,0,0.1,0
					v-0.1l0,0c0.1,0,0.1,0.1,0.2,0.1l0,0h0.1v-0.1l0,0l0,0c0-0.1-0.1-0.1-0.2-0.2l0,0c0,0,0,0,0-0.1l0,0C33.4-2.6,33.4-2.7,33.4-2.8
					L33.4-2.8 M31.6-3.4L31.6-3.4L31.6-3.4L31.6-3.4 M32-3.4l-0.2-0.3h-0.1c0,0,0,0-0.1,0l0,0l0,0v0.1c-0.1,0-0.1-0.1-0.1-0.1h-0.1
					c0.1,0.1,0.1,0.2,0.2,0.3l0,0l0,0l0,0l0,0c0,0,0,0-0.1,0l0,0c0.1,0.1,0.2,0.3,0.3,0.4c0,0,0,0,0.1,0c0,0.1,0.1,0.1,0.1,0.2
					c0,0,0,0-0.1,0v0.1L32-2.6l0,0c0,0.1,0.2,0.2,0.2,0.2c0-0.1,0-0.1,0.1,0c0,0,0,0,0-0.2c0.1,0,0.2,0,0.2,0s0-0.1-0.1-0.1
					c0,0,0,0,0-0.1c-0.1-0.1-0.1-0.1-0.1-0.1l0,0c0-0.1-0.2-0.3-0.3-0.4C32-3.2,32-3.2,32-3.4L32-3.4C32-3.3,32-3.3,32-3.4
					 M38.7,5.8l-0.3-1.6c-0.1-0.1-0.1-0.3-0.2-0.5c-0.1,0.3,0.1,0.6,0.2,0.9c0,0,0,0-0.1,0c0-0.1-0.1-0.2-0.1-0.2s-0.1,0-0.1,0.1
					l-1.1-2c-0.1,0.2-0.2,0.2-0.3,0.4c-0.1-0.2-0.1-0.2-0.3-0.2c0,0.1-0.1,0.2-0.1,0.3c-0.1,0-0.2,0-0.3,0.1c0,0.3,0,0.3,0,0.4h-0.1
					l-0.1,0.1l0,0h-0.1l0,0c-0.2,0-0.2,0-0.3-0.1h-0.1c0,0.2,0.1,0.4,0.1,0.6c-0.1,0-0.2,0-0.2,0c0,0.2,0.1,0.4,0.1,0.6
					c-0.1,0-0.2,0-0.3,0.1c0,0.1,0,0.4,0,0.7c0,0.1,0,0.2,0,0.2c-0.1,0-0.2,0-0.2,0c0,0.2-0.1,0.4-0.1,0.6c-0.6,0.4-0.1,1.1-0.5,1.5
					l0,0h-0.1c0,0.1,0,0.1-0.2,1.1c0,0.1,0,0.2,0,0.3c0.1,0,0.3,0,0.4,0v0.1c-0.1,0.2-0.1,0.2-0.1,1.2c0,0,0,0.1,0,0.2
					c0,0.2,0,0.2-0.2,0.3c0,0.2,0,0.3,0.1,0.5v0.1c0,0.3,0,0.4,0.3,0.7h0.1c0.1,0.1,0.1,0.2,0.1,0.4h0.1c-0.1,0.6-0.1,0.6,0.4,0.9
					c0,0.1,0,0.2,0,0.4c0.2,0.2,0.3,0.4,0.5,0.5c0.1-0.1,0.1-0.2,0.2-0.3c0.1,0,0.2,0,0.2,0l0,0c0.1,0,0.2,0,0.2,0v0.1
					c0.3-0.1,0.3-0.5,0.7-0.5c0,0,0,0,0.1-0.1c0-0.1,0.1-0.1,0.2-0.2c0,0,0.1,0,0.1,0.1c0,0.5,0,0.5,0,0.6c0.1,0,0.2-0.1,0.3-0.1
					c0,0.1-0.1,0.3-0.1,0.5c-0.9,3.3-0.9,3.3-1,3.6c0,0,0,0.1-0.1,0.1c-0.3,0.8-0.6,1.2-2.3,3.9c-0.1,0.2-0.3,0.4-0.4,0.5
					c-0.8,0.9-0.8,1-1.6,1.7c0,0,0,0-0.1,0.1c-0.2,0.1-0.2,0.1-0.3,0.2l0,0c-0.2,0.2-0.2,0.2-0.3,0.2l0,0c0.6-0.6,1.5-1.4,2.1-2
					c0.7-0.8,0.7-0.8,2-2.6c0.6-0.9,0.6-0.9,1.6-2.9c0.5-1,0.5-1,1.1-3.1c0.5-2,0.6-3.7,0.7-5.1C39,8.1,39,8.1,38.7,5.8 M28.6,18.6
					c0.1-0.7,0-0.7-0.1-0.8c-0.1,0-0.2,0-0.3,0c-0.3-0.1-0.4-0.7-0.8-0.5c-0.1,0-0.2,0-0.4,0c-0.3-0.1-0.5-0.2-0.5,0
					c-0.1,0-0.2,0.1-0.3,0c0-0.1,0-0.1,0.2-0.2c-0.5-0.3-0.5-0.3-0.7-0.3c0,0,0,0-0.1,0c-0.1-0.1-0.2-0.1-0.4,0c0,0.1,0,0.2,0,0.3
					c-0.1,0-0.2,0-0.3,0c0,0,0-0.1,0-0.2l0.1-0.1c0,0,0.1,0,0.1-0.1v-0.1c0,0-0.2,0-0.4-0.1c0,0,0,0-0.1,0c0,0,0,0-0.1,0
					c0,0-0.1,0-0.1,0.1c0,0.2,0,0.3-0.3,0.2c0,0,0-0.1,0-0.2c0.5-0.5,0.5-0.5,0.3-0.7c-0.1,0-0.1,0-0.2,0c0-0.1,0-0.2,0-0.4
					c-0.1-0.4-0.1-0.4-0.2-0.4c0,0-0.7-0.3-0.9-0.4c-0.2-0.1-0.4,0-0.5,0h-0.1c-0.7-0.1-0.7-0.3-0.8-0.6c0,0,0,0-0.4-0.2
					c0,0,0,0,0-0.1c-0.3,0-0.2-0.2-0.2-0.3c0,0,0,0-0.1,0c-0.3,0.1-0.3,0.1-0.4,0.1c0-0.2,0-0.2,0-0.3c0.1,0,0.1,0,0.2-0.1
					c-0.1-0.1-0.1-0.1-0.3-0.2l-0.2,0.1c0,0,0,0-0.1,0C20,13,20,13,19.9,13.1c-0.2,0.3-0.2,0.3-0.3,0.3c-0.2-0.1-0.3-0.3-0.5-0.3
					c-0.1,0-0.2,0-0.4,0c-0.1,0-0.1,0-0.2,0c0-0.1,0-0.1-0.1-0.2c-0.2,0-0.4-0.3-0.6-0.2c0,0.1,0,0.1-0.1,0.2
					c-0.2,0-0.3,0.1-0.3,0.1c-0.1,0.2,0.1,0.4,0,0.6c-0.4-0.2,0-0.6-0.2-0.8c0-0.1,0.3-0.3,0.3-0.4v-0.1h-0.2
					c-0.2,0-0.3,0.1-0.2,0.3c-0.1,0-0.3,0-0.5,0c-0.1,0.1-0.3,0.3-0.7,0.2c0,0.1,0,0.3,0,0.4c-0.1,0.1-0.1,0.1-0.3,0.1
					c-0.1,0.2-0.1,0.2-0.1,0.3c-0.3,0.2-0.3,0.3-0.3,0.4c0,0,0.1,0.1,0.2,0.1c0,0.3,0.3,0.6,0,0.8c-0.1,0.4-0.1,0.4-0.1,0.5
					c-0.1,0-0.1,0-0.2,0c0,0.1,0,0.2,0,0.2c-0.1,0-0.1,0.1-0.2,0.1v0.1c-0.2,0-0.3,0.1-0.3,0.4c-0.1,0-0.2,0-0.3,0
					c0,0.2,0,0.4,0,0.5h0.1c0.1,0,0.1,0,0.3,0c0,0,0,0.1,0,0.2c-0.1,0-0.2,0-0.3,0.1c0,0.1,0,0.1-0.2,0.3c0,0.2,0,0.2,0.1,0.3
					c0,0,0,0,0,0.1c0,0.6,0.9,0.7,0.9,1.2V19c1.1,1.6,1.1,1.6,1.2,1.6c0,0,0.5,0.1,1,0.7c0.1,0,0.1,0,0.2,0c0,0.2,0,0.4,0,0.6
					c0,0.1,0,0.1,0,0.2l0,0c0,0,0,0,0,0.1v0.1c0,0,0,0,0,0.1c0,0,0,0.1,0,0.2l0,0c0,0,0,0,0,0.1v0.1l0,0c0,0,0,0,0,0.1s0,0.1,0,0.2
					l0,0c0,0,0,0,0,0.1c0,0.2-0.2,0.3-0.2,0.5c-0.2,0.6-0.2,0.6-0.2,0.7l0,0c0.1,0.7,0.1,0.8-0.2,1.1v0.1v0.1l0,0
					c-0.1,0.1-0.2,0.2-0.3,0.4c0.2,0.3,0.1,0.3,0,0.6v0.1v0.1h-0.1c-0.1,0.2-0.1,0.2,0,0.2h0.1h0.1v-0.3c0.1,0,0.1,0,0.2,0v0.1
					c0,0-0.1,0-0.1,0.1s0,0.1,0,0.2c0,0,0,0-0.1,0.3l-0.1-0.1c0,0,0,0,0-0.1c0,0,0,0-0.1,0c0,0,0,0.1,0.1,0.1c0,0,0.1,0.1,0.1,0.2
					c-0.1,0-0.1-0.1-0.2-0.1c0,0,0,0.1-0.1,0.1v0.1c0.1,0,0.1,0,0.2,0.1v0.1h0.1V28c-0.2,0-0.2,0-0.3,0.1c0,0,0,0,0,0.1
					c0,0,0,0,0.1,0.1c0,0,0,0,0,0.1l0.1,0.1h-0.1l0,0c0,0,0,0,0,0.1h0.1l0,0l0,0c0.1,0.1,0.2,0.2,0.3,0.2h0.1c0,0,0,0,0.1,0.1
					c0.1,0,0.1,0,0.2,0c0,0,0,0,0.1,0s0.1,0,0.2,0c0,0,0.1,0,0.1-0.1c0,0-0.1,0-0.2,0c0,0,0,0-0.1,0c0-0.1,0-0.1,0-0.2l0,0
					c0-0.1,0-0.1,0-0.2l0,0v-0.1c0.1,0,0.1,0,0.2,0v-0.1c0.1-0.1,0.3-0.2,0.4-0.3c0,0,0,0-0.1-0.1h-0.1c-0.1-0.1-0.1-0.1-0.2-0.2
					c0,0,0,0,0-0.1c0,0,0.1-0.1,0.2-0.1s0.1,0,0.2,0c0-0.1,0-0.1,0.1-0.2s0.1-0.1,0.1-0.2c0.2,0,0.2,0,0.2-0.1c0,0,0,0,0-0.1l0,0
					l0,0l0,0l0,0l0,0l0,0l0,0l0,0c0,0-0.1,0-0.2,0c0-0.1,0-0.1,0-0.2v-0.1c0,0,0,0,0.2,0c0,0,0.1,0,0.1,0.1c0.1,0,0.2,0,0.3-0.1
					c0,0,0,0,0-0.1H19c0-0.1,0-0.1,0-0.2v-0.1c0.1,0,0.1,0,0.3,0h0.1c0.1,0,0.1,0,0.2,0s0.1,0,0.3,0c0,0,0.4-0.2,0.5-0.4l0.1-0.1
					v-0.1c0,0,0,0-0.1,0v-0.1c-0.1-0.1-0.1-0.1-0.2-0.2v-0.1c0.1,0,0.1,0,0.2,0c0.7,0.1,0.7,0.1,1-0.1c0.8-0.7,0.8-0.7,0.8-0.7
					s-0.1,0.1-0.1,0.2c0.1,0,1-0.7,1-1c0-0.2,0-0.4,0.9-0.8c0.1,0,0.2,0,0.3,0c0,0,0,0,0.3-0.2c0.2,0,0.4,0,0.7-0.1l0.1-0.1
					c0.1,0,0.1,0,0.8-0.9c0,0,0,0,0.3-0.5c0,0,0,0,0.1-0.1c0.1-0.2,0.2-0.3,0.2-0.4v-0.1v-0.1c0,0,0-0.1,0-0.2s0.1-0.2,0.2-0.4
					c0,0,0.6-0.5,0.8-0.6l0.5-0.6C28.6,18.7,28.6,18.7,28.6,18.6 M19.6,10.4L19.6,10.4c0,0-0.1,0-0.1-0.1s0-0.1,0-0.2
					c-0.3,0.1-0.3,0.1-0.4,0.1H19c-0.1,0-0.1-0.1-0.2-0.1c0,0,0,0-0.1,0s-0.1,0.1-0.2,0.1c0,0-0.2,0-0.3,0c-0.1,0-0.1-0.1-0.2-0.1
					S17.8,10,17.7,10h-0.5c-0.1,0-0.1,0-0.3,0c0,0.1,0,0.3,0,0.4c0.1,0.1,0.2,0.2,0.3,0.3c0,0,0.1,0,0.2,0c0.2,0,0.3-0.2,0.5-0.2
					c0.1,0,0.2,0,0.2,0c0.1,0,0.2,0,0.2,0c0.3,0,0.5,0,0.6-0.1c0.1,0,0.1,0,0.1,0c0.1,0,0.3,0.1,0.4,0.1S19.5,10.5,19.6,10.4
					C19.5,10.5,19.5,10.4,19.6,10.4 M15.7,10.6L15.7,10.6c0-0.1,0-0.1,0-0.2h-0.1l-0.1-0.1l0,0c-0.1,0-0.3,0-0.4,0
					c0,0,0,0.1,0.1,0.1l0,0c0,0,0,0,0.1,0s0.2,0.1,0.2,0.1s0,0,0,0.1c0,0,0,0,0,0.1h0.1C15.6,10.7,15.6,10.7,15.7,10.6 M15.2,9.7
					c0.4,0,0.7,0,1.1,0c-0.1-0.1-0.4-0.4-0.6-0.5c0,0-0.1,0-0.2,0c-0.2,0-0.3,0.1-0.5,0c-0.1,0-0.1-0.1-0.2-0.2
					c-0.1-0.1-0.3-0.1-0.4-0.2c-0.2-0.1-0.2-0.1-0.2-0.1s0-0.1-0.1-0.1s-0.2,0-0.3,0c0,0,0,0-0.1,0.1c-0.1,0-0.1,0-0.2,0
					c-0.1,0-0.2,0-0.3,0c-0.3,0-0.3,0-0.3,0c-0.3,0.2,0.2,0.7,0.5,0.5c0.1,0,0.1-0.1,0.2-0.2c0,0,0.2,0,0.3,0c0,0,0.3,0.1,0.3,0.2
					c0,0.1,0,0.1,0.1,0.1c0,0,0.3,0.1,0.4,0.1c0.1,0,0.1,0,0.2,0.1C14.9,9.5,15,9.7,15.2,9.7 M27.8-6.9c0,0-0.1-0.1-0.2-0.1
					l-0.1-0.1c-0.1,0-0.1,0-0.1,0l0,0c-0.1,0-0.1-0.1-0.2-0.2l-0.1-0.1H27c0,0,0,0,0,0.1v0.1l0,0c-0.1,0-0.1,0-0.2,0
					s-0.1,0.1-0.1,0.1l0,0h-0.1l-0.1-0.1l-0.1-0.1l-0.1-0.1l0,0l0.1,0.1c-0.1,0-0.1,0-0.1,0s-0.1,0-0.1,0.1c-0.2,0,0,0.2,0,0.2l0,0
					c0.1,0,0.3,0.1,0.4,0.2c-0.1,0-0.2,0-0.3,0l0.1,0.1l0,0h0.1l0,0c0.1,0.1,0.1,0.1,0.2,0.2l0.1,0.1c0,0,0,0,0.1,0s0.1,0,0.2,0
					c0,0,0,0,0.1,0s0.2,0.1,0.2,0.1c0.1,0,0.2,0,0.2,0v-0.1c-0.1-0.1-0.1-0.1-0.1-0.1l0,0l0,0c0-0.1-0.1-0.1,0-0.2
					C27.6-6.8,27.6-6.8,27.8-6.9 M22.7-0.6L22.7-0.6c0-0.1,0-0.1,0-0.2c-0.1,0-0.1,0-0.2,0c0,0-0.2-0.1-0.3-0.2l-0.1-0.1
					c-0.1,0-0.2,0-0.2,0s-0.1,0-0.1-0.1c0-0.2,0-0.2,0.1-0.2H22c0,0,0.1-0.1,0-0.2c0,0,0,0,0-0.1h-0.1c0,0-0.1,0-0.1,0.1v0.1v0.1
					c0,0,0,0,0,0.1c0,0-0.1,0.2-0.4,0.5c-0.1,0.1-0.1,0.1-0.1,0.2c0,0,0,0.1,0,0.2s0,0.1,0,0.1c0.3,0,0.6,0,0.9,0
					c0.1,0,0.1,0,0.2,0.1C22.5,0,22.5,0,22.6,0c0,0,0,0,0.1,0c0,0,0.1,0,0-0.3C22.6-0.5,22.6-0.5,22.7-0.6 M20.2-1L20.2-1l-0.1-0.1
					C20-1,20-1,20-1c-0.1,0-0.1,0-0.1,0c-0.1,0-0.2-0.1-0.2-0.1c0-0.1-0.1-0.1-0.1-0.1h-0.1c0,0-0.1,0-0.1,0.1c0,0,0.1,0,0.1,0.1
					l0.1,0.1l0,0c0,0,0.1,0,0.1,0.1l0.1,0.1c0,0,0,0,0.1,0C20-0.8,20-0.7,20.2-1 M19.5-11.5c-0.1,0-0.2,0-0.2,0h-0.1l0,0l0,0l0,0
					l0,0l0,0l0,0l0,0l0,0C19.3-11.5,19.4-11.5,19.5-11.5c-0.1,0-0.1,0-0.2,0C19.4-11.4,19.4-11.4,19.5-11.5L19.5-11.5L19.5-11.5
					L19.5-11.5L19.5-11.5L19.5-11.5L19.5-11.5L19.5-11.5L19.5-11.5c0,0.1,0.1,0.1,0.2,0.2c-0.1,0-0.2-0.1-0.4-0.1h-0.1
					c-0.1,0-0.2-0.1-0.3-0.1l0,0l0,0c0.2,0,0.2,0.1,0.3,0.1l0,0l0,0c-0.1,0-0.1,0-0.2-0.1l0,0h-0.1c0,0,0,0-0.1,0l0,0l0,0l0,0l0,0
					l0,0l0,0l0,0l0,0l0,0l0,0l0,0l0,0l0,0l0,0l0,0l0,0l0,0c-0.1,0-0.2-0.1-0.2-0.1h0.1l0,0h0.1h-0.1l0,0h-0.1l0,0l0,0
					c0,0-0.1,0-0.3,0l0,0l0,0h-0.1l0,0l0,0l0,0l0,0l0,0l0,0h-0.1l0,0H18h0.1c-0.1,0-0.1,0-0.2,0l0,0h-0.1l0,0h-0.1c0,0,0,0,0.1,0
					l0,0l0,0c0.1,0,0.1,0,0.2,0.1l0,0l0,0c-0.1,0-0.1,0-0.1,0l0,0l0,0l0,0l0,0l0,0l0,0l0,0l0,0l0,0l0,0l0,0H18l0,0l0,0l0,0l0,0l0,0
					l0,0l0,0l0,0l0,0l0,0l0,0l0,0l0,0l0,0l0,0l0,0c0,0,0,0,0.1,0l0,0l0,0l0,0l0,0l0,0l0,0l0,0h0.1l0,0l0,0l0,0h0.1l0,0l0,0l0,0l0,0
					l0,0l0,0l0,0h-0.1l0,0l0,0l0,0l0,0l0,0l0,0l0,0l0,0l0,0l0,0l0,0h-0.1h0.1l0,0l0,0l0,0l0,0l0,0l0,0l0,0h0.1l0,0l0,0l0,0l0,0l0,0
					l0,0l0,0l0,0l0,0l0,0h-0.1l0,0l0,0l0,0l0,0l0,0l0,0l0,0l0,0l0,0l0,0l0,0c0,0,0,0,0.1,0h0.1l0,0l0,0l0,0l0,0l0,0h-0.1l0,0l0,0
					l0,0l0,0l0,0l0,0l0,0l0,0l0,0l0,0l0,0l0,0l0,0l0,0l0,0l0,0l0,0l0,0l0,0l0,0l0,0l0,0l0,0l0,0l0,0l0,0l0,0l0,0l0,0l0,0l0,0l0,0
					l0,0l0,0l0,0l0,0l0,0l0,0l0,0l0,0l0,0l0,0l0,0l0,0l0,0l0,0l0,0l0,0l0,0l0,0l0,0l0,0l0,0l0,0l0,0l0,0l0,0l0,0l0,0l0,0l0,0l0,0
					l0,0l0,0l0,0l0,0l0,0l0,0l0,0l0,0l0,0l0,0l0,0l0,0l0,0l0,0l0,0l0,0l0,0l0,0l0,0l0,0l0,0l0,0l0,0l0,0l0,0l0,0l0,0l0,0l0,0
					c0,0,0,0,0.1,0.1c0,0,0,0-0.1,0l0,0l0,0c0,0,0,0-0.1,0l0,0l0,0l0,0l0,0l0,0l0,0l0,0l0,0l0,0l0,0l0,0l0,0l0,0l0,0l0,0l0,0l0,0
					l0,0l0,0l0,0l0,0l0,0l0,0l0,0l0,0l0,0l0,0l0,0l0,0c0,0,0,0,0,0.1l0,0l0,0l0,0l0,0h-0.1l0,0l0,0l0,0c0,0,0,0-0.1,0l0,0l0,0l0,0
					c0,0,0,0-0.1,0h-0.1l0,0l0,0l0,0l0,0l0,0l0,0l0,0l0,0H17c0,0,0,0,0,0.1c0.1,0,0.1,0,0.1,0h0.1l0,0l0,0c0,0,0,0,0.1,0l0,0l0,0
					l0,0c0,0,0,0,0.1,0l0,0l0,0l0,0c0,0,0,0,0,0.1l0,0l0,0l0,0l0,0l0,0l0,0l0,0l0,0l0,0l0,0l0,0l0,0l0,0l0,0l0,0l0,0l0,0l0,0l0,0
					h-0.1l0,0l0,0c0,0,0,0-0.1,0l0,0l0,0l0,0c0.1,0,0.1,0,0.2,0.1l0,0l0,0l0,0l0,0l0,0l0,0l0,0l0,0l0,0l0,0l0,0l0,0l0,0l0,0h0.1l0,0
					l0,0l0,0l0,0c0,0,0,0,0-0.1l0,0h0.1l0,0l0,0l0,0l0,0l0,0l0,0l0,0h0.1l0,0l0,0l0,0l0,0l0,0l0,0l0,0l0,0l0,0l0,0l0,0l0,0l0,0l0,0
					l0,0l0,0l0,0l0,0l0,0l0,0l0,0c0,0,0,0,0.1,0l0,0l0,0l0,0l0,0c0,0,0,0,0.1,0l0,0l0,0l0,0H18l0,0c0,0,0,0,0.1,0h0.1l0,0l0,0h0.1
					l0,0l0,0h0.1c0,0,0,0.1,0.1,0.1l0,0l0,0l0,0l0,0l0,0l0,0l0,0l0,0l0,0l0,0c0,0,0,0,0.1,0l0,0l0,0l0,0c0,0,0,0,0.1,0.1
					c0,0,0,0,0.1,0.1l0,0h0.1l0,0c0,0,0,0,0.1,0.1v0.1v0.1h0.1c0,0,0,0,0,0.1l0,0l0.1,0.1c0,0,0,0-0.1,0c0,0,0,0,0,0.1
					c0,0,0,0,0.1,0.1c0,0,0,0,0.1,0l0,0c0.1,0,0.1,0,0.2,0l0,0c0.2-0.1,0.2,0.2,0.4,0.2l0,0l0,0l0,0l0,0l0,0l0,0l0,0l0,0
					c0.1,0.1,0.2,0.1,0.2,0.1l0,0c0,0,0,0-0.1,0l0,0h-0.1l0,0c-0.2,0-0.3-0.1-0.5,0c0,0.1,0.1,0.1,0.2,0.1l0,0l0,0
					c0,0-0.1,0.1,0,0.1c0.1,0.1,0.2,0.1,0.3,0.1l0,0v-0.1c0,0,0,0,0.1,0c0,0,0-0.1-0.1-0.1h-0.1l0,0h-0.1l0,0c0,0,0,0,0.1,0
					s0.1,0,0.2,0.1c0,0,0,0,0.1,0s0.1,0,0.1,0.1l0,0l0,0l0,0l0,0l0,0c0.1,0.1,0.1,0.1,0.1,0.1C21-8,21-8,21-7.9h-0.1l0,0
					c0,0,0,0,0,0.1l0,0l0,0c0,0,0,0-0.1,0l0,0l0,0c0,0.1,0.1,0.1,0.1,0.2h-0.1c0,0.1,0,0.1-0.1,0.1l0,0l0,0l0,0
					C20.8-7.4,21-7.4,21-7.3h-0.1c0,0,0.1,0.3,0.4,0.3l0,0l0,0c0,0,0,0,0.1,0c0,0,0,0,0.1,0.1l0,0l0,0c0.2,0.3,0.2,0.3,0.2,0.3
					s0-0.1,0.1-0.1h0.1c0,0.1,0.1,0.1,0.1,0.2l-0.1,0.1c-0.2,0.2,1.2,1.2,1.3,1.2c0,0,0,0,0.1,0h0.1l0,0c0,0,0.5,0.5,0.6,0.2l0,0
					c0,0,0,0,0-0.1c-0.1-0.1,0-0.3-0.1-0.4s-0.2-0.2-0.3-0.3l0,0h0.1c0,0,0,0,0.1,0h0.1c-0.1-0.1-0.1-0.1,0-0.2l0,0l0,0
					c0-0.1-0.1-0.2-0.1-0.2c0-0.2-0.2-0.2-0.2-0.3c0.1,0,0.1,0,0.2-0.1c0-0.1-0.1-0.1-0.1-0.1c0.1,0,0.2,0,0.2,0
					c-0.1-0.1-0.1-0.1-0.1-0.2h0.1C24-6.8,24-6.8,24-6.7C24-7,24-7,24.1-7c0-0.1,0-0.1,0-0.2l0,0c0.1,0,0.1,0,0.1,0l0,0
					c0-0.1,0-0.1,0-0.1v-0.1l0,0c0,0,0,0,0-0.1l0,0l0,0l0,0l0,0c0,0,0,0-0.1-0.1l0,0l0,0l0,0l0,0l0,0l0,0l0,0l0,0
					c0.3,0.1,0.3,0.1,0.4,0.1c0-0.1,0-0.1,0-0.2h0.1c0,0,0,0,0.1,0l0,0l0,0c0-0.1-0.1-0.1-0.1-0.2h0.1c0-0.1,0-0.1-0.1-0.1l0,0l0,0
					l0,0l0,0c-0.1,0-0.1-0.1-0.2-0.1l0,0c-0.1,0-0.2,0-0.3-0.1c0,0-0.1,0-0.1-0.1l0,0c0.1,0,0.1,0,0.1,0v-0.1c0.2,0,0.2,0.2,0.4,0.2
					l0,0c0,0,0,0-0.1-0.1h0.1c0,0-0.5-0.3-0.9-0.5l0,0c0.1,0.1,0.1,0.1,0.2,0.1c0,0,0,0,0.1,0c-0.1,0-0.1-0.1-0.2-0.1c0,0,0,0-0.1,0
					c-0.1-0.1-0.2-0.1-0.3-0.1l0,0c0,0,0,0-0.1,0c0,0,0,0,0-0.1c0,0,0,0-0.2-0.1l0,0h0.1L23.2-9h0.1l0,0l0,0h0.1
					c-0.1-0.1-0.1-0.1-0.3-0.2l0,0c-0.1,0-0.1,0-0.1-0.1c0.1,0,0.1,0,0.1,0l0,0l0,0l0,0c-0.2-0.1-0.4-0.1-0.5-0.2l0,0l0,0
					c0,0-0.1-0.1-0.2-0.1c-0.2-0.1-0.4-0.1-0.6-0.2l0,0l0,0l0,0c0,0,0,0,0.1,0s0.1,0,0.1,0l0,0c0.1,0.1,0.1,0.1,0.3,0.2l0,0
					c-0.1-0.1-0.3-0.1-0.4-0.2h-0.1l0,0h-0.1l0,0c0,0,0,0-0.1,0s-0.1,0-0.2-0.1l0,0l0,0c0,0-0.2-0.1-0.3-0.1h0.1
					c-0.1,0-0.2-0.1-0.2-0.1s0,0-0.3-0.1l0,0c-0.1,0-0.1,0-0.2-0.1l0,0c-0.2-0.1-0.4-0.2-0.6-0.2h-0.1h-0.1h-0.1h0.1l0,0
					c-0.2,0-0.2,0-0.2-0.1l0,0C19.7-11.4,19.6-11.4,19.5-11.5 M17.5-11.5L17.5-11.5L17.5-11.5h-0.1l0,0h-0.1l0,0l0,0l0,0l0,0l0,0
					l0,0c0,0,0,0-0.1,0l0,0l0,0l0,0l0,0l0,0l0,0l0,0c0,0,0,0,0,0.1l0,0l0,0l0,0l0,0l0,0c0,0,0,0-0.1,0H17l0,0l0,0l0,0l0,0l0,0l0,0
					l0,0l0,0l0,0l0,0l0,0l0,0c0,0-0.1,0-0.1,0.1l0,0l0,0l0,0c-0.1,0-0.1,0-0.1,0l0,0l0,0l0,0l0,0h-0.1l0,0l0,0h-0.1l0,0l0,0h0.1h0.1
					l0,0h0.1h-0.1h-0.1v0.1c0.2,0,0.2,0,0.2-0.1H17h0.1h0.1l0,0l0,0c0,0,0,0,0.1,0l0,0l0,0l-0.1,0.1h0.1l0,0l0,0l0,0c0,0,0,0-0.1,0
					h-0.1l0,0H17l0,0l0,0l0,0l0,0l0,0l0,0h0.1l0,0c0,0,0,0-0.1,0c-0.1-0.1-0.1-0.1-0.1-0.1h-0.1v0.1l0,0v0.1v0.1l0,0h0.1
					c0,0-0.1,0-0.1,0.1c0,0,0,0,0,0.1l-0.1-0.1h-0.1h-0.1h-0.1h-0.1c0,0,0,0,0,0.1l0,0h0.1h0.1h0.1l-0.1,0.1v0.1
					c0.1,0,0.1,0,0.3-0.1l-0.1,0.1l-0.1,0.1h-0.1c0,0-0.1,0-0.1-0.1l0,0c0,0,0,0-0.1,0c-0.1,0.2-0.1,0.2-0.2,0.2L16-10.3v0.1h0.1
					c0,0,0.1,0,0.1-0.1c0.1,0,0.1,0.1,0.2,0c0,0,0.1,0,0.1-0.1c0,0,0,0,0.2,0h0.1c0,0,0,0,0,0.1l0,0h0.1c0,0,0,0,0.1,0
					c0.2-0.1,0.2-0.1,0.2-0.1v-0.1h-0.1v-0.1h0.1v-0.1v-0.1c0,0,0,0,0.1,0s0.1,0,0.1,0c0-0.1,0-0.1,0-0.1l0,0c0,0,0,0,0.1,0l0,0
					c0,0,0,0,0-0.1h-0.1h-0.1h-0.1v-0.1h0.1c0,0,0,0,0.1-0.1c0,0,0,0,0.1,0l0,0c0.1,0,0.1,0,0.2,0L16.9-11H17l0,0h0.1h0.1v-0.1l0,0
					h0.1l0,0l0,0h0.1l0.1-0.1l0,0l0,0l0,0c0,0,0,0-0.1,0c0,0,0,0-0.1,0l0,0l0,0c0,0,0,0,0.1,0C17.3-11.4,17.4-11.4,17.5-11.5
					C17.4-11.4,17.4-11.4,17.5-11.5L17.5-11.5L17.5-11.5 M16-10.9C16-10.9,16.1-11,16-10.9c0-0.1,0-0.1,0-0.1l0,0l0,0l0,0
					c0,0,0,0-0.1,0c0,0,0,0,0-0.1l0,0l0,0c0-0.1,0-0.1,0-0.1l0,0l0,0c-0.1,0-0.1,0-0.1,0l0,0l0,0h-0.1h-0.1c-0.1,0-0.1,0-0.1,0
					s0,0-0.1,0l0,0l0,0l-0.1,0.1h-0.1c0,0-0.1,0-0.1,0.1l0,0c0,0-0.1,0-0.1,0.1l0,0h0.1h0.1h0.1v0.1c-0.1,0-0.1,0-0.1,0h-0.1H15l0,0
					v0.1h0.1h0.1h0.1h0.1l0,0c0,0,0,0,0.1-0.1l0.1-0.1l0,0c0,0,0,0,0.1,0l0,0C15.9-10.9,15.9-10.9,16-10.9L16-10.9 M15.2-10.4h0.1
					c0-0.1,0-0.1,0-0.1h-0.1l-0.1,0.1H15.2 M16.1-9.9L16.1-9.9V-10H16h-0.2h-0.1h-0.2h-0.1h-0.1h-0.1v-0.1l0.1-0.1v-0.1h-0.1h-0.1
					C15-10.2,15-10.2,15-10l-0.1,0.1v0.1L15-9.7h0.2c0,0,0.1,0,0.1-0.1c0.1,0.1,0.1,0.1,0.2,0.1c0.1,0,0.1,0,0.2,0h0.1l0.1-0.1v0.1
					C16-9.7,16-9.7,16.1-9.9C16.1-9.8,16.1-9.8,16.1-9.9 M13.8-9.7C13.9-9.7,13.9-9.7,13.8-9.7l0.1-0.1L13.8-9.7 M14.4-9.8l0.1-0.1
					V-10v-0.1h-0.1L14.3-10l-0.1,0.1v0.1L14.4-9.8L14.4-9.8L14.4-9.8 M14.7-10.2l0.1-0.1v-0.1v-0.1h-0.1l0,0h-0.1l-0.1,0.1v0.1
					L14.7-10.2L14.7-10.2 M15.1-10.6L15.1-10.6L15.1-10.6C15-10.7,15-10.7,15-10.7l-0.1,0.1l0,0H15H15.1L15.1-10.6 M15-10.7L15-10.7
					l0.1-0.1H15v-0.1h-0.1v0.1l-0.1,0.1h0.1H15L15-10.7L15-10.7z M15.2-11L15.2-11l0.2-0.1l0,0l0,0C15.2-11.1,15.2-11.1,15.2-11
					L15.2-11L15.2-11 M14.6-10.6L14.6-10.6l0.2-0.1l0,0l0.1-0.1l0,0l0,0h-0.1l0,0l0,0h-0.1h-0.2l-0.1,0.1l0,0l0,0l-0.1,0.1
					c0,0,0,0-0.1,0l-0.1,0.1h0.1l0,0h0.1l0,0h0.1L14.6-10.6L14.6-10.6 M14.3-10.6L14.3-10.6l0.1-0.1L14.3-10.6L14.3-10.6L14.3-10.6
					L14.3-10.6z M14.3-10.2C14.3-10.2,14.4-10.3,14.3-10.2c0-0.1,0-0.1,0-0.1S14.3-10.3,14.3-10.2l-0.1-0.2h-0.1
					c0,0.1-0.1,0.3-0.1,0.2v-0.1h-0.1l-0.1,0.1l-0.1,0.1v-0.1l0.1-0.1l-0.1-0.1l-0.1,0.1c0,0,0,0,0,0.1s0,0.1,0,0.1l0.1,0.1h0.1h0.1
					v0.1l-0.1,0.1h0.1H14h0.1l0.1-0.1l0.1-0.1C14.3-10.2,14.3-10.2,14.3-10.2 M13.4-10C13.5-10,13.4-10,13.4-10L13.4-10
					c-0.1,0-0.1,0-0.1,0l-0.1,0.1C13.3-9.9,13.3-9.9,13.4-10C13.3-9.9,13.4-10,13.4-10 M13.9-10.5L13.9-10.5l0.2-0.1v-0.1
					C14-10.6,13.9-10.6,13.9-10.5 M16.5-7.4l0.1-0.1l-0.1-0.2c-0.3,0-0.3,0-0.3,0S16.1-7.6,16-7.5l0.1,0.1h0.2H16.5 M14.5-9.4
					l0.1-0.1c0-0.1-0.1-0.1-0.1-0.1h-0.1h-0.1c-0.2,0-0.2,0-0.2,0C14-9.5,14-9.5,13.9-9.5c0,0.1-0.1,0.1-0.1,0.2
					c-0.1,0.2-0.1,0.2-0.1,0.2h0.2H14l0.1-0.1h0.1l0.1-0.1L14.5-9.4 M13.4-8.9L13.5-9v-0.1v-0.1v-0.1c0.2-0.1,0.2-0.1,0.2-0.2v-0.1
					h-0.1l-0.1,0.1l0,0h-0.1h-0.1l-0.1,0.1v0.1C13-9.2,13-9.2,13-9.3h-0.1l-0.1,0.1v0.1V-9h0.1c0,0.1,0,0.1,0,0.1l0,0L13-8.8
					c0,0,0.1-0.1,0.2-0.1L13.4-8.9 M12.7-9.4l0.1-0.1v-0.1h-0.1c0,0-0.1,0-0.1,0.1s0,0.1,0,0.1s0,0,0,0.1L12.7-9.4 M12.4-9.5
					l0.1-0.1L12.4-9.5L12.4-9.5L12.4-9.5L12.4-9.5z M14-10.8C14.1-10.8,14.1-10.8,14-10.8C14.1-10.9,14.1-10.9,14-10.8L14-10.8
					L14-10.8h-0.3c0,0,0,0,0.1,0H14C13.9-10.8,14-10.8,14-10.8L14-10.8 M13.7-10.7l0.1-0.1L13.7-10.7C13.8-10.7,13.7-10.7,13.7-10.7
					h-0.1h-0.1l-0.1,0.1l0,0h0.1h0.1L13.7-10.7L13.7-10.7L13.7-10.7 M13.4-10.7L13.4-10.7l0.2-0.1l0,0l0,0L13.4-10.7L13.4-10.7
					L13.4-10.7z M13.2-10l0.2-0.1v-0.1c0,0,0,0-0.1,0l-0.1,0.1l0,0v-0.1c0,0,0.1,0,0.1-0.1l0.1-0.1c0,0,0,0-0.1,0h-0.1h-0.1L13-10.3
					c0,0.1,0,0.1-0.2,0.2h0.1C12.8-10,12.8-10,12.8-10h-0.1v-0.1l0.1-0.1l0,0c0,0,0,0-0.1,0l0,0l0,0h-0.1l-0.2,0.1L12.2-10L12-9.9
					l0-0.1h0.1h0.1h0.1h0.1h0.1h0.1c0,0-0.1,0-0.2,0h-0.1h-0.1l-0.1,0.1l0,0h0.1l0.2-0.1l0.2-0.1h0.1h0.1h0.1L13.2-10 M12.9-10.4
					L12.9-10.4h0.2C13.1-10.5,13-10.5,12.9-10.4L12.9-10.4L12.9-10.4 M12.1-10.1l0.3-0.1h-0.1L12.1-10.1L12.1-10.1L12.1-10.1z
					 M13-10.5l0.2-0.1l0,0L13-10.5c-0.1-0.1-0.1-0.1-0.1-0.1l0,0c-0.2,0.1-0.4,0.1-0.5,0.2c0,0,0,0-0.1,0h-0.2L12-10.3v0.1l0.2-0.1
					v0.1h0.1l0.1-0.1h0.1l0.2-0.1h0.1l-0.1,0.1h0.1h0.1L13-10.5 M12.3-8.3L12.3-8.3v-0.2l-0.2-0.1v-0.2l0.1-0.1V-9l0.2-0.2v-0.1
					l-0.1-0.1h-0.1l-0.1,0.1L12-9.2L12-9h-0.1l0,0v-0.1L12-9.2l0,0v-0.1h-0.1l-0.1,0.1v0.1h-0.1L11.6-9h-0.1l0.1-0.1l0.1-0.1h-0.1
					l0,0h-0.1l-0.1,0.1h-0.1l0.1-0.1l0.1-0.1l0,0h-0.1l-0.2,0.1h-0.1H11l-0.2,0.1L10.7-9l-0.2,0.1l0-0.1c0,0,0,0,0.1,0v0.1h0.1h0.1
					v0.1h-0.2h-0.1l-0.1,0.1l0.1,0.1c0.1,0,0.1,0,0.1,0h0.2h0.1c0,0,0,0,0.1,0.1c0,0,0,0-0.1,0.1h-0.2c-0.1,0-0.1,0-0.2,0l-0.3,0.1
					l-0.2,0h0.2h0.1l-0.1,0.2V-8c0.1,0,0.1,0,0.2,0h0.2l0.2-0.1H11l0.2-0.1l0.1-0.1v0.1h0.1l0.1,0.1h0.1h0.2l0.1-0.1v-0.1H12
					L12.3-8.3 M11.3-7.9L11.4-8h-0.3l-0.3,0.1h0.1L11.1-8L11.3-7.9L11.3-7.9z M11.3-9.5h0.2l0.1-0.1v-0.1h-0.1l-0.2,0.1v-0.1v-0.1
					h-0.1H11c0,0-0.1,0-0.1,0.1l-0.2,0.1l-0.3,0.2L9.8-9.2l0.1,0.1L9.7-8.9L10-9h0.1h0.2c0.2-0.1,0.3-0.2,0.7-0.4L11.3-9.5
					 M21.6-1.9L21.7-2l-0.2-0.1l0.1-0.1v-0.2h-0.3l-0.1-0.1c-0.1,0-0.2,0-0.3,0l-0.2,0.1l-0.2,0.1l-0.2-0.1v-0.2l0.3-0.1L21-2.8
					L21.1-3h-0.2l-0.2-0.1l-0.3-0.1l-0.2-0.2L20-3.6l-0.1-0.1H20v-0.1L19.7-4l-0.3-0.3L19-4.8L18.9-5l-0.2,0.3c0,0.1,0,0.2,0,0.2
					l-0.2,0.1l-0.1,0.2h-0.2l-0.1-0.2l-0.2-0.1l-0.2,0.1l0.1-0.3c0-0.1,0-0.2,0-0.4v-0.2h-0.3l-0.2-0.1L17-5.6l-0.3-0.2l-0.1,0.1
					h-0.3l-0.1-0.1c-0.1,0-0.2,0-0.3,0l-0.1,0.1l0.1,0.2l-0.1,0.3V-5l0.1,0.2c-0.1,0-0.1,0-0.2,0v0.2l-0.1,0.1l0.1,0.1l0.2,0.2v0.3
					c0,0.1,0,0.2,0,0.4l-0.2,0.2L15.5-3h-0.3l0.2,0.3c0,0.1,0,0.3,0,0.4l0.1,0.2l-0.1,0.2l-0.2,0.2h-0.4L14.6-2l-0.2-0.3
					c0-0.1,0-0.2,0-0.2v-0.3l0.1-0.3l-0.4-0.1h-0.3l-0.1-0.1l-0.4-0.1l-0.1-0.2l-0.3-0.2L12.6-4l-0.5,0.1V-4L12-4.4l-0.2-0.1
					l-0.1-0.2L12-5.1l0.3-0.3l0.3-0.3l0.3-0.1L13.1-6v-0.2l-0.3-0.1l-0.3-0.1l0.4,0.1l0.3,0.1h0.2l0.1-0.2l0.2,0.1h0.2L14-6.4
					l0.1-0.1L14-6.7h-0.2h-0.2v-0.1L13.4-7h0.2l0.2,0.1L14-6.8l0.2-0.1L14.3-7l-0.1-0.1c0.1,0,0.1,0,0.2,0L14.5-7l-0.1,0.1l-0.1,0.2
					c0,0.1-0.1,0.2-0.1,0.3L14-6.3v0.1h0.2v0.1c0.1,0,0.2,0,0.3,0l0.1-0.2h0.3H15l0.1,0.1c0.1,0,0.1,0,0.2,0v-0.2h-0.2L15-6.6h-0.2
					l-0.2-0.2h-0.2v-0.1h0.2L14.8-7v-0.1c0.1,0,0.1,0,0.2,0l0.1-0.1l0.2-0.1l0.1-0.1l-0.1-0.1v-0.2h0.2l0.1-0.1l-0.1-0.1L15.4-8
					l-0.2-0.1c0.1,0,0.1,0,0.2,0v-0.1h0.2l0.1,0.1h0.2h0.2L16-8.2h0.1L16.2-8h0.2l0.1,0.2h0.1L16.5-8l0.1,0.1l0.1,0.1l0.2,0.1
					L17-7.6v0.2l-0.2,0.2L16.7-7l0.1,0.2h-0.3h-0.2c-0.1,0-0.1,0-0.2,0l-0.2,0.2c0,0.1,0,0.1,0,0.2h0.3h0.2l0.1-0.1l0.1-0.1h0.1
					L17-6.5l0.3,0.3L17.2-6l0.2,0.2c0.1,0,0.2,0,0.2,0l0.3,0.2h0.4l0.3,0.1v-0.1l-0.4-0.3L18-6l-0.1-0.1L18.2-6l0.5,0.2l0.2,0.1
					c0-0.1,0-0.1,0-0.2L19-6.1l-0.2-0.1l-0.1-0.3l-0.3-0.1L17.9-7L18-7.1l0.1-0.1l0.5,0.3l0.2,0.2H19v-0.2L19.2-7v-0.1
					c0.1,0,0.1,0,0.1,0v-0.1l-0.1-0.2c-0.1,0-0.2,0-0.3,0v-0.1l-0.2-0.1h-0.1l-0.2-0.1h-0.1l-0.1-0.1l-0.1-0.1h-0.2h-0.1
					c0-0.1,0-0.1,0-0.2C17.9-8,18-8,18-8l0.1-0.1l-0.2-0.1v-0.1H18l-0.1-0.1h-0.2v-0.1l-0.2-0.1h-0.2v-0.1h-0.1h-0.1l0.1-0.1L17-8.9
					l-0.2,0.1l-0.1-0.1V-9h-0.1v-0.1l-0.2-0.1c-0.1,0-0.2,0-0.2,0v0.1h-0.1H16L15.9-9h-0.1v-0.1l0.1-0.1l-0.1-0.1v-0.1
					c-0.1,0-0.1,0-0.2,0l-0.1,0.1h-0.1l-0.1,0.1l-0.1,0.1V-9h-0.1l0.1,0.2h-0.1L15-8.9v-0.2v-0.1l0.2-0.1l0.2-0.1
					c-0.1,0-0.1,0-0.2,0H15l-0.3,0.2L14.5-9l-0.2,0.3h0.2h0.1v0.1h-0.1h-0.2l0.1,0.1c0.1,0,0.1,0,0.2,0h0.1l0.1,0.1L15-8.3h-0.2
					l-0.1,0.1L14.9-8l-0.3,0.3l-0.1,0.2l-0.2,0.2l-0.1-0.1v-0.2l0.1-0.1l-0.1-0.2L14-7.7L13.9-8h-0.1l0.1-0.1L14-8.3h-0.1L14-8.4
					l-0.1-0.2h-0.2l-0.1,0.1h-0.1l-0.2,0.1v0.1l-0.1,0.1L13.3-8l0.1,0.1l-0.1,0.1h-0.2v0.2h0.2L13.4-8c0,0.1-0.1,0.1-0.1,0.2
					l-0.4,0.2l-0.1,0.3l-0.1-0.2l0.2-0.2h-0.1l0.1-0.2H13l0-0.3l-0.2-0.2l-0.2,0.2l-0.2,0.1l0.1,0.2l-0.2,0.1l-0.1,0.1h-0.5
					l-0.2-0.1h-0.1l0-0.2l-0.2,0.1l-0.3,0.1l-0.1,0.2l-0.2,0.3l0.1-0.3l-0.1-0.1h-0.3L9.7-7.8l0.1-0.1L10-8v-0.1H9.8L9.6-8.3v-0.1
					H9.5H9.4l-0.2,0H9l0.2-0.2L8.9-8.4H8.8L9-8.7l0-0.1L8.8-8.6L8.5-8.5H8.3L8.1-8.4L7.8-8.3l0.4-0.2h0.2h0.2l0.2-0.1l0,0H8.4
					L8.1-8.5H8H7.9L7.5-8.4H7.4l0.1-0.2H7.3l0.1-0.1l0,0H7.2l0.1-0.1H7.2v-0.1H7.1l0,0C5.6-8.2,4.2-7.1,3-6h0.2v0.1L2.8-5.8L2.6-5.7
					L2.5-5.6L2.4-5.4l0.4-0.2H3c0.1-0.1,0.2-0.2,0.3-0.3h0.1L3.3-5.7v0.2l0.1,0.1h0.2v0.1h0.1v0.2v0.2c0,0.1,0,0.2,0,0.3h0.1v0.1
					l0,0l0.1,0.1L3.7-4.2l0.1,0.1L3.7-3.9l0.1,0.1h0.1L3.7-3.6v0.2L3.6-3.2L3.5-3h0.1L3.5-2.7v0.3v0.2L3.6-2l0.1,0.1l0.1,0.1v0.1
					l0.1,0.2L4-1.3L3.9-1c0,0.1-0.1,0.2-0.1,0.3v-0.2v-0.2v-0.2L3.7-1.4L3.6-1.5l0.1-0.2H3.6L3.5-1.9H3.4V-2H3.2v0.2l0.1,0.1v0.2
					l0.1,0.3v0.3l0,0.4L3.3-0.2L3.1,0.2C3,0.3,3,0.5,2.9,0.6L2.8,0.7c0,0.1-0.1,0.2-0.1,0.3v0.3L2.5,1.6v0.2V2L2.4,2.4l0.1,0.3
					l0.1,0.2v0.5l0.1,0.2v0.2l0.1,0.3c0.1,0,0.2,0,0.2,0l0.1,0.2l0.2,0.2l0.1,0.3v0.3v0.3v0.5L3.7,6l0.2,0.3v0.2L3.7,6.6l0.1,0.2
					L4,7l0.3,0.2l0.1,0.2v0.2v0.2l0.2,0.1l0.2,0.2l0.1,0.2v0.2L5,8.4V8.2L5,8L4.9,7.9V7.7L4.6,7.4V7.1L4.5,6.8L4.4,6.6V6.3L4.2,6.2
					L4.1,5.9L3.9,5.6V5.2h0.2l0.2,0.1l0.1,0.2v0.3l0.2,0.4l0.2,0.4L5,6.9l0.2,0.3v0.3l0.3,0.2L5.7,8l0.1,0.3l0.3,0.4L6.2,9l0.2,0.2
					L6.2,9.3v0.2l0.3,0.3l0.3,0.3l0.4,0.1l0.4,0.3L8,10.8L8.5,11l0.4,0.1h0.3L9.3,11h0.3l0.3,0.2l0.4,0.3l0.2,0.3c0.1,0,0.2,0,0.3,0
					h0.1l0.2,0.1l0.2,0.3l0.4,0.1v-0.2l0.2,0.1c0.6,0.9,0.6,0.9,0.6,1l0.1,0.1l0.2-0.1l0.2,0.1c0.4,0.4,0.4,0.4,0.6,0.4l0.5,0.3
					l0.3,0.1v-0.3l0.1-0.2H15l0.1,0.2h0.2l0.1-0.2l-0.2-0.2c-0.2,0-0.3,0-0.5,0h-0.3h-0.5l-0.2-0.2l-0.3-0.3v-0.3c0-0.1,0-0.2,0-0.4
					l0.1-0.4c0-0.1,0-0.2,0-0.3l-0.2-0.2L13,11.1h-0.5L12.2,11l-0.4,0.1l-0.2-0.2l0.2-0.2v-0.1c0-0.1,0-0.1,0-0.2l0.1-0.2L12,9.9
					c0-0.1,0-0.2,0-0.4l0.2-0.1V9.1L12,9.2h-0.5h-0.3L11,9.5l-0.1,0.4l-0.2,0.3h-0.3L10,10.3H9.6L9.4,10L9.1,9.9L9,9.6L8.8,9.2
					L8.7,8.6V8.1l0.2-0.4L9,7.3L8.8,6.9l0.3-0.4h0.2l0.3-0.2l0.3-0.2l0.3,0.1l0.2,0.1l0.2-0.1l0.2,0.2c0.1,0,0.2,0,0.3,0h0.2V6.2
					l0.1-0.3h0.4h0.3L12.5,6l0.2,0.2c0.1,0,0.1,0,0.2,0L13,6.1h0.1l0.2,0.2l0.2,0.3c0,0.1,0,0.2,0,0.3L13.6,7v0.2l0.2,0.1l0.1,0.2
					l0.2,0.1v0.2l0.2,0.1l0.1-0.2l0.1-0.2l-0.1-0.3l-0.1-0.5l-0.2-0.4c0-0.2,0-0.3,0-0.6c0-0.1,0.1-0.2,0.1-0.3L14.4,5l0.3,0
					l0.4-0.3l0.3-0.2l0.3-0.1l0.1-0.2L16,4l-0.2-0.4l-0.1-0.2l0.1-0.2L15.7,3l0.2,0l0.2,0.3L16.2,3l0.1-0.2l0.1-0.1l0.2-0.5
					c0.2,0,0.3,0,0.4,0L17.3,2h0.3l-0.1-0.2V1.4l0.2-0.3c0.1,0,0.2,0,0.3,0l0.1-0.2h0.3l0.3-0.2L19,0.5c0.5,0,0.5,0,0.8,0.1
					l-0.1,0.1c-0.1,0-0.3,0-0.4,0c-0.1,0.1-0.2,0.1-0.2,0.2s0,0.2,0,0.2l0.2,0.1L19.4,1l0.1-0.1l0.3-0.1l0.3-0.1l0.3-0.1l0.2-0.3
					l0.2-0.2v-0.2L20.5,0l-0.2,0.3h-0.4l-0.3-0.1L19.3,0l-0.2-0.4l0.3-0.2v-0.3H19l-0.4,0.1l-0.5,0.3l-0.4,0.4l-0.4,0.2l0.1-0.2
					l0.2-0.2l0.1-0.1l-0.4-0.1c0.1,0,0.3,0,0.4,0L18-0.8L18.2-1h0.3l0.1-0.2l0.2-0.1c0.1,0,0.3,0,0.4,0h0.7l0.4,0.1h0.3l0.2-0.2
					L21-1.8h0.4L21.6-1.9"/>
			</g>
		</g>
	</g>
</g>
<line class="st7" x1="40.5" y1="3.5" x2="91.3" y2="3.5"/>
<line class="st7" x1="40.5" y1="16.5" x2="91.3" y2="16.5"/>
</svg>
