<svg id="Layer_1" data-name="Layer 1" xmlns="http://www.w3.org/2000/svg" viewBox="0 0 360 360"><defs><style>.cls-1{fill:#fff;}</style></defs><title>KYG_white</title><polygon class="cls-1" points="110.23 155.36 120.16 155.36 120.16 167.39 123.25 167.39 130.78 155.36 138.83 155.36 138.83 157.28 130.23 169.96 139.81 182.89 139.81 184.81 131.25 184.81 123.07 173.13 120.16 173.13 120.16 184.81 110.23 184.81 110.23 155.36"/><path class="cls-1" d="M204.7,162.1a14,14,0,0,0-5.57-5.44,18.28,18.28,0,0,0-16.39,0,13.94,13.94,0,0,0-5.57,5.46,15.92,15.92,0,0,0-2,8,15.68,15.68,0,0,0,2,7.94,14.07,14.07,0,0,0,5.57,5.46,18,18,0,0,0,16.37,0,14.05,14.05,0,0,0,5.59-5.46,15.68,15.68,0,0,0,2-7.94A15.89,15.89,0,0,0,204.7,162.1Zm-9.33,13.51a5.75,5.75,0,0,1-8.89,0,8.47,8.47,0,0,1-1.71-5.52,10.16,10.16,0,0,1,.77-4.05,6.49,6.49,0,0,1,2.18-2.78,5.54,5.54,0,0,1,6.38,0,6.62,6.62,0,0,1,2.21,2.78,9.82,9.82,0,0,1,.79,4.05A8.42,8.42,0,0,1,195.37,175.61Z"/><polygon class="cls-1" points="208.41 155.36 216.81 155.36 220.82 174.15 223.69 160.37 233.67 160.37 236.58 174.15 240.59 155.36 248.99 155.36 242.31 184.81 232.34 184.81 228.7 168.97 225.06 184.81 215.08 184.81 208.41 155.36"/><polygon class="cls-1" points="119.18 219.13 109.73 195.42 119.7 195.42 124.33 210.16 128.86 195.42 139.36 195.42 129.43 219.13 129.43 228.24 119.18 228.24 119.18 219.13"/><path class="cls-1" d="M172.4,202.93a15.61,15.61,0,0,0-6.21-6.06,20.31,20.31,0,0,0-18.27,0,15.59,15.59,0,0,0-6.2,6.09,17.73,17.73,0,0,0-2.22,8.92,17.52,17.52,0,0,0,2.22,8.85,15.76,15.76,0,0,0,6.2,6.08,20,20,0,0,0,18.25,0,15.71,15.71,0,0,0,6.23-6.08,17.51,17.51,0,0,0,2.21-8.85A17.76,17.76,0,0,0,172.4,202.93ZM162,218a6.41,6.41,0,0,1-9.9,0,9.35,9.35,0,0,1-1.91-6.15,11.13,11.13,0,0,1,.86-4.51,7.22,7.22,0,0,1,2.43-3.1A5.93,5.93,0,0,1,157,203.1a6,6,0,0,1,3.58,1.12,7.43,7.43,0,0,1,2.46,3.1,11.13,11.13,0,0,1,.88,4.51A9.35,9.35,0,0,1,162,218Z"/><path class="cls-1" d="M186.71,227.19a13.49,13.49,0,0,1-7.8-12.54V195.42h10.78v19.23a6,6,0,0,0,1.38,4.29,5.43,5.43,0,0,0,4.06,1.43,5.29,5.29,0,0,0,4.05-1.46,5.91,5.91,0,0,0,1.39-4.26V195.42h10.78v19.23a13.49,13.49,0,0,1-7.8,12.54,20.39,20.39,0,0,1-16.84,0Z"/><path class="cls-1" d="M244.41,220.56a5,5,0,0,1-2.91-.71,4.74,4.74,0,0,1-1.57-2.53c-.29-1-.54-2.09-.77-3.29a11.06,11.06,0,0,0,4.8-3.56,9,9,0,0,0,1.55-5.37,7.92,7.92,0,0,0-1.72-5,11,11,0,0,0-4.84-3.41,19.63,19.63,0,0,0-7.23-1.22H217.27v32.82h10.44V215.79H230l1.19,4.91q2,8.31,11,8.31a12.27,12.27,0,0,0,4.39-.86v-7.78A17,17,0,0,1,244.41,220.56Zm-9.9-12.24a11.19,11.19,0,0,1-5,.79h-1.82v-6.58H231a7.27,7.27,0,0,1,3.76.74,2.56,2.56,0,0,1,1.2,2.36A2.8,2.8,0,0,1,234.51,208.32Z"/><path class="cls-1" d="M127.37,269.92a18.58,18.58,0,0,1-6.83-7.13,20.41,20.41,0,0,1-2.48-10,19,19,0,0,1,2.5-9.58,18.26,18.26,0,0,1,7-6.89,20.2,20.2,0,0,1,10.17-2.53,25.75,25.75,0,0,1,6,.7,21.58,21.58,0,0,1,5.31,2l-3.56,8.34a18.1,18.1,0,0,0-6.83-1.5,8,8,0,0,0-6.41,2.66,10.4,10.4,0,0,0-2.26,7,11.93,11.93,0,0,0,1,5,8.62,8.62,0,0,0,2.88,3.53,7.24,7.24,0,0,0,4.23,1.29,9.23,9.23,0,0,0,2.15-.21V254l9.31-1.08v16.85a29.38,29.38,0,0,1-12.43,2.8A18.71,18.71,0,0,1,127.37,269.92Z"/><path class="cls-1" d="M190.7,243.12a17.52,17.52,0,0,0-7-6.84,22.9,22.9,0,0,0-20.61,0,17.5,17.5,0,0,0-7,6.86,20,20,0,0,0-2.5,10.07,19.75,19.75,0,0,0,2.5,10,17.7,17.7,0,0,0,7,6.86,22.59,22.59,0,0,0,20.58,0,17.65,17.65,0,0,0,7-6.86,19.75,19.75,0,0,0,2.5-10A20,20,0,0,0,190.7,243.12ZM179,260.1a7.25,7.25,0,0,1-11.17,0,10.62,10.62,0,0,1-2.16-7,12.75,12.75,0,0,1,1-5.08,8.14,8.14,0,0,1,2.75-3.5,6.72,6.72,0,0,1,4-1.27,6.83,6.83,0,0,1,4,1.27,8.41,8.41,0,0,1,2.77,3.5,12.41,12.41,0,0,1,1,5.08A10.57,10.57,0,0,1,179,260.1Z"/><polygon class="cls-1" points="194.33 234.64 205.27 234.64 212.2 258.95 219.13 234.64 230.61 234.64 219.04 271.67 205.31 271.67 194.33 234.64"/><path class="cls-1" d="M228.51,270.43a5.22,5.22,0,0,1-1.61-3.93,5,5,0,0,1,1.67-3.93,6.34,6.34,0,0,1,4.41-1.5,6.1,6.1,0,0,1,4.36,1.58A5.14,5.14,0,0,1,239,266.5a5.25,5.25,0,0,1-1.56,4A6.25,6.25,0,0,1,233,272,6.18,6.18,0,0,1,228.51,270.43Z"/><path class="cls-1" d="M171,163.93c-1.06-15-10.52-13.56-10.52-13.56v7.84c2.24,0,2.82,3.44,3,6v7.07l-11.74-15.88h-8.6v29.46h7.62V169.49l11.82,15.33h8.56Z"/><path class="cls-1" d="M180.85,112.92c-55,0-108.08,9.11-108.08,9.11V141.6s69.43-6.12,108.08-6.12,106.38,6.12,106.38,6.12V122.27S235.88,112.92,180.85,112.92Zm97.25,20c-20.43-1.7-67.09-5.3-97.25-5.3S102.66,131.29,81.9,133v-4.44c16.27-2.41,57.28-7.8,98.95-7.8s81.37,5.49,97.25,8Z"/><polygon class="cls-1" points="290.84 300.8 290.84 288.6 217.26 288.6 182.49 288.6 177.51 288.6 139.81 288.6 69.16 288.6 69.16 300.8 290.84 300.8"/><polygon class="cls-1" points="56.86 307.42 52.32 307.42 42.95 307.42 42.95 324 139.81 324 177.51 324 182.49 324 217.26 324 317.05 324 317.05 307.42 303.14 307.42 56.86 307.42"/><path class="cls-1" d="M289.24,266.22H285V162.38h4.8s12.3-8.25,0-14.83H262.91v135.3h26.33S298.33,274.24,289.24,266.22Zm-13.5-2.28h-5.88V163.46h5.88Z"/><path class="cls-1" d="M69.44,147.55c-12.3,6.58,0,14.83,0,14.83h4.8V266.22H70c-9.09,8,0,16.63,0,16.63H96.3V147.55ZM89.08,263.94H83.2V163.46h5.88Z"/><path class="cls-1" d="M187.72,39.36a16.93,16.93,0,0,0-20.67.33L73.64,114.2s65.25-10.14,103.61-10.14S288.1,114.2,288.1,114.2ZM112.9,96.47l59-43.42a9.11,9.11,0,0,1,5.68-2,9,9,0,0,1,5.45,1.81L247.5,96.65c-24.63-2.92-47.17-6.45-70.25-6.45C154.62,90.2,135.41,93.59,112.9,96.47Z"/></svg>