<?xml version="1.0" encoding="utf-8"?>
<!-- Generator: Adobe Illustrator 23.0.4, SVG Export Plug-In . SVG Version: 6.00 Build 0)  -->
<svg version="1.1" id="Capa_1" xmlns="http://www.w3.org/2000/svg" xmlns:xlink="http://www.w3.org/1999/xlink" x="0px" y="0px"
	 viewBox="0 0 178 225" style="enable-background:new 0 0 178 225;" xml:space="preserve">
<style type="text/css">
	.st0{fill:#247BA0;}
	.st1{fill:#F6F4F3;}
</style>
<g>
	
		<image style="overflow:visible;opacity:0.68;" width="201" height="236" xlink:href="F73A0330493A77EA.png"  transform="matrix(1 0 0 1 -11.1339 20.8961)">
	</image>
	<g>
		<path class="st0" d="M9.9,240.9l-3-3.4c-3.2-3.6-2.8-6.9-1.7-15.6c1.7-13.7,5.2-26.3,10.4-37.3c3.1-6.6,7.4-15.6,16.2-20.4
			l24.5-13.4c0-0.5,0-1,0-1.4l-0.4-7.1c-3-3.8-7.9-10.9-10.9-20c-3.8-3.5-6-8.3-6-13.4V96.7c0-2.3,0-6.4,2.3-10.2c0,0,1.1-14,1.1-14
			c0.3-4.2,4.4-35.8,46.8-35.8c42.4,0,46.4,31.6,46.8,35.8l1.1,14c2.3,3.8,2.3,7.9,2.3,10.2v12.1c0,6.5-3.6,12.5-9.3,15.9
			c-2.6,5.9-5.9,11.5-9.9,16.5c-0.3,0.4-0.6,0.7-0.9,1.1l-0.1,7.2c0,0.4,0,1,0,1.5c0,0,26.4,13.2,26.4,13.2
			c8.1,4,12.6,11.6,16.4,19.4c4.2,8.8,7.2,18.2,9.1,27.7c1.3,6.3,2.1,12.7,2.6,19.1c0,0,0.7,10.7,0.7,10.7L9.9,240.9z"/>
	</g>
</g>
<g>
	<path class="st1" d="M145.7,176L145.7,176c-1.4-1.1-2.9-2.1-4.5-2.9L113,159c-3.6-1.8-3.7-5.5-3.7-9.6l0.2-11
		c0.9-0.9,1.9-2.1,3-3.4c4.4-5.4,7.7-11.4,9.9-17.7c4.1-1.1,7.1-4.5,7.1-8.4V96.9c0-2.6,0.1-4.9-2-6.6l-1.3-17.1
		c0,0-0.8-26.5-36.8-26.5S52.5,73.3,52.5,73.3l-1.3,17.1c-2.1,1.6-2,4-2,6.6v11.8c0,3.1,1.9,5.9,4.6,7.4
		c3.3,12.9,12.1,22.1,12.1,22.1l0.6,10.7c0,3.9,0,7.6-3.4,9.4c0,0-26.3,14.4-26.3,14.4c-5.9,3.2-9.2,10-12,15.9
		c-5.1,10.8-8.1,22.5-9.5,34.3c-0.1,0.7-0.7,7.8-0.7,7.8c0,0,149.3,0.1,149.3,0.1C161.2,193.8,145.7,176,145.7,176z"/>
</g>
</svg>
