<?xml version="1.0" encoding="utf-8"?>
<!-- Generator: Adobe Illustrator 23.0.4, SVG Export Plug-In . SVG Version: 6.00 Build 0)  -->
<svg version="1.1" id="Capa_1" xmlns="http://www.w3.org/2000/svg" xmlns:xlink="http://www.w3.org/1999/xlink" x="0px" y="0px"
	 viewBox="0 0 178 225" style="enable-background:new 0 0 178 225;" xml:space="preserve">
<style type="text/css">
	.st0{fill:#247BA0;}
	.st1{fill:#F6F4F3;}
</style>
<g>
	<g>
		<path class="st0" d="M5.6,245.4l-3.5-3.9c-3.7-4.1-3.2-7.9-2-18c2-15.8,6-30.3,12-43c3.6-7.6,8.5-18,18.7-23.5l19.4-15.4
			c0-0.6,0-1.2,0-1.6l-0.5-9.3c-3.5-4.4-9.1-12.6-12.6-23c-4.4-4-6.9-9.6-6.9-15.4V78.2c0-2.6,0-7.4,2.6-11.7l1.3-16.1
			c0.3-4.8,5.1-41.2,53.9-41.2s53.4,36.4,53.9,41.2l1.3,16.1c2.6,4.4,2.6,9.1,2.6,11.7v13.9c0,7.5-4.1,14.4-10.7,18.3
			c-3,6.8-6.8,13.2-11.4,19c-0.3,0.5-0.7,0.8-1,1.3l-0.1,9.4c0,0.5,0,1.2,0,1.7l23.8,15.2c9.3,4.6,14.5,13.4,18.9,22.3
			c4.8,10.1,8.3,21,10.5,31.9c1.5,7.3,2.4,14.6,3,22l0.8,12.3L5.6,245.4z"/>
	</g>
</g>
<g>
	<path class="st1" d="M141.5,167.3L115.7,151c-4.1-2.1-4.3-6.3-4.3-11.1l0.2-13.8c1-1,2.2-2.4,3.5-3.9c5.1-6.2,8.9-13.1,11.4-20.4
		c4.7-1.3,8.2-5.2,8.2-9.7V78.4c0-3,0.1-5.6-2.3-7.6l-1.5-19.7c0,0-0.9-30.5-42.4-30.5S46,51.2,46,51.2l-1.5,19.7
		c-2.4,1.8-2.3,4.6-2.3,7.6v13.6c0,3.6,2.2,6.8,5.3,8.5c3.8,14.9,13.9,25.5,13.9,25.5l0.7,13.4c0,4.5,0,8.8-3.9,10.8l-21.5,16.6
		c-5.7,4.6-10.6,11.5-13.8,18.3c-5.9,12.4-9.3,25.9-10.9,39.5c-0.1,0.8-0.8,9-0.8,9l156.5,0.1C167.7,185.2,143.4,168.2,141.5,167.3z
		"/>
</g>
</svg>
